<svg width="35" height="35" viewBox="0 0 35 35" fill="none" xmlns="http://www.w3.org/2000/svg">
<path fill-rule="evenodd" clip-rule="evenodd" d="M11.6839 27.7048C12.2417 27.7048 12.6938 28.1498 12.6938 28.6989C12.6938 29.2479 12.2417 29.6931 11.6839 29.6931H4.64905C1.69482 29.6931 -0.151579 26.5448 1.32554 24.0265L6.70542 14.8538L2.97557 15.6513C2.43053 15.768 1.8927 15.4275 1.77428 14.891C1.65587 14.3544 2.00173 13.8251 2.54677 13.7084L8.21958 12.4954C8.52722 12.4296 8.83258 12.5093 9.0615 12.6878C9.27381 12.8187 9.43735 13.027 9.50413 13.2847L10.9389 18.8218C11.0767 19.3539 10.7503 19.8951 10.2099 20.0309C9.66943 20.1665 9.11955 19.8452 8.98172 19.3133L8.19742 16.2864L3.07476 25.0206C2.37507 26.2136 3.24968 27.7048 4.64905 27.7048H11.6839Z" fill="#339A69"/>
<path d="M1.32554 24.0265L1.54118 24.153L1.54118 24.153L1.32554 24.0265ZM6.70542 14.8538L6.92106 14.9803L7.20824 14.4907L6.65315 14.6094L6.70542 14.8538ZM2.97557 15.6513L2.9233 15.4069L2.92322 15.4069L2.97557 15.6513ZM1.77428 14.891L1.53016 14.9449L1.53016 14.9449L1.77428 14.891ZM2.54677 13.7084L2.4945 13.4639L2.49443 13.4639L2.54677 13.7084ZM8.21958 12.4954L8.27186 12.7398L8.27188 12.7398L8.21958 12.4954ZM9.0615 12.6878L8.90776 12.885L8.91862 12.8934L8.93035 12.9007L9.0615 12.6878ZM9.50413 13.2847L9.74614 13.222L9.74613 13.222L9.50413 13.2847ZM10.9389 18.8218L11.1809 18.7591L11.1809 18.7591L10.9389 18.8218ZM10.2099 20.0309L10.2707 20.2734L10.2708 20.2733L10.2099 20.0309ZM8.98172 19.3133L8.73971 19.376L8.73971 19.376L8.98172 19.3133ZM8.19742 16.2864L8.43943 16.2237L8.28774 15.6382L7.98178 16.1599L8.19742 16.2864ZM3.07476 25.0206L3.29041 25.1471L3.29041 25.1471L3.07476 25.0206ZM12.9438 28.6989C12.9438 28.008 12.376 27.4548 11.6839 27.4548V27.9548C12.1074 27.9548 12.4438 28.2916 12.4438 28.6989H12.9438ZM11.6839 29.9431C12.376 29.9431 12.9438 29.3896 12.9438 28.6989H12.4438C12.4438 29.1061 12.1073 29.4431 11.6839 29.4431V29.9431ZM4.64905 29.9431H11.6839V29.4431H4.64905V29.9431ZM1.1099 23.9C-0.468451 26.5909 1.50851 29.9431 4.64905 29.9431V29.4431C1.88112 29.4431 0.165293 26.4987 1.54118 24.153L1.1099 23.9ZM6.48977 14.7274L1.10989 23.9L1.54118 24.153L6.92106 14.9803L6.48977 14.7274ZM3.02784 15.8958L6.75769 15.0983L6.65315 14.6094L2.9233 15.4069L3.02784 15.8958ZM1.53016 14.9449C1.6789 15.6187 2.35168 16.0406 3.02792 15.8958L2.92322 15.4069C2.50939 15.4955 2.10649 15.2362 2.01841 14.8371L1.53016 14.9449ZM2.49443 13.4639C1.81718 13.609 1.38112 14.2695 1.53016 14.9449L2.01841 14.8372C1.93063 14.4393 2.18627 14.0413 2.59912 13.9529L2.49443 13.4639ZM8.1673 12.2509L2.4945 13.4639L2.59905 13.9529L8.27186 12.7398L8.1673 12.2509ZM9.21525 12.4907C8.93011 12.2683 8.54977 12.1691 8.16728 12.2509L8.27188 12.7398C8.50467 12.69 8.73505 12.7503 8.90776 12.885L9.21525 12.4907ZM9.74613 13.222C9.66235 12.8987 9.45705 12.6379 9.19266 12.475L8.93035 12.9007C9.09057 12.9994 9.21236 13.1554 9.26212 13.3474L9.74613 13.222ZM11.1809 18.7591L9.74614 13.222L9.26212 13.3474L10.6969 18.8845L11.1809 18.7591ZM10.2708 20.2733C10.9426 20.1045 11.3544 19.4287 11.1809 18.7591L10.6969 18.8845C10.7991 19.279 10.5581 19.6856 10.149 19.7884L10.2708 20.2733ZM8.73971 19.376C8.91281 20.044 9.60025 20.4416 10.2707 20.2734L10.1491 19.7884C9.73861 19.8914 9.3263 19.6464 9.22373 19.2506L8.73971 19.376ZM7.95541 16.3491L8.73971 19.376L9.22373 19.2506L8.43943 16.2237L7.95541 16.3491ZM3.29041 25.1471L8.41307 16.4129L7.98178 16.1599L2.85912 24.8942L3.29041 25.1471ZM4.64905 27.4548C3.43598 27.4548 2.69194 26.1675 3.29041 25.1471L2.85912 24.8942C2.0582 26.2597 3.06337 27.9548 4.64905 27.9548V27.4548ZM11.6839 27.4548H4.64905V27.9548H11.6839V27.4548Z" fill="#339A69"/>
<path fill-rule="evenodd" clip-rule="evenodd" d="M27.5179 14.5938C27.5603 14.455 27.5706 14.3144 27.5526 14.1794L27.5569 14.1655L29.1687 8.67589C29.3236 8.1484 29.0148 7.59726 28.4789 7.44476C27.9433 7.29226 27.3832 7.59626 27.2284 8.12375L26.1919 11.6535L20.742 2.36132C19.2648 -0.157153 15.572 -0.157153 14.0949 2.36132L10.9412 7.73822C10.6623 8.21382 10.8279 8.82183 11.3109 9.09641C11.7939 9.37079 12.4116 9.20795 12.6905 8.73236L15.8441 3.35549C16.5438 2.16249 18.293 2.16249 18.9927 3.35549L24.4401 12.6431L21.2835 11.7074C20.7495 11.5489 20.1862 11.8468 20.0253 12.3727C19.8645 12.8984 20.1671 13.4529 20.7011 13.6112L26.2597 15.259C26.7938 15.4173 27.3571 15.1195 27.5179 14.5938ZM28.9114 20.2665L31.744 25.0964C32.4438 26.2893 31.569 27.7805 30.1697 27.7805H20.4844L23.3053 25.3312C23.7236 24.9679 23.7638 24.3398 23.3948 23.9281C23.0258 23.5163 22.3877 23.4769 21.9694 23.84L17.6157 27.6199C17.3789 27.8257 17.2633 28.1161 17.2746 28.4042C17.2279 28.5188 17.2022 28.6436 17.2022 28.7747C17.2022 28.8625 17.2138 28.9476 17.2356 29.029C17.2746 29.2228 17.3726 29.4071 17.5289 29.5539L21.7287 33.4988C22.1322 33.8777 22.7715 33.863 23.1567 33.4658C23.5417 33.0687 23.5267 32.4394 23.1232 32.0603L20.6834 29.7688H30.1697C33.1239 29.7688 34.9704 26.6206 33.4933 24.1022L30.6605 19.2723C30.3816 18.7969 29.7639 18.6339 29.281 18.9085C28.7979 19.1831 28.6324 19.7911 28.9114 20.2665Z" fill="black"/>
<path d="M27.5525 14.1794L27.3134 14.1065L27.2975 14.1585L27.3047 14.2124L27.5525 14.1794ZM27.5178 14.5938L27.7569 14.6669L27.7569 14.6668L27.5178 14.5938ZM27.5568 14.1655L27.7959 14.2384L27.7966 14.2359L27.5568 14.1655ZM29.1686 8.6759L28.9287 8.60545L28.9287 8.60547L29.1686 8.6759ZM28.4788 7.44476L28.4104 7.68521L28.4104 7.68522L28.4788 7.44476ZM27.2284 8.12376L27.4682 8.1942L27.4682 8.19412L27.2284 8.12376ZM26.1918 11.6535L25.9761 11.78L26.2687 12.2788L26.4316 11.724L26.1918 11.6535ZM20.7419 2.36133L20.9575 2.23485L20.9575 2.23485L20.7419 2.36133ZM14.0948 2.36133L14.3105 2.48781L14.3105 2.48781L14.0948 2.36133ZM10.9411 7.73823L10.7255 7.61175L10.7255 7.61177L10.9411 7.73823ZM11.3108 9.09642L11.1873 9.31376L11.1873 9.31379L11.3108 9.09642ZM12.6904 8.73236L12.4747 8.60588L12.4747 8.60591L12.6904 8.73236ZM15.8441 3.3555L16.0597 3.48198L16.0597 3.48198L15.8441 3.3555ZM18.9926 3.3555L18.777 3.48198L18.777 3.48198L18.9926 3.3555ZM24.44 12.6431L24.3689 12.8828L24.9759 13.0627L24.6556 12.5166L24.44 12.6431ZM21.2834 11.7074L21.2123 11.9471L21.2124 11.9471L21.2834 11.7074ZM20.0252 12.3727L20.2643 12.4458L20.2643 12.4458L20.0252 12.3727ZM20.701 13.6112L20.7721 13.3715L20.7721 13.3715L20.701 13.6112ZM26.2596 15.259L26.1886 15.4987L26.1886 15.4987L26.2596 15.259ZM31.7439 25.0964L31.5282 25.2228L31.5282 25.2229L31.7439 25.0964ZM28.9113 20.2665L29.1269 20.14L29.1269 20.14L28.9113 20.2665ZM20.4843 27.7805L20.3204 27.5918L19.8151 28.0305H20.4843V27.7805ZM23.3052 25.3312L23.4691 25.52L23.4692 25.52L23.3052 25.3312ZM21.9693 23.84L21.8055 23.6512L21.8054 23.6512L21.9693 23.84ZM17.6156 27.6199L17.4517 27.4311L17.4516 27.4312L17.6156 27.6199ZM17.2745 28.4043L17.506 28.4986L17.5264 28.4485L17.5243 28.3945L17.2745 28.4043ZM17.2355 29.029L17.4806 28.9796L17.479 28.9719L17.477 28.9643L17.2355 29.029ZM17.5288 29.5539L17.7 29.3716L17.6999 29.3716L17.5288 29.5539ZM21.7286 33.4988L21.5574 33.681L21.5574 33.681L21.7286 33.4988ZM23.1566 33.4658L23.3361 33.6398L23.3361 33.6398L23.1566 33.4658ZM23.1231 32.0603L23.2942 31.8781L23.2942 31.878L23.1231 32.0603ZM20.6834 29.7688V29.5188H20.052L20.5122 29.951L20.6834 29.7688ZM33.4932 24.1022L33.2776 24.2287L33.2776 24.2287L33.4932 24.1022ZM30.6604 19.2724L30.8761 19.1459L30.8761 19.1458L30.6604 19.2724ZM29.2809 18.9085L29.4044 19.1258L29.4045 19.1258L29.2809 18.9085ZM27.3047 14.2124C27.318 14.3122 27.3105 14.4166 27.2787 14.5207L27.7569 14.6668C27.8099 14.4934 27.823 14.3166 27.8003 14.1464L27.3047 14.2124ZM27.3176 14.0926L27.3134 14.1065L27.7917 14.2523L27.7959 14.2384L27.3176 14.0926ZM28.9287 8.60547L27.3169 14.0951L27.7966 14.2359L29.4085 8.74633L28.9287 8.60547ZM28.4104 7.68522C28.8158 7.80058 29.0436 8.21429 28.9287 8.60545L29.4085 8.74635C29.6034 8.08253 29.2136 7.39395 28.5473 7.20431L28.4104 7.68522ZM27.4682 8.19412C27.5834 7.80137 28.0037 7.56944 28.4104 7.68521L28.5473 7.20432C27.8826 7.01509 27.1827 7.39117 26.9885 8.05339L27.4682 8.19412ZM26.4316 11.724L27.4682 8.1942L26.9885 8.05331L25.9519 11.5831L26.4316 11.724ZM20.5262 2.48781L25.9761 11.78L26.4074 11.527L20.9575 2.23485L20.5262 2.48781ZM14.3105 2.48781C15.691 0.134028 19.1457 0.134028 20.5262 2.48781L20.9575 2.23485C19.3838 -0.448319 15.4529 -0.448319 13.8792 2.23485L14.3105 2.48781ZM11.1568 7.86471L14.3105 2.48781L13.8792 2.23485L10.7255 7.61175L11.1568 7.86471ZM11.4343 8.87908C11.0708 8.67245 10.9494 8.21842 11.1568 7.8647L10.7255 7.61177C10.3751 8.20922 10.5847 8.97123 11.1873 9.31376L11.4343 8.87908ZM12.4747 8.60591C12.2659 8.96194 11.8 9.08681 11.4343 8.87904L11.1873 9.31379C11.7876 9.65478 12.557 9.45397 12.906 8.85882L12.4747 8.60591ZM15.6284 3.22902L12.4747 8.60588L12.906 8.85885L16.0597 3.48198L15.6284 3.22902ZM19.2083 3.22902C18.412 1.87133 16.4247 1.87133 15.6284 3.22902L16.0597 3.48198C16.6628 2.45368 18.1739 2.45368 18.777 3.48198L19.2083 3.22902ZM24.6556 12.5166L19.2083 3.22902L18.777 3.48198L24.2243 12.7696L24.6556 12.5166ZM21.2124 11.9471L24.3689 12.8828L24.511 12.4034L21.3545 11.4677L21.2124 11.9471ZM20.2643 12.4458C20.3841 12.054 20.807 11.8268 21.2123 11.9471L21.3545 11.4677C20.6918 11.2711 19.988 11.6396 19.7862 12.2996L20.2643 12.4458ZM20.7721 13.3715C20.3682 13.2518 20.145 12.8357 20.2643 12.4458L19.7862 12.2995C19.5838 12.9611 19.9657 13.654 20.63 13.8509L20.7721 13.3715ZM26.3307 15.0194L20.7721 13.3715L20.63 13.8509L26.1886 15.4987L26.3307 15.0194ZM27.2787 14.5206C27.159 14.9122 26.7361 15.1395 26.3307 15.0193L26.1886 15.4987C26.8513 15.6951 27.5551 15.3267 27.7569 14.6669L27.2787 14.5206ZM31.9595 24.9699L29.1269 20.14L28.6956 20.393L31.5282 25.2228L31.9595 24.9699ZM30.1696 28.0305C31.7552 28.0305 32.7606 26.3355 31.9595 24.9699L31.5282 25.2229C32.1268 26.2432 31.3827 27.5305 30.1696 27.5305V28.0305ZM20.4843 28.0305H30.1696V27.5305H20.4843V28.0305ZM23.1413 25.1424L20.3204 27.5918L20.6482 27.9693L23.4691 25.52L23.1413 25.1424ZM23.2085 24.0949C23.484 24.4023 23.4547 24.8703 23.1413 25.1424L23.4692 25.52C23.9924 25.0656 24.0435 24.2774 23.5809 23.7612L23.2085 24.0949ZM22.1332 24.0288C22.4487 23.7549 22.9309 23.7852 23.2085 24.0949L23.5809 23.7612C23.1205 23.2475 22.3265 23.1989 21.8055 23.6512L22.1332 24.0288ZM17.7795 27.8087L22.1332 24.0288L21.8054 23.6512L17.4517 27.4311L17.7795 27.8087ZM17.5243 28.3945C17.5159 28.1798 17.6018 27.9631 17.7796 27.8086L17.4516 27.4312C17.1558 27.6882 17.0105 28.0525 17.0247 28.414L17.5243 28.3945ZM17.4521 28.7747C17.4521 28.6767 17.4713 28.5838 17.506 28.4986L17.043 28.3099C16.9843 28.4538 16.9521 28.6106 16.9521 28.7747H17.4521ZM17.477 28.9643C17.4608 28.9038 17.4521 28.8404 17.4521 28.7747H16.9521C16.9521 28.8847 16.9667 28.9915 16.994 29.0936L17.477 28.9643ZM17.6999 29.3716C17.5824 29.2613 17.5096 29.1238 17.4806 28.9796L16.9904 29.0783C17.0395 29.3218 17.1626 29.553 17.3577 29.7361L17.6999 29.3716ZM21.8997 33.3166L17.7 29.3716L17.3576 29.7361L21.5574 33.681L21.8997 33.3166ZM22.9771 33.2917C22.6871 33.5909 22.2039 33.6022 21.8997 33.3165L21.5574 33.681C22.0604 34.1533 22.8557 34.1352 23.3361 33.6398L22.9771 33.2917ZM22.9519 32.2425C23.2539 32.5262 23.2647 32.9951 22.9771 33.2917L23.3361 33.6398C23.8184 33.1423 23.7994 32.3527 23.2942 31.8781L22.9519 32.2425ZM20.5122 29.951L22.9519 32.2425L23.2942 31.878L20.8545 29.5866L20.5122 29.951ZM30.1696 29.5188H20.6834V30.0188H30.1696V29.5188ZM33.2776 24.2287C34.6535 26.5745 32.9375 29.5188 30.1696 29.5188V30.0188C33.3101 30.0188 35.2872 26.6667 33.7089 23.9758L33.2776 24.2287ZM30.4448 19.3988L33.2776 24.2287L33.7089 23.9758L30.8761 19.1459L30.4448 19.3988ZM29.4045 19.1258C29.77 18.918 30.2359 19.0429 30.4448 19.3989L30.8761 19.1458C30.5271 18.551 29.7577 18.3499 29.1573 18.6912L29.4045 19.1258ZM29.1269 20.14C28.9195 19.7865 29.0408 19.3325 29.4044 19.1258L29.1574 18.6911C28.5547 19.0337 28.3452 19.7957 28.6956 20.393L29.1269 20.14Z" fill="black"/>
</svg>
