<svg width="34" height="35" viewBox="0 0 34 35" fill="none" xmlns="http://www.w3.org/2000/svg">
<path d="M30.0688 18.999C30.0688 18.723 29.8448 18.499 29.5688 18.499H16.0688V4.98102C16.0688 4.70502 15.8448 4.48102 15.5688 4.48102C7.57385 4.48102 1.06885 10.976 1.06885 18.96C1.06885 27.238 7.31185 33.481 15.5898 33.481C23.3028 33.481 30.0688 26.713 30.0688 18.999ZM2.06885 18.96C2.06885 11.694 7.85585 5.75402 15.0688 5.49002V18.999C15.0688 19.275 15.2928 19.499 15.5688 19.481H29.0588C28.7758 26.471 22.6038 32.481 15.5898 32.481C7.88185 32.481 2.06885 26.669 2.06885 18.96V18.96ZM18.5688 16.481H32.5678C32.8438 16.499 33.0688 16.257 33.0688 15.981C33.0688 7.98602 26.5638 1.48102 18.5688 1.48102C18.2928 1.48102 18.0688 1.70502 18.0688 1.98102V15.999C18.0688 16.275 18.2928 16.499 18.5688 16.481ZM19.0688 2.49002C26.1318 2.74902 31.8278 8.46002 32.0628 15.499H19.0688V2.49002V2.49002Z" fill="black" stroke="black" stroke-width="1.5"/>
<path fill-rule="evenodd" clip-rule="evenodd" d="M17.9429 1.4883V16.5188H33.0617C33.0617 16.5188 33.0781 16.2604 33.0617 15.806C33.0558 15.6427 33.0457 15.4542 33.029 15.2432C32.8749 13.2877 32.1614 9.4064 29.0729 5.90208C25.8853 2.28538 21.3914 1.59923 19.2184 1.49069C19.2017 1.48986 19.1852 1.48906 19.1687 1.4883C18.4064 1.45269 17.9429 1.4883 17.9429 1.4883ZM19.2184 2.76795C19.8459 2.80212 20.6753 2.88883 21.606 3.09113C23.6811 3.54214 26.1798 4.5486 28.116 6.74545C30.115 9.01355 31.034 11.4554 31.4532 13.3381C31.6183 14.0797 31.7048 14.7306 31.7492 15.2432H19.2184V2.76795Z" fill="#686868"/>
<path d="M18.0379 2.76027L18.0397 2.76014M17.9429 1.4883C17.9429 1.4883 18.4064 1.45269 19.1687 1.4883C19.1852 1.48906 19.2017 1.48986 19.2184 1.49069C21.3914 1.59923 25.8853 2.28538 29.0729 5.90208C32.1614 9.4064 32.8749 13.2877 33.029 15.2432C33.0457 15.4542 33.0558 15.6427 33.0617 15.806C33.0781 16.2604 33.0617 16.5188 33.0617 16.5188H17.9429V1.4883ZM19.2184 2.76795C19.8459 2.80212 20.6753 2.88883 21.606 3.09113C23.6811 3.54214 26.1798 4.5486 28.116 6.74545C30.115 9.01355 31.034 11.4554 31.4532 13.3381C31.6183 14.0797 31.7048 14.7306 31.7492 15.2432H19.2184V2.76795Z" stroke="#686868" stroke-width="1.5"/>
</svg>
