<svg width="38" height="33" viewBox="0 0 38 33" fill="none" xmlns="http://www.w3.org/2000/svg">
<path fill-rule="evenodd" clip-rule="evenodd" d="M0.322528 32.5275C0.322528 32.5275 0.347952 32.1501 0.471641 31.5211C1.0883 28.3854 4.14744 18.9991 18.6755 18.9773C33.2036 18.9555 36.2909 28.3326 36.917 31.4664C37.0425 32.095 37.0691 32.4724 37.0691 32.4724L0.322528 32.5275ZM1.49912 31.5196L35.8895 31.468C35.8364 31.2231 35.768 30.9434 35.6803 30.6363C35.3421 29.4516 34.7215 27.8741 33.595 26.3008C31.377 23.2032 27.0921 19.9708 18.677 19.9835C10.2619 19.9961 5.9868 23.2414 3.7781 26.3456C2.6563 27.9222 2.0404 29.5016 1.70578 30.6873C1.61903 30.9947 1.5515 31.2745 1.49912 31.5196Z" fill="#339A69"/>
<path fill-rule="evenodd" clip-rule="evenodd" d="M18.6703 15.8081C22.6197 15.8021 25.8164 12.5958 25.8105 8.64643C25.8046 4.6971 22.5982 1.50033 18.6489 1.50625C14.6995 1.51217 11.5028 4.71855 11.5087 8.66788C11.5146 12.6172 14.721 15.814 18.6703 15.8081ZM18.6718 16.8143C23.1769 16.8075 26.8235 13.15 26.8167 8.64492C26.81 4.13987 23.1524 0.493277 18.6474 0.500034C14.1423 0.506791 10.4957 4.16434 10.5025 8.66939C10.5092 13.1744 14.1668 16.821 18.6718 16.8143Z" fill="black"/>
</svg>
