<svg width="37" height="35" viewBox="0 0 37 35" fill="none" xmlns="http://www.w3.org/2000/svg">
<path fill-rule="evenodd" clip-rule="evenodd" d="M25.0919 24.1448C20.5812 26.715 14.7365 25.9989 10.9884 22.0751C7.80286 18.7406 7.0011 13.9998 8.5343 9.95772L9.92346 12.7453C10.213 13.3264 10.9191 13.5628 11.5001 13.2731C12.0812 12.9835 12.3175 12.2776 12.028 11.6964L9.64514 6.91554C9.5846 6.79414 9.50598 6.68779 9.41419 6.59813C9.34827 6.53413 9.276 6.47865 9.19885 6.43227C8.87512 6.05806 8.33508 5.91624 7.85413 6.11861L2.93958 8.1862C2.34094 8.438 2.06018 9.12734 2.31165 9.72585C2.5636 10.3244 3.25305 10.6054 3.85169 10.3536L6.25403 9.34294C4.526 14.143 5.50842 19.7169 9.25598 23.6658L0.485963 31.9046C-0.117553 32.4718 -0.147338 33.4211 0.420045 34.0249C0.986939 34.6286 1.93616 34.6583 2.54016 34.091L11.5568 25.6199C16.1051 28.7017 22.0963 28.8123 26.7574 25.8884L26.7433 25.8734C27.026 25.6558 27.2076 25.3142 27.2076 24.93C27.2076 24.2729 26.6749 23.7402 26.0177 23.7402C25.653 23.7402 25.3268 23.9041 25.1085 24.1622L25.0919 24.1448Z" fill="black"/>
<path fill-rule="evenodd" clip-rule="evenodd" d="M13.7898 4.33626C18.3006 1.76604 24.1452 2.48209 27.8935 6.40594C31.233 9.90185 31.9528 14.9435 30.1085 19.1052L28.8039 16.6448C28.4997 16.0712 27.7881 15.8527 27.2144 16.1569C26.6407 16.4611 26.4223 17.1727 26.7265 17.7464L28.9827 22.0016C29.1405 22.2992 29.408 22.5012 29.7089 22.5842C29.99 22.7798 30.3537 22.8515 30.7082 22.7487L35.1742 21.4546C35.7978 21.2739 36.1569 20.6218 35.9762 19.9982C35.7955 19.3745 35.1434 19.0154 34.5197 19.1961L32.3609 19.8217C34.4492 14.8619 33.548 8.92109 29.5938 4.78171C25.1113 0.0892889 18.1368 -0.789775 12.7237 2.23725C12.5266 2.2933 12.3503 2.39891 12.2092 2.53976C12.1808 2.55727 12.1525 2.57489 12.1242 2.59263L12.1426 2.61189C11.9663 2.81942 11.8599 3.08825 11.8599 3.38193C11.8599 4.03909 12.3926 4.57182 13.0498 4.57182C13.3239 4.57182 13.5763 4.47913 13.7775 4.32338L13.7898 4.33626Z" fill="#339A69"/>
</svg>
