<svg width="34" height="35" viewBox="0 0 34 35" fill="none" xmlns="http://www.w3.org/2000/svg">
<path d="M30.0684 18.999C30.0684 18.723 29.8444 18.499 29.5684 18.499H16.0684V4.98102C16.0684 4.70502 15.8444 4.48102 15.5684 4.48102C7.57336 4.48102 1.06836 10.976 1.06836 18.96C1.06836 27.238 7.31136 33.481 15.5894 33.481C23.3024 33.481 30.0684 26.713 30.0684 18.999ZM2.06836 18.96C2.06836 11.694 7.85536 5.75402 15.0684 5.49002V18.999C15.0684 19.275 15.2924 19.499 15.5684 19.481H29.0584C28.7754 26.471 22.6034 32.481 15.5894 32.481C7.88136 32.481 2.06836 26.669 2.06836 18.96V18.96ZM18.5684 16.481H32.5674C32.8434 16.499 33.0684 16.257 33.0684 15.981C33.0684 7.98602 26.5634 1.48102 18.5684 1.48102C18.2924 1.48102 18.0684 1.70502 18.0684 1.98102V15.999C18.0684 16.275 18.2924 16.499 18.5684 16.481ZM19.0684 2.49002C26.1314 2.74902 31.8274 8.46002 32.0624 15.499H19.0684V2.49002V2.49002Z" fill="black" stroke="black" stroke-width="1.5"/>
<path fill-rule="evenodd" clip-rule="evenodd" d="M17.9424 1.4883V16.5188H33.0612C33.0612 16.5188 33.0776 16.2604 33.0612 15.806C33.0553 15.6427 33.0452 15.4542 33.0285 15.2432C32.8744 13.2877 32.161 9.4064 29.0724 5.90208C25.8848 2.28538 21.3909 1.59923 19.2179 1.49069C19.2012 1.48986 19.1847 1.48906 19.1683 1.4883C18.4059 1.45269 17.9424 1.4883 17.9424 1.4883ZM19.2179 2.76795C19.8454 2.80212 20.6748 2.88883 21.6056 3.09113C23.6806 3.54214 26.1793 4.5486 28.1155 6.74545C30.1145 9.01355 31.0336 11.4554 31.4527 13.3381C31.6178 14.0797 31.7043 14.7306 31.7487 15.2432H19.2179V2.76795Z" fill="#339A69"/>
<path d="M18.0374 2.76027L18.0392 2.76014M17.9424 1.4883C17.9424 1.4883 18.4059 1.45269 19.1683 1.4883C19.1847 1.48906 19.2012 1.48986 19.2179 1.49069C21.3909 1.59923 25.8848 2.28538 29.0724 5.90208C32.161 9.4064 32.8744 13.2877 33.0285 15.2432C33.0452 15.4542 33.0553 15.6427 33.0612 15.806C33.0776 16.2604 33.0612 16.5188 33.0612 16.5188H17.9424V1.4883ZM19.2179 2.76795C19.8454 2.80212 20.6748 2.88883 21.6056 3.09113C23.6806 3.54214 26.1793 4.5486 28.1155 6.74545C30.1145 9.01355 31.0336 11.4554 31.4527 13.3381C31.6178 14.0797 31.7043 14.7306 31.7487 15.2432H19.2179V2.76795Z" stroke="#339A69" stroke-width="1.5"/>
</svg>
