<svg width="30" height="33" viewBox="0 0 30 33" fill="none" xmlns="http://www.w3.org/2000/svg">
<path fill-rule="evenodd" clip-rule="evenodd" d="M15.7476 17.9058C15.7576 17.9813 15.7519 18.0598 15.7282 18.1374C15.6383 18.4312 15.3235 18.5976 15.0251 18.5092L11.9187 17.5883C11.6203 17.4998 11.4512 17.1899 11.5411 16.8962C11.6309 16.6023 11.9458 16.4358 12.2442 16.5244L14.0082 17.0473L10.964 11.857C10.573 11.1904 9.59548 11.1904 9.20447 11.857L7.44208 14.8618C7.28623 15.1276 6.94106 15.2186 6.67113 15.0653C6.40119 14.9118 6.3087 14.572 6.46456 14.3063L8.22694 11.3015C9.05241 9.89406 11.1161 9.89406 11.9415 11.3015L14.9871 16.4943L15.5664 14.5217C15.6529 14.2269 15.9659 14.057 16.2652 14.1423C16.5647 14.2275 16.7373 14.5355 16.6507 14.8303L15.7499 17.898C15.7492 17.9007 15.7484 17.9033 15.7476 17.9058ZM18.0898 24.0066L16.5069 21.3075C16.351 21.0418 16.4435 20.702 16.7134 20.5486C16.9833 20.3952 17.3285 20.4863 17.4844 20.7519L19.0675 23.451C19.8929 24.8584 18.861 26.6177 17.2101 26.6177H11.9088L13.2722 27.8983C13.4978 28.1102 13.5061 28.4618 13.291 28.6837C13.0757 28.9057 12.7185 28.9139 12.4929 28.7022L10.146 26.4976C10.0586 26.4156 10.0039 26.3126 9.98206 26.2043C9.96989 26.1588 9.96341 26.1113 9.96341 26.0622C9.96341 25.9889 9.97777 25.9192 10.0039 25.8552C9.99755 25.6942 10.0621 25.5318 10.1945 25.4168L12.6275 23.3045C12.8613 23.1016 13.2178 23.1236 13.424 23.3537C13.6303 23.5838 13.6078 23.9348 13.374 24.1378L11.7976 25.5066H17.2101C17.9921 25.5066 18.481 24.6733 18.0898 24.0066ZM7.45407 26.0622C7.45407 25.7553 7.20139 25.5066 6.88969 25.5066H2.95837C2.17635 25.5066 1.68759 24.6733 2.0786 24.0066L4.94132 19.1256L5.37961 20.8172C5.45663 21.1144 5.76393 21.2939 6.06596 21.2182C6.36797 21.1423 6.55037 20.8398 6.47333 20.5425L5.67155 17.4482C5.63423 17.3042 5.54284 17.1877 5.42419 17.1146C5.29626 17.0148 5.12562 16.9703 4.9537 17.007L1.78354 17.6849C1.47895 17.7502 1.28567 18.0459 1.35184 18.3458C1.41802 18.6456 1.71858 18.8359 2.02316 18.7707L4.10753 18.325L1.10107 23.451C0.275606 24.8584 1.30744 26.6177 2.95837 26.6177H6.88969C7.20139 26.6177 7.45407 26.3689 7.45407 26.0622Z" fill="#339A69"/>
<path fill-rule="evenodd" clip-rule="evenodd" d="M4.11296 5.71768H18.6114V7.46258C18.6114 8.9967 19.8748 10.2404 21.4333 10.2404H23.1099V30.2377C23.1099 30.8514 22.6046 31.3488 21.9812 31.3488H4.11296C3.48958 31.3488 2.98421 30.8514 2.98421 30.2377V28.5928V28.4595H2.96786C2.9072 28.217 2.68485 28.0372 2.41984 28.0372C2.15483 28.0372 1.93248 28.217 1.87182 28.4595H1.85547V28.5928V30.2377C1.85547 31.465 2.86618 32.4599 4.11296 32.4599H21.9812C23.228 32.4599 24.2387 31.465 24.2387 30.2377V10.2404V9.6848L23.6848 9.12924L19.7402 5.17266L19.1758 4.60657H18.6114H4.11296C2.86618 4.60657 1.85547 5.60149 1.85547 6.82879V15.3798H1.85575C1.85556 15.3857 1.85547 15.3916 1.85547 15.3976C1.85547 15.7044 2.10815 15.9531 2.41984 15.9531C2.73154 15.9531 2.98421 15.7044 2.98421 15.3976C2.98421 15.3916 2.98412 15.3857 2.98393 15.3798H2.98421V6.82879C2.98421 6.21513 3.48958 5.71768 4.11296 5.71768ZM19.7402 6.75897L22.1033 9.12924H21.4333C20.4982 9.12924 19.7402 8.38306 19.7402 7.46258V6.75897Z" fill="black"/>
<path fill-rule="evenodd" clip-rule="evenodd" d="M9.03097 1.62521H23.5078V3.37012C23.5078 4.90424 24.7712 6.14789 26.3296 6.14789H28V26.1453C28 26.7453 27.5167 27.2343 26.9125 27.2556V28.3671C28.1403 28.3454 29.1287 27.3589 29.1287 26.1453V6.14789V5.59234L28.5755 5.03678L24.6365 1.0809L24.0721 0.514099H23.5078H9.03097C7.95841 0.514099 7.06056 1.2504 6.83057 2.23752H8.02208C8.20774 1.87436 8.5898 1.62521 9.03097 1.62521ZM24.6365 2.66822L26.9949 5.03678H26.3296C25.3946 5.03678 24.6365 4.29058 24.6365 3.37012V2.66822Z" fill="black"/>
</svg>
