<svg width="32" height="33" viewBox="0 0 32 33" fill="none" xmlns="http://www.w3.org/2000/svg">
<path fill-rule="evenodd" clip-rule="evenodd" d="M29.1091 15.8163C29.2154 19.1097 28.0837 22.2788 26.0378 24.7424L21.8146 20.749C21.2127 20.1799 20.2633 20.2064 19.6941 20.8083C19.125 21.4103 19.1515 22.3597 19.7535 22.9288L23.8701 26.8214C22.5842 27.8007 21.0969 28.5604 19.4482 29.029C14.3549 30.4764 9.11085 28.7498 5.82797 25.0264L9.40276 25.1097C10.1481 25.1271 10.7665 24.5369 10.7838 23.7915C10.8012 23.0461 10.211 22.4278 9.46564 22.4104L3.33367 22.2676C3.06665 22.2614 2.81595 22.3331 2.60333 22.462C2.04991 22.5907 1.6169 23.0626 1.56461 23.6594L1.03014 29.7582C0.965048 30.5009 1.51439 31.1558 2.25713 31.2209C2.99987 31.286 3.65474 30.7366 3.71983 29.9939L3.98116 27.0119C7.94044 31.3521 14.1513 33.3412 20.1863 31.6261C22.3204 31.0197 24.2296 30.0077 25.8541 28.6975L29.2417 31.9008C29.8437 32.47 30.7931 32.4434 31.3622 31.8415C31.9314 31.2396 31.9049 30.2902 31.3029 29.721L28.0032 26.6009C30.6747 23.4531 32.0908 19.3195 31.7725 15.0594L29.1091 15.8163Z" fill="black"/>
<path fill-rule="evenodd" clip-rule="evenodd" d="M2.73052 16.8958C2.53814 10.9377 6.39782 5.3864 12.3914 3.68314C17.7313 2.16566 23.2367 4.13683 26.4743 8.24021L23.2763 8.24628C22.5308 8.2477 21.9275 8.85326 21.9289 9.59884C21.9303 10.3444 22.5359 10.9477 23.2815 10.9463L28.8118 10.9358C29.1984 10.935 29.5468 10.7719 29.7924 10.511C30.1418 10.3304 30.4096 9.99942 30.4953 9.58425L31.5748 4.35556C31.7256 3.62537 31.2559 2.91123 30.5257 2.76048C29.7955 2.60973 29.0813 3.07945 28.9306 3.80964L28.4089 6.33654C24.4915 1.55802 17.9759 -0.710781 11.6533 1.08598C4.21819 3.1989 -0.487264 10.2342 0.067156 17.6527L2.73052 16.8958Z" fill="#686868"/>
</svg>
