<svg width="37" height="35" viewBox="0 0 37 35" fill="none" xmlns="http://www.w3.org/2000/svg">
<path fill-rule="evenodd" clip-rule="evenodd" d="M25.0919 24.2964C20.5812 26.8666 14.7366 26.1506 10.9883 22.2267C7.80293 18.8922 7.00098 14.1513 8.53427 10.1092L9.92363 12.8969C10.2133 13.4781 10.9192 13.7144 11.5003 13.4248C12.0815 13.1351 12.3178 12.4292 12.0282 11.8481L9.64544 7.0672C9.54171 6.85906 9.38458 6.69516 9.19892 6.58381C8.87485 6.20971 8.33523 6.06793 7.85426 6.27028L2.9397 8.33788C2.34118 8.58968 2.06012 9.279 2.31192 9.87751C2.56372 10.476 3.25303 10.7571 3.85155 10.5053L6.2541 9.49452C4.52595 14.2945 5.50828 19.8684 9.25597 23.8173L0.486135 32.0563C-0.117642 32.6235 -0.147272 33.5728 0.419954 34.1765C0.987179 34.7803 1.93646 34.8099 2.54024 34.2427L11.5573 25.7716C16.1055 28.8533 22.0963 28.964 26.7575 26.0401L26.7431 26.025C27.0256 25.8074 27.2076 25.4658 27.2076 25.0817C27.2076 24.4246 26.6749 23.8918 26.0177 23.8918C25.6532 23.8918 25.3269 24.0558 25.1086 24.3139L25.0919 24.2964Z" fill="black"/>
<path fill-rule="evenodd" clip-rule="evenodd" d="M13.7898 4.33626C18.3006 1.76604 24.1452 2.48209 27.8935 6.40594C31.233 9.90185 31.9528 14.9435 30.1085 19.1052L28.8039 16.6448C28.4997 16.0712 27.7881 15.8527 27.2144 16.1569C26.6407 16.4611 26.4223 17.1727 26.7265 17.7464L28.9827 22.0016C29.1405 22.2992 29.408 22.5012 29.7089 22.5842C29.99 22.7798 30.3537 22.8515 30.7082 22.7487L35.1742 21.4546C35.7978 21.2739 36.1569 20.6218 35.9762 19.9982C35.7955 19.3745 35.1434 19.0154 34.5197 19.1961L32.3609 19.8217C34.4491 14.8619 33.548 8.92109 29.5938 4.78171C25.1113 0.089289 18.1368 -0.789775 12.7237 2.23725C12.5266 2.2933 12.3503 2.39891 12.2092 2.53976C12.1808 2.55727 12.1525 2.57489 12.1242 2.59263L12.1426 2.61189C11.9663 2.81942 11.8599 3.08825 11.8599 3.38193C11.8599 4.03909 12.3926 4.57182 13.0498 4.57182C13.3239 4.57182 13.5763 4.47913 13.7775 4.32338L13.7898 4.33626Z" fill="#686868"/>
</svg>
