<svg width="42" height="35" viewBox="0 0 42 35" fill="none" xmlns="http://www.w3.org/2000/svg">
<path fill-rule="evenodd" clip-rule="evenodd" d="M6.97468 18.7042C6.76985 18.2683 6.56997 17.8603 6.37879 17.4725L6.35348 17.4772L6.3541 17.4802L5.1576 17.7068L5.15697 17.703L5.12891 17.7083L5.21825 17.8883L5.21834 17.8885L5.21848 17.8888C5.43204 18.319 5.65149 18.761 5.86893 19.2238C7.70148 23.1241 11.8244 26.6757 15.4007 29.2205C17.2024 30.5025 18.8916 31.547 20.1303 32.2711C20.7499 32.6333 21.2577 32.9158 21.6113 33.1082C21.7882 33.2045 21.9266 33.2782 22.0213 33.3281C22.0686 33.353 22.105 33.372 22.1299 33.3849L22.1584 33.3997L22.1659 33.4036L22.168 33.4047L22.1687 33.405C22.1688 33.4051 22.169 33.4052 22.4474 32.8614L22.169 33.4052L22.4474 33.5477L22.7259 33.4052L22.4474 32.8614C22.7259 33.4052 22.726 33.4051 22.7262 33.405L22.7268 33.4047L22.7289 33.4036L22.7365 33.3997L22.765 33.3849L22.8271 33.3525L22.8736 33.3281C22.9683 33.2782 23.1067 33.2045 23.2835 33.1082C23.6372 32.9158 24.1449 32.6333 24.7646 32.2711C26.0033 31.547 27.6925 30.5025 29.4941 29.2205C29.5754 29.1627 29.6569 29.1043 29.7387 29.0455L29.6704 31.1372C29.6594 31.4744 29.9238 31.7566 30.261 31.7676C30.5982 31.7786 30.8805 31.5141 30.8915 31.1769L30.9995 27.8685C31.0066 27.6505 30.8986 27.4555 30.7302 27.3419C30.6387 27.2067 30.4935 27.1083 30.3194 27.0809L27.0433 26.5655C26.71 26.5131 26.3972 26.7407 26.3446 27.074C26.2921 27.4072 26.5196 27.7199 26.8529 27.7723L28.9564 28.1032C28.8994 28.144 28.8426 28.1847 28.7858 28.2251C27.0211 29.4808 25.364 30.5056 24.1481 31.2164C23.5404 31.5716 23.0437 31.8479 22.6997 32.035C22.6033 32.0875 22.5189 32.1329 22.4474 32.1711C22.376 32.1329 22.2916 32.0875 22.1951 32.035C21.8512 31.8479 21.3545 31.5716 20.7468 31.2164C19.5308 30.5056 17.8738 29.4808 16.1091 28.2251C12.5528 25.6945 8.6629 22.2974 6.97468 18.7042Z" fill="#686868"/>
<path d="M6.37879 17.4725L6.93938 17.1961L6.72945 16.7703L6.2629 16.8583L6.37879 17.4725ZM6.97468 18.7042L6.40901 18.97L6.40901 18.97L6.97468 18.7042ZM6.35348 17.4772L6.23759 16.8631L5.61007 16.9815L5.74195 17.6063L6.35348 17.4772ZM6.3541 17.4802L6.4704 18.0943L7.09743 17.9756L6.96563 17.3511L6.3541 17.4802ZM5.1576 17.7068L4.54125 17.8104L4.64702 18.4396L5.27389 18.3209L5.1576 17.7068ZM5.15697 17.703L5.77332 17.5994L5.66761 16.9706L5.04107 17.0889L5.15697 17.703ZM5.12891 17.7083L5.01301 17.0942L4.20229 17.2472L4.56906 17.9862L5.12891 17.7083ZM5.21825 17.8883L4.6584 18.1662L4.66247 18.1744L4.66678 18.1825L5.21825 17.8883ZM5.21834 17.8885L5.78179 17.6181L5.77605 17.6061L5.76981 17.5944L5.21834 17.8885ZM5.21848 17.8888L4.65497 18.1593L4.65867 18.1667L5.21848 17.8888ZM5.86893 19.2238L5.30326 19.4895L5.30326 19.4895L5.86893 19.2238ZM15.4007 29.2205L15.7631 28.7113L15.7631 28.7113L15.4007 29.2205ZM20.1303 32.2711L19.8148 32.8107L19.8148 32.8107L20.1303 32.2711ZM21.6113 33.1082L21.91 32.5592L21.91 32.5592L21.6113 33.1082ZM22.0213 33.3281L22.3127 32.7752L22.3127 32.7752L22.0213 33.3281ZM22.1299 33.3849L21.8418 33.9396L21.8425 33.94L22.1299 33.3849ZM22.1584 33.3997L21.871 33.9547L21.8723 33.9554L22.1584 33.3997ZM22.1659 33.4036L21.8799 33.9593L21.8804 33.9595L22.1659 33.4036ZM22.168 33.4047L21.8825 33.9606L21.8831 33.9609L22.168 33.4047ZM22.1687 33.405L21.8837 33.9612L21.8847 33.9618L22.1687 33.405ZM22.4474 32.8614L23.0037 32.5766L22.4474 31.4903L21.8911 32.5766L22.4474 32.8614ZM22.169 33.4052L21.6127 33.1203L21.3278 33.6766L21.8841 33.9615L22.169 33.4052ZM22.4474 33.5477L22.1626 34.104L22.4474 34.2499L22.7323 34.104L22.4474 33.5477ZM22.7259 33.4052L23.0108 33.9615L23.5671 33.6766L23.2822 33.1203L22.7259 33.4052ZM22.7262 33.405L23.0102 33.9618L23.0119 33.9609L22.7262 33.405ZM22.7268 33.4047L22.4413 32.8487L22.4412 32.8488L22.7268 33.4047ZM22.7289 33.4036L23.0145 33.9595L23.015 33.9593L22.7289 33.4036ZM22.7365 33.3997L23.0226 33.9554L23.0239 33.9547L22.7365 33.3997ZM22.765 33.3849L23.0524 33.94L23.0542 33.939L22.765 33.3849ZM22.8271 33.3525L23.1164 33.9066L23.1179 33.9057L22.8271 33.3525ZM22.8736 33.3281L23.1644 33.8813L23.165 33.881L22.8736 33.3281ZM23.2835 33.1082L22.9849 32.5592L22.9849 32.5592L23.2835 33.1082ZM24.7646 32.2711L25.08 32.8107L25.08 32.8107L24.7646 32.2711ZM29.4941 29.2205L29.1318 28.7113L29.1318 28.7113L29.4941 29.2205ZM29.7387 29.0455L30.3634 29.0659L30.4048 27.7962L29.3736 28.5382L29.7387 29.0455ZM29.6704 31.1372L29.0457 31.1168L29.0457 31.1168L29.6704 31.1372ZM30.261 31.7676L30.2814 31.1429L30.2814 31.1429L30.261 31.7676ZM30.8915 31.1769L31.5162 31.1973L31.5162 31.1973L30.8915 31.1769ZM30.9995 27.8685L31.6241 27.8889L31.6241 27.8889L30.9995 27.8685ZM30.7302 27.3419L30.2127 27.6922L30.2804 27.7923L30.3806 27.8599L30.7302 27.3419ZM30.3194 27.0809L30.4165 26.4635L30.4165 26.4635L30.3194 27.0809ZM27.0433 26.5655L27.1404 25.9481L27.1404 25.9481L27.0433 26.5655ZM26.3446 27.074L26.962 27.1714L26.962 27.1714L26.3446 27.074ZM26.8529 27.7723L26.95 27.1549L26.95 27.1549L26.8529 27.7723ZM28.9564 28.1032L29.3206 28.6111L30.5592 27.7227L29.0535 27.4858L28.9564 28.1032ZM28.7858 28.2251L29.1482 28.7343L29.1482 28.7343L28.7858 28.2251ZM24.1481 31.2164L24.4635 31.7559L24.4635 31.7559L24.1481 31.2164ZM22.6997 32.035L22.4011 31.486L22.4011 31.486L22.6997 32.035ZM22.4474 32.1711L22.1529 32.7224L22.4474 32.8797L22.742 32.7224L22.4474 32.1711ZM22.1951 32.035L21.8965 32.5841L21.8965 32.5841L22.1951 32.035ZM20.7468 31.2164L20.4314 31.7559L20.4314 31.7559L20.7468 31.2164ZM16.1091 28.2251L16.4714 27.7158L16.4714 27.7158L16.1091 28.2251ZM5.81821 17.7488C6.00903 18.1359 6.20678 18.5396 6.40901 18.97L7.54036 18.4385C7.33292 17.997 7.1309 17.5846 6.93938 17.1961L5.81821 17.7488ZM6.46937 18.0914L6.49469 18.0866L6.2629 16.8583L6.23759 16.8631L6.46937 18.0914ZM6.96563 17.3511L6.96501 17.3482L5.74195 17.6063L5.74258 17.6093L6.96563 17.3511ZM5.27389 18.3209L6.4704 18.0943L6.23781 16.8661L5.04131 17.0927L5.27389 18.3209ZM4.54061 17.8066L4.54125 17.8104L5.77395 17.6032L5.77332 17.5994L4.54061 17.8066ZM5.2448 18.3225L5.27286 18.3172L5.04107 17.0889L5.01301 17.0942L5.2448 18.3225ZM5.77809 17.6105L5.68875 17.4305L4.56906 17.9862L4.6584 18.1662L5.77809 17.6105ZM5.76981 17.5944L5.76972 17.5942L4.66678 18.1825L4.66687 18.1826L5.76981 17.5944ZM5.78193 17.6183L5.78179 17.6181L4.65489 18.159L4.65502 18.1593L5.78193 17.6183ZM6.43461 18.958C6.21385 18.4881 5.99145 18.0402 5.77828 17.6109L4.65867 18.1667C4.87264 18.5977 5.08913 19.0338 5.30326 19.4895L6.43461 18.958ZM15.7631 28.7113C12.1971 26.1738 8.19334 22.7012 6.4346 18.958L5.30326 19.4895C7.20963 23.547 11.4517 27.1776 15.0384 29.7297L15.7631 28.7113ZM20.4457 31.7315C19.2186 31.0142 17.5458 29.9798 15.7631 28.7113L15.0384 29.7297C16.8589 31.0251 18.5645 32.0798 19.8148 32.8107L20.4457 31.7315ZM21.91 32.5592C21.5613 32.3695 21.0592 32.0902 20.4457 31.7315L19.8148 32.8107C20.4406 33.1765 20.954 33.4622 21.3127 33.6573L21.91 32.5592ZM22.3127 32.7752C22.2203 32.7265 22.0843 32.6541 21.91 32.5592L21.3127 33.6573C21.4921 33.7548 21.6329 33.8298 21.7298 33.881L22.3127 32.7752ZM22.418 32.8303C22.3942 32.818 22.3589 32.7995 22.3127 32.7752L21.7298 33.8809C21.7783 33.9065 21.8159 33.9261 21.8418 33.9396L22.418 32.8303ZM22.4457 32.8447L22.4173 32.8299L21.8425 33.94L21.871 33.9547L22.4457 32.8447ZM22.452 32.8479L22.4445 32.844L21.8723 33.9554L21.8799 33.9593L22.452 32.8479ZM22.4536 32.8487L22.4515 32.8476L21.8804 33.9595L21.8825 33.9606L22.4536 32.8487ZM22.4536 32.8487L22.453 32.8484L21.8831 33.9609L21.8837 33.9612L22.4536 32.8487ZM21.8911 32.5766C21.7519 32.8485 21.6824 32.9841 21.6477 33.0518C21.6301 33.0859 21.6219 33.1018 21.6182 33.109C21.6157 33.1139 21.6168 33.1116 21.619 33.1075C21.6198 33.1062 21.6215 33.103 21.6238 33.0988C21.6253 33.0962 21.6311 33.0858 21.6392 33.073C21.6432 33.0666 21.6514 33.0536 21.6628 33.0379C21.6712 33.0264 21.6976 32.9903 21.739 32.9511C21.771 32.9208 21.8884 32.8133 22.0816 32.7861C22.2991 32.7555 22.463 32.8535 22.4526 32.8482L21.8847 33.9618C21.8743 33.9564 22.0382 34.0545 22.2558 34.0239C22.449 33.9967 22.5663 33.8892 22.5984 33.8588C22.6398 33.8196 22.6662 33.7835 22.6746 33.772C22.686 33.7562 22.6943 33.7432 22.6983 33.7368C22.7065 33.7238 22.7124 33.7133 22.7141 33.7103C22.7165 33.7059 22.7185 33.7023 22.7195 33.7004C22.7228 33.6942 22.7262 33.6877 22.7281 33.6841C22.7331 33.6744 22.7424 33.6563 22.7597 33.6225C22.7948 33.5543 22.8645 33.4181 23.0037 33.1463L21.8911 32.5766ZM22.7253 33.69L23.0037 33.1463L21.8911 32.5766L21.6127 33.1203L22.7253 33.69ZM22.7323 32.9915L22.4539 32.8489L21.8841 33.9615L22.1626 34.104L22.7323 32.9915ZM22.441 32.8489L22.1626 32.9915L22.7323 34.104L23.0108 33.9615L22.441 32.8489ZM21.8911 33.1463L22.1696 33.69L23.2822 33.1203L23.0037 32.5766L21.8911 33.1463ZM22.4423 32.8482C22.4318 32.8535 22.5957 32.7555 22.8133 32.7861C23.0065 32.8133 23.1239 32.9208 23.1559 32.9511C23.1973 32.9903 23.2237 33.0264 23.232 33.0379C23.2434 33.0536 23.2517 33.0666 23.2557 33.073C23.2638 33.0858 23.2696 33.0962 23.2711 33.0988C23.2734 33.103 23.2751 33.1062 23.2758 33.1075C23.278 33.1116 23.2792 33.1139 23.2767 33.109C23.2729 33.1018 23.2647 33.0859 23.2472 33.0518C23.2125 32.9841 23.143 32.8485 23.0037 32.5766L21.8911 33.1463C22.0303 33.4181 22.1001 33.5543 22.1351 33.6225C22.1525 33.6563 22.1618 33.6744 22.1668 33.6841C22.1687 33.6877 22.172 33.6942 22.1754 33.7004C22.1764 33.7023 22.1783 33.7059 22.1808 33.7103C22.1825 33.7133 22.1884 33.7238 22.1965 33.7368C22.2006 33.7432 22.2089 33.7562 22.2203 33.772C22.2287 33.7835 22.2551 33.8196 22.2965 33.8588C22.3285 33.8892 22.4459 33.9967 22.6391 34.0239C22.8567 34.0545 23.0206 33.9564 23.0102 33.9618L22.4423 32.8482ZM22.4412 32.8488L22.4406 32.8491L23.0119 33.9609L23.0125 33.9606L22.4412 32.8488ZM22.4434 32.8476L22.4413 32.8487L23.0124 33.9606L23.0145 33.9595L22.4434 32.8476ZM22.4504 32.844L22.4428 32.8479L23.015 33.9593L23.0226 33.9554L22.4504 32.844ZM22.4776 32.8299L22.4491 32.8447L23.0239 33.9547L23.0524 33.94L22.4776 32.8299ZM22.5379 32.7985L22.4757 32.8309L23.0542 33.939L23.1163 33.9066L22.5379 32.7985ZM22.5827 32.7749L22.5363 32.7993L23.1179 33.9057L23.1644 33.8813L22.5827 32.7749ZM22.9849 32.5592C22.8105 32.6541 22.6745 32.7265 22.5821 32.7752L23.165 33.881C23.262 33.8298 23.4028 33.7548 23.5822 33.6573L22.9849 32.5592ZM24.4492 31.7315C23.8357 32.0902 23.3336 32.3695 22.9849 32.5592L23.5822 33.6573C23.9409 33.4622 24.4542 33.1765 25.08 32.8107L24.4492 31.7315ZM29.1318 28.7113C27.349 29.9798 25.6763 31.0142 24.4492 31.7315L25.08 32.8107C26.3304 32.0798 28.036 31.0251 29.8565 29.7297L29.1318 28.7113ZM29.3736 28.5382C29.2928 28.5964 29.2121 28.6541 29.1318 28.7113L29.8565 29.7297C29.9386 29.6713 30.0211 29.6123 30.1037 29.5528L29.3736 28.5382ZM30.2951 31.1576L30.3634 29.0659L29.114 29.0251L29.0457 31.1168L30.2951 31.1576ZM30.2814 31.1429C30.2822 31.143 30.2845 31.1433 30.287 31.1445C30.2891 31.1455 30.2904 31.1466 30.2912 31.1474C30.2921 31.1483 30.2931 31.1497 30.2939 31.1518C30.2949 31.1544 30.2951 31.1568 30.2951 31.1576L29.0457 31.1168C29.0235 31.799 29.5585 32.3701 30.2407 32.3923L30.2814 31.1429ZM30.2668 31.1566C30.2668 31.1558 30.2672 31.1534 30.2684 31.1509C30.2693 31.1488 30.2704 31.1475 30.2713 31.1467C30.2721 31.1459 30.2735 31.145 30.2756 31.1441C30.2782 31.1431 30.2806 31.1429 30.2814 31.1429L30.2407 32.3923C30.9229 32.4145 31.4939 31.8795 31.5162 31.1973L30.2668 31.1566ZM30.3748 27.8481L30.2668 31.1566L31.5162 31.1973L31.6241 27.8889L30.3748 27.8481ZM30.3806 27.8599C30.379 27.8588 30.3778 27.8575 30.3768 27.8556C30.3762 27.8544 30.3756 27.853 30.3752 27.8514C30.3748 27.8496 30.3748 27.8484 30.3748 27.8481L31.6241 27.8889C31.6386 27.4472 31.4189 27.0526 31.0798 26.8238L30.3806 27.8599ZM30.2223 27.6983C30.2214 27.6982 30.219 27.6975 30.2165 27.6959C30.2145 27.6946 30.2134 27.6933 30.2127 27.6922L31.2478 26.9915C31.0632 26.7188 30.7687 26.5189 30.4165 26.4635L30.2223 27.6983ZM26.9461 27.1829L30.2223 27.6983L30.4165 26.4635L27.1404 25.9481L26.9461 27.1829ZM26.962 27.1714C26.9619 27.1722 26.9612 27.1744 26.9598 27.1767C26.9586 27.1787 26.9574 27.1798 26.9565 27.1804C26.9556 27.1811 26.9541 27.1819 26.9519 27.1824C26.9493 27.1831 26.9469 27.183 26.9461 27.1829L27.1404 25.9481C26.4663 25.842 25.8336 26.3025 25.7273 26.9766L26.962 27.1714ZM26.95 27.1549C26.9508 27.155 26.9531 27.1557 26.9555 27.1572C26.9575 27.1584 26.9587 27.1597 26.9594 27.1607C26.9601 27.1616 26.961 27.1632 26.9615 27.1655C26.9622 27.1682 26.9621 27.1706 26.962 27.1714L25.7273 26.9766C25.6209 27.6509 26.0814 28.2836 26.7558 28.3897L26.95 27.1549ZM29.0535 27.4858L26.95 27.1549L26.7558 28.3897L28.8592 28.7206L29.0535 27.4858ZM29.1482 28.7343C29.2056 28.6934 29.2631 28.6524 29.3206 28.6111L28.5921 27.5954C28.5358 27.6357 28.4796 27.6759 28.4235 27.7158L29.1482 28.7343ZM24.4635 31.7559C25.6911 31.0383 27.3646 30.0034 29.1482 28.7343L28.4235 27.7158C26.6777 28.9581 25.037 29.9728 23.8326 30.6768L24.4635 31.7559ZM22.9984 32.5841C23.3473 32.3943 23.8497 32.1148 24.4635 31.7559L23.8326 30.6768C23.2311 31.0284 22.74 31.3016 22.4011 31.486L22.9984 32.5841ZM22.742 32.7224C22.8148 32.6835 22.9005 32.6373 22.9984 32.5841L22.4011 31.486C22.306 31.5377 22.223 31.5824 22.1529 31.6199L22.742 32.7224ZM21.8965 32.5841C21.9943 32.6373 22.0801 32.6835 22.1529 32.7224L22.742 31.6199C22.6719 31.5824 22.5888 31.5377 22.4938 31.486L21.8965 32.5841ZM20.4314 31.7559C21.0452 32.1148 21.5476 32.3943 21.8965 32.5841L22.4938 31.486C22.1549 31.3016 21.6638 31.0284 21.0622 30.6768L20.4314 31.7559ZM15.7467 28.7343C17.5303 30.0034 19.2038 31.0383 20.4314 31.7559L21.0622 30.6768C19.8579 29.9728 18.2172 28.9581 16.4714 27.7158L15.7467 28.7343ZM6.40901 18.97C8.17108 22.7204 12.1803 26.1965 15.7467 28.7343L16.4714 27.7158C12.9253 25.1925 9.15471 21.8744 7.54036 18.4385L6.40901 18.97Z" fill="#686868"/>
<path fill-rule="evenodd" clip-rule="evenodd" d="M36.8423 4.42475C35.5761 3.43442 34.3314 2.91625 33.0345 2.75249C31.7297 2.58774 30.3311 2.77662 28.7534 3.26384C27.3342 3.70214 25.8471 5.01258 24.6709 6.30222C24.0943 6.93432 23.6133 7.53782 23.2765 7.98343C23.1083 8.20593 22.9766 8.38829 22.8876 8.5142C22.8431 8.57713 22.8092 8.62591 22.7869 8.65847L22.762 8.69488L22.7562 8.70348L22.7549 8.70529L22.7549 8.70541L22.7548 8.70554L22.7548 8.70556L22.2608 9.4431L21.7485 8.71821L21.7485 8.71819L21.7484 8.71807L21.7483 8.71793L21.747 8.71605L21.7407 8.70721L21.7137 8.66983C21.6895 8.63643 21.6529 8.58644 21.6048 8.522C21.5085 8.39308 21.3664 8.20653 21.185 7.97938C20.8219 7.52447 20.3042 6.90984 19.6861 6.27028C18.4249 4.96534 16.8393 3.6566 15.3471 3.27168C13.859 2.88783 12.5787 2.75139 11.3837 2.91707C10.1963 3.0817 9.05367 3.55016 7.84861 4.43581C6.71595 5.26825 5.98334 6.14193 5.48365 7.14031C4.99937 8.10792 4.71876 9.2224 4.53077 10.5897L6.15293 9.36454C6.42214 9.16121 6.80551 9.21439 7.0092 9.48333C7.21289 9.75227 7.15978 10.1351 6.89057 10.3384L4.24586 12.3359C4.11723 12.4331 3.96254 12.4717 3.81384 12.4561C3.61093 12.4754 3.40289 12.3929 3.26985 12.2193L1.25485 9.59008C1.04963 9.3223 1.10056 8.93916 1.36862 8.7343C1.63667 8.52945 2.02033 8.58046 2.22555 8.84823L3.33778 10.2995C3.53548 8.91611 3.8399 7.69487 4.39113 6.59351C4.98693 5.40309 5.85457 4.38513 7.1251 3.45137C8.47147 2.46186 9.80163 1.90301 11.2159 1.70692C12.6227 1.51188 14.073 1.68131 15.6522 2.08868C17.4982 2.56488 19.2865 4.0988 20.5646 5.42125C21.2161 6.09538 21.7594 6.74063 22.1398 7.21716C22.1725 7.25817 22.2041 7.29795 22.2344 7.33641L22.3019 7.24672C22.655 6.77954 23.1602 6.14557 23.7682 5.47892C24.9611 4.17104 26.6369 2.63882 28.3929 2.09652C30.0751 1.57702 31.6562 1.34704 33.1875 1.5404C34.7268 1.73475 36.1748 2.35165 37.5949 3.46243C38.8226 4.42266 39.6436 5.45072 40.1983 6.63905C40.7481 7.81702 41.0218 9.12184 41.199 10.6095C41.5554 13.6005 40.5921 15.5527 39.4499 17.8675L39.4498 17.8678L39.4494 17.8685C39.2451 18.2826 39.0351 18.7083 38.8258 19.1536C38.0451 20.8154 36.8486 22.4138 35.4557 23.898L35.4454 23.8885C35.4926 23.8042 35.5195 23.707 35.5195 23.6035C35.5195 23.2805 35.2573 23.0186 34.9338 23.0186C34.8143 23.0186 34.7031 23.0544 34.6104 23.1158L34.5591 23.0684C35.8817 21.6605 37.0008 20.1651 37.7201 18.6341C37.9473 18.1506 38.1677 17.7013 38.3766 17.2756L38.3767 17.2754L38.3768 17.2751L38.3768 17.2751C39.506 14.9738 40.2967 13.3624 39.9859 10.754C39.815 9.32024 39.5614 8.16305 39.0912 7.15582C38.6259 6.15896 37.934 5.27865 36.8423 4.42475Z" fill="black"/>
<path d="M33.0345 2.75249L32.9562 3.37257L32.9562 3.37257L33.0345 2.75249ZM36.8423 4.42475L36.4572 4.91704L36.4572 4.91705L36.8423 4.42475ZM28.7534 3.26384L28.569 2.66667L28.569 2.66667L28.7534 3.26384ZM24.6709 6.30222L24.2091 5.88104L24.2091 5.88104L24.6709 6.30222ZM23.2765 7.98343L23.7751 8.36031L23.7751 8.36031L23.2765 7.98343ZM22.8876 8.5142L23.3978 8.87513L23.3978 8.87513L22.8876 8.5142ZM22.7869 8.65847L22.2718 8.30442L22.2708 8.30586L22.7869 8.65847ZM22.762 8.69488L22.2459 8.34227L22.2442 8.34477L22.762 8.69488ZM22.7562 8.70348L22.2384 8.35337L22.2379 8.35415L22.7562 8.70348ZM22.7549 8.70529L22.2367 8.35595L22.2343 8.35955L22.7549 8.70529ZM22.7549 8.70541L23.2726 9.05562L23.2755 9.05115L22.7549 8.70541ZM22.7548 8.70554L22.2371 8.35534L22.2347 8.35885L22.7548 8.70554ZM22.7548 8.70556L23.2741 9.05333L23.2748 9.05225L22.7548 8.70556ZM22.2608 9.4431L21.7504 9.80381L22.2747 10.5456L22.7802 9.79086L22.2608 9.4431ZM21.7485 8.71821L21.2324 9.07074L21.2381 9.07893L21.7485 8.71821ZM21.7485 8.71819L22.2648 8.36566L22.2579 8.35599L21.7485 8.71819ZM21.7484 8.71807L21.2388 9.07986L21.2391 9.08027L21.7484 8.71807ZM21.7483 8.71793L21.2387 9.07968L21.2387 9.07972L21.7483 8.71793ZM21.747 8.71605L22.2567 8.3543L22.2557 8.35295L21.747 8.71605ZM21.7407 8.70721L22.2494 8.3441L22.2476 8.34162L21.7407 8.70721ZM21.7137 8.66983L22.2207 8.30425L22.2196 8.30281L21.7137 8.66983ZM21.6048 8.522L22.1056 8.14808L22.1056 8.14808L21.6048 8.522ZM21.185 7.97938L21.6735 7.58945L21.6735 7.58945L21.185 7.97938ZM19.6861 6.27028L19.2366 6.70462L19.2366 6.70462L19.6861 6.27028ZM15.3471 3.27168L15.5032 2.66649L15.3471 3.27168ZM11.3837 2.91707L11.4695 3.53614L11.3837 2.91707ZM7.84861 4.43581L7.47848 3.9322L7.47848 3.9322L7.84861 4.43581ZM5.48365 7.14031L4.92475 6.86058L4.92475 6.86058L5.48365 7.14031ZM4.53077 10.5897L3.9116 10.5046L3.70663 11.9954L4.90745 11.0884L4.53077 10.5897ZM6.15293 9.36454L5.77625 8.8658L5.77625 8.8658L6.15293 9.36454ZM7.0092 9.48333L6.51097 9.86068L6.51097 9.86069L7.0092 9.48333ZM6.89057 10.3384L6.51389 9.83971L6.51388 9.83971L6.89057 10.3384ZM4.24586 12.3359L4.62254 12.8347L4.62254 12.8346L4.24586 12.3359ZM3.81384 12.4561L3.87874 11.8345L3.81678 11.828L3.75477 11.8339L3.81384 12.4561ZM3.26985 12.2193L3.76592 11.8391L3.76592 11.8391L3.26985 12.2193ZM1.25485 9.59008L1.75092 9.2099L1.75092 9.2099L1.25485 9.59008ZM1.36862 8.7343L0.989109 8.23772L0.989106 8.23772L1.36862 8.7343ZM2.22555 8.84823L1.72948 9.22841L1.72948 9.22841L2.22555 8.84823ZM3.33778 10.2995L2.84171 10.6797L3.74615 11.8598L3.9565 10.3879L3.33778 10.2995ZM4.39113 6.59351L4.95004 6.87324L4.95004 6.87324L4.39113 6.59351ZM7.1251 3.45137L6.75497 2.94775L6.75497 2.94775L7.1251 3.45137ZM11.2159 1.70692L11.1301 1.08784L11.1301 1.08784L11.2159 1.70692ZM15.6522 2.08868L15.8083 1.4835L15.8083 1.4835L15.6522 2.08868ZM20.5646 5.42125L21.014 4.98691L21.014 4.98691L20.5646 5.42125ZM22.1398 7.21716L21.6514 7.60709L21.6514 7.6071L22.1398 7.21716ZM22.2344 7.33641L21.7436 7.72335L22.246 8.36062L22.7339 7.71216L22.2344 7.33641ZM22.3019 7.24672L21.8033 6.86983L21.8025 6.87097L22.3019 7.24672ZM23.7682 5.47892L24.23 5.9001L24.23 5.9001L23.7682 5.47892ZM28.3929 2.09652L28.5774 2.69369L28.5774 2.69369L28.3929 2.09652ZM33.1875 1.5404L33.2658 0.92032L33.2658 0.92032L33.1875 1.5404ZM37.5949 3.46243L37.2099 3.95473L37.2099 3.95473L37.5949 3.46243ZM40.1983 6.63905L39.6319 6.90342L39.6319 6.90342L40.1983 6.63905ZM41.199 10.6095L41.8196 10.5355L41.8196 10.5355L41.199 10.6095ZM39.4499 17.8675L40.0071 18.1508L40.0104 18.144L39.4499 17.8675ZM39.4498 17.8678L38.8926 17.5845L38.8898 17.5902L39.4498 17.8678ZM39.4494 17.8685L38.8895 17.5909L38.8889 17.592L39.4494 17.8685ZM38.8258 19.1536L38.2602 18.8879L38.2602 18.8879L38.8258 19.1536ZM35.4557 23.898L35.0313 24.3568L35.4868 24.7783L35.9115 24.3257L35.4557 23.898ZM35.4454 23.8885L34.9001 23.5832L34.6595 24.0129L35.021 24.3473L35.4454 23.8885ZM34.6104 23.1158L34.1859 23.5746L34.5463 23.908L34.9556 23.6368L34.6104 23.1158ZM34.5591 23.0684L34.1036 22.6405L33.6724 23.0995L34.1346 23.5271L34.5591 23.0684ZM37.7201 18.6341L37.1544 18.3683L37.1544 18.3683L37.7201 18.6341ZM38.3766 17.2756L37.8175 16.9961L37.8155 17.0003L38.3766 17.2756ZM38.3767 17.2754L38.9357 17.5549L38.9382 17.5499L38.3767 17.2754ZM38.3768 17.2751L37.8178 16.9956L37.8153 17.0006L38.3768 17.2751ZM38.3768 17.2751L38.9359 17.5546L38.9379 17.5504L38.3768 17.2751ZM39.9859 10.754L39.3653 10.828L39.3653 10.828L39.9859 10.754ZM39.0912 7.15582L38.5249 7.42019L38.5249 7.42019L39.0912 7.15582ZM32.9562 3.37257C34.1292 3.52068 35.2699 3.98834 36.4572 4.91704L37.2273 3.93245C35.8824 2.88049 34.5336 2.31182 33.1128 2.13242L32.9562 3.37257ZM28.9379 3.86102C30.4621 3.3903 31.7673 3.22245 32.9562 3.37257L33.1128 2.13242C31.6921 1.95303 30.2002 2.16293 28.569 2.66667L28.9379 3.86102ZM25.1326 6.72339C26.3006 5.44287 27.6911 4.24606 28.9379 3.86102L28.569 2.66667C26.9774 3.15821 25.3936 4.58229 24.2091 5.88104L25.1326 6.72339ZM23.7751 8.36031C24.1036 7.92573 24.5722 7.33782 25.1326 6.72339L24.2091 5.88104C23.6164 6.53082 23.1231 7.14991 22.7779 7.60655L23.7751 8.36031ZM23.3978 8.87513C23.4835 8.75399 23.6113 8.57699 23.7751 8.36031L22.7779 7.60655C22.6053 7.83487 22.4698 8.0226 22.3773 8.15327L23.3978 8.87513ZM23.3019 9.01252C23.3228 8.98214 23.355 8.93566 23.3978 8.87513L22.3773 8.15327C22.3311 8.21861 22.2957 8.26968 22.2718 8.30442L23.3019 9.01252ZM23.278 9.04749L23.3029 9.01108L22.2708 8.30586L22.2459 8.34227L23.278 9.04749ZM23.2739 9.05359L23.2797 9.045L22.2442 8.34477L22.2384 8.35337L23.2739 9.05359ZM23.2732 9.05462L23.2744 9.05281L22.2379 8.35415L22.2367 8.35596L23.2732 9.05462ZM23.2755 9.05115L23.2756 9.05103L22.2343 8.35955L22.2342 8.35967L23.2755 9.05115ZM23.2724 9.05573L23.2725 9.0556L22.2372 8.35522L22.2371 8.35535L23.2724 9.05573ZM23.2748 9.05225L23.2748 9.05223L22.2347 8.35885L22.2347 8.35888L23.2748 9.05225ZM22.7802 9.79086L23.2741 9.05333L22.2354 8.35779L21.7415 9.09533L22.7802 9.79086ZM21.2381 9.07893L21.7504 9.80381L22.7712 9.08238L22.2589 8.3575L21.2381 9.07893ZM21.2324 9.07067L21.2324 9.07069L22.2647 8.36574L22.2647 8.36572L21.2324 9.07067ZM21.2391 9.08027L21.2392 9.0804L22.2579 8.35599L22.2578 8.35586L21.2391 9.08027ZM21.2387 9.07972L21.2388 9.07986L22.2581 8.35627L22.258 8.35613L21.2387 9.07972ZM21.2373 9.0778L21.2387 9.07968L22.258 8.35618L22.2567 8.3543L21.2373 9.0778ZM21.232 9.07031L21.2383 9.07916L22.2557 8.35295L22.2494 8.3441L21.232 9.07031ZM21.2068 9.03542L21.2338 9.07279L22.2476 8.34162L22.2207 8.30425L21.2068 9.03542ZM21.104 8.89592C21.1503 8.95796 21.1852 9.00564 21.2079 9.03685L22.2196 8.30281C22.1938 8.26722 22.1555 8.21493 22.1056 8.14808L21.104 8.89592ZM20.6966 8.36931C20.8732 8.59062 21.0113 8.77178 21.104 8.89592L22.1056 8.14808C22.0058 8.01438 21.8595 7.82244 21.6735 7.58945L20.6966 8.36931ZM19.2366 6.70462C19.8377 7.32649 20.3422 7.92546 20.6966 8.36931L21.6735 7.58945C21.3015 7.12348 20.7707 6.49319 20.1355 5.83594L19.2366 6.70462ZM15.191 3.87687C16.502 4.21506 17.9839 5.40842 19.2366 6.70462L20.1355 5.83594C18.8658 4.52226 17.1765 3.09814 15.5032 2.66649L15.191 3.87687ZM11.4695 3.53614C12.5562 3.38548 13.7495 3.50505 15.191 3.87687L15.5032 2.66649C13.9685 2.27061 12.6012 2.11729 11.2979 2.29799L11.4695 3.53614ZM8.21874 4.93943C9.35149 4.10692 10.3981 3.68469 11.4695 3.53614L11.2979 2.29799C9.99441 2.47871 8.75585 2.9934 7.47848 3.9322L8.21874 4.93943ZM6.04256 7.42004C6.49309 6.51988 7.15662 5.72002 8.21874 4.93943L7.47848 3.9322C6.27527 4.81648 5.4736 5.76397 4.92475 6.86058L6.04256 7.42004ZM5.14995 10.6748C5.33327 9.34148 5.60111 8.30207 6.04256 7.42004L4.92475 6.86058C4.39763 7.91376 4.10425 9.10333 3.9116 10.5046L5.14995 10.6748ZM5.77625 8.8658L4.15409 10.091L4.90745 11.0884L6.52961 9.86327L5.77625 8.8658ZM7.50743 9.10598C7.09553 8.56214 6.32064 8.45464 5.77625 8.8658L6.52961 9.86327C6.52897 9.86375 6.52699 9.86489 6.52442 9.86554C6.52228 9.86608 6.52074 9.86604 6.51975 9.8659C6.51876 9.86577 6.51726 9.86538 6.51535 9.86428C6.51305 9.86296 6.51145 9.86132 6.51097 9.86068L7.50743 9.10598ZM7.26724 10.8372C7.81217 10.4256 7.91972 9.65034 7.50742 9.10598L6.51097 9.86069C6.51049 9.86005 6.50927 9.85796 6.50856 9.85515C6.50795 9.85277 6.50797 9.85093 6.50815 9.84961C6.50833 9.84828 6.50882 9.84651 6.51005 9.84438C6.5115 9.84187 6.51325 9.84019 6.51389 9.83971L7.26724 10.8372ZM4.62254 12.8346L7.26725 10.8372L6.51388 9.83971L3.86918 11.8372L4.62254 12.8346ZM3.74895 13.0778C4.04872 13.109 4.36257 13.031 4.62254 12.8347L3.86918 11.8372C3.86975 11.8367 3.8716 11.8357 3.87408 11.835C3.87619 11.8344 3.87775 11.8344 3.87874 11.8345L3.74895 13.0778ZM2.77377 12.5995C3.04332 12.9512 3.46478 13.1171 3.87291 13.0783L3.75477 11.8339C3.75652 11.8338 3.75806 11.834 3.75991 11.8348C3.76101 11.8352 3.7623 11.8359 3.76359 11.8369C3.76497 11.838 3.76575 11.8389 3.76592 11.8391L2.77377 12.5995ZM0.758775 9.97026L2.77377 12.5995L3.76592 11.8391L1.75092 9.2099L0.758775 9.97026ZM0.989106 8.23772C0.446536 8.65237 0.343386 9.42825 0.758775 9.97026L1.75092 9.2099C1.75141 9.21053 1.75264 9.21261 1.75337 9.21542C1.75398 9.2178 1.75398 9.21964 1.7538 9.22096C1.75363 9.22228 1.75315 9.22406 1.75194 9.22619C1.7505 9.22872 1.74876 9.2304 1.74813 9.23089L0.989106 8.23772ZM2.72162 8.46805C2.30664 7.92656 1.53115 7.82347 0.989109 8.23772L1.74812 9.23089C1.74749 9.23138 1.74552 9.23253 1.74295 9.23319C1.74081 9.23374 1.73927 9.23371 1.73828 9.23358C1.73729 9.23345 1.73579 9.23307 1.73388 9.23199C1.73157 9.23067 1.72996 9.22904 1.72948 9.22841L2.72162 8.46805ZM3.83385 9.91932L2.72162 8.46805L1.72948 9.22841L2.84171 10.6797L3.83385 9.91932ZM3.83223 6.31377C3.23936 7.49831 2.92178 8.79261 2.71907 10.2111L3.9565 10.3879C4.14918 9.03961 4.44044 7.89142 4.95004 6.87324L3.83223 6.31377ZM6.75497 2.94775C5.41393 3.93334 4.4772 5.0251 3.83222 6.31377L4.95004 6.87324C5.49666 5.78107 6.29521 4.83692 7.49523 3.95498L6.75497 2.94775ZM11.1301 1.08784C9.59972 1.30002 8.17361 1.90513 6.75497 2.94775L7.49523 3.95498C8.76933 3.01859 10.0035 2.50599 11.3018 2.326L11.1301 1.08784ZM15.8083 1.4835C14.1825 1.06409 12.6451 0.877784 11.1301 1.08784L11.3018 2.326C12.6002 2.14598 13.9635 2.29853 15.4961 2.69387L15.8083 1.4835ZM21.014 4.98691C19.727 3.65531 17.8352 2.00635 15.8083 1.4835L15.4961 2.69387C17.1612 3.12341 18.8459 4.54229 20.1151 5.85559L21.014 4.98691ZM22.6283 6.82723C22.239 6.33964 21.6826 5.67873 21.014 4.98691L20.1151 5.85559C20.7496 6.51204 21.2798 7.14162 21.6514 7.60709L22.6283 6.82723ZM22.7252 6.94947C22.6941 6.91002 22.6618 6.86925 22.6283 6.82723L21.6514 7.6071C21.6833 7.64709 21.714 7.68587 21.7436 7.72335L22.7252 6.94947ZM21.8025 6.87097L21.735 6.96067L22.7339 7.71216L22.8013 7.62246L21.8025 6.87097ZM23.3064 5.05774C22.6823 5.74207 22.1648 6.39163 21.8033 6.86984L22.8005 7.6236C23.1453 7.16746 23.6381 6.54908 24.23 5.9001L23.3064 5.05774ZM28.2085 1.49935C26.2803 2.09482 24.508 3.74034 23.3064 5.05774L24.23 5.9001C25.4142 4.60174 26.9935 3.18282 28.5774 2.69369L28.2085 1.49935ZM33.2658 0.92032C31.6185 0.712328 29.9442 0.963339 28.2085 1.49935L28.5774 2.69369C30.2061 2.1907 31.6938 1.98175 33.1092 2.16047L33.2658 0.92032ZM37.98 2.97013C36.4811 1.79776 34.929 1.13033 33.2658 0.92032L33.1092 2.16047C34.5245 2.33917 35.8685 2.90555 37.2099 3.95473L37.98 2.97013ZM40.7646 6.37469C40.1642 5.0884 39.2772 3.98475 37.98 2.97013L37.2099 3.95473C38.368 4.86057 39.1229 5.81305 39.6319 6.90342L40.7646 6.37469ZM41.8196 10.5355C41.6391 9.0203 41.3552 7.63997 40.7646 6.37469L39.6319 6.90342C40.1411 7.99407 40.4044 9.22338 40.5784 10.6834L41.8196 10.5355ZM40.0104 18.144C41.1527 15.8291 42.2 13.7274 41.8196 10.5355L40.5784 10.6834C40.9109 13.4737 40.0316 15.2763 38.8895 17.5909L40.0104 18.144ZM40.0069 18.1511L40.0071 18.1508L38.8928 17.5842L38.8927 17.5845L40.0069 18.1511ZM40.0094 18.1462L40.0097 18.1455L38.8898 17.5902L38.8895 17.5909L40.0094 18.1462ZM39.3915 19.4194C39.5978 18.9803 39.8052 18.5599 40.0099 18.1451L38.8889 17.592C38.685 18.0053 38.4723 18.4363 38.2602 18.8879L39.3915 19.4194ZM35.9115 24.3257C37.3319 22.8121 38.5738 21.1598 39.3915 19.4194L38.2602 18.8879C37.5163 20.471 36.3652 22.0155 35 23.4703L35.9115 24.3257ZM35.021 24.3473L35.0313 24.3568L35.8802 23.4393L35.8699 23.4298L35.021 24.3473ZM34.8945 23.6035C34.8945 23.6009 34.8949 23.5974 34.8959 23.5935C34.8969 23.5897 34.8984 23.5862 34.9001 23.5832L35.9908 24.1938C36.0889 24.0187 36.1445 23.8167 36.1445 23.6035H34.8945ZM34.9338 23.6436C34.913 23.6436 34.8945 23.6265 34.8945 23.6035H36.1445C36.1445 22.9345 35.6017 22.3936 34.9338 22.3936V23.6436ZM34.9556 23.6368C34.9526 23.6388 34.949 23.6406 34.9449 23.6418C34.9406 23.6432 34.9367 23.6436 34.9338 23.6436V22.3936C34.6878 22.3936 34.4571 22.4676 34.2651 22.5948L34.9556 23.6368ZM34.1346 23.5271L34.1859 23.5746L35.0348 22.6571L34.9836 22.6096L34.1346 23.5271ZM37.1544 18.3683C36.4723 19.82 35.3991 21.2614 34.1036 22.6405L35.0146 23.4963C36.3643 22.0596 37.5292 20.5102 38.2857 18.8999L37.1544 18.3683ZM37.8155 17.0003C37.6068 17.4255 37.3842 17.8793 37.1544 18.3683L38.2857 18.8999C38.5104 18.4218 38.7286 17.9771 38.9377 17.5509L37.8155 17.0003ZM37.8177 16.9959L37.8175 16.9961L38.9356 17.5551L38.9357 17.5549L37.8177 16.9959ZM37.8153 17.0006L37.8152 17.0009L38.9382 17.5499L38.9383 17.5496L37.8153 17.0006ZM37.8178 16.9956L37.8178 16.9956L38.9358 17.5546L38.9359 17.5546L37.8178 16.9956ZM39.3653 10.828C39.6521 13.2353 38.9459 14.6964 37.8157 16.9998L38.9379 17.5504C40.0661 15.2513 40.9413 13.4896 40.6065 10.6801L39.3653 10.828ZM38.5249 7.42019C38.9543 8.34004 39.1977 9.42168 39.3653 10.828L40.6065 10.6801C40.4324 9.2188 40.1685 7.98606 39.6576 6.89146L38.5249 7.42019ZM36.4572 4.91705C37.4794 5.71655 38.1053 6.52126 38.5249 7.42019L39.6576 6.89146C39.1465 5.79666 38.3886 4.84076 37.2273 3.93245L36.4572 4.91705Z" fill="black"/>
</svg>
