<svg width="214" height="100" viewBox="0 0 214 100" fill="none" xmlns="http://www.w3.org/2000/svg">
<path fill-rule="evenodd" clip-rule="evenodd" d="M40.7659 54.0848L41.8537 47.9203C42.057 46.9718 42.1925 46.0232 42.2603 45.0745C42.3957 44.0581 42.4635 43.2112 42.4635 42.5336C42.4635 42.4568 42.4636 42.3809 42.4637 42.3057C42.4657 40.5236 42.4673 39.1893 41.297 38.019C40.1451 36.7994 38.4511 36.1895 36.2151 36.1895C31.8786 36.1895 28.4229 37.7481 25.8481 40.8648C23.341 43.9818 20.8826 48.3269 19.7985 54.2218L19.67 54.9509C14.6466 55.1578 9.56304 55.3676 4.41857 55.5805L11.0577 17.9374H3.33325L4.95945 8.07865H12.6839L14.2084 0.0493164H29.3524L27.8278 8.07865H43.4799L41.8537 17.9374H26.1L25.8967 18.9538C25.4223 21.6641 24.9142 24.1372 24.3721 26.3733C23.8301 28.6093 23.3558 30.5065 22.9492 32.0649L23.7176 31.1502C26.0108 28.3175 28.6839 27.1632 31.6487 25.8829L31.69 25.8651C34.6713 24.5778 37.856 23.934 41.2439 23.934C44.5641 23.934 47.4438 24.5438 49.883 25.7634C52.3223 26.9831 54.2196 28.7787 55.5747 31.1502C56.9298 33.5218 57.6075 36.4693 57.6075 39.9926C57.6075 41.0768 57.5397 42.6014 57.4042 44.5663C57.2687 46.4636 57.0993 48.022 56.896 49.2416L56.1322 53.4576C51.0775 53.6634 45.9556 53.8724 40.7659 54.0848ZM108.846 51.3334L109.17 48.9066C109.534 45.4989 109.418 42.24 108.823 39.13C108.227 35.987 107.119 33.1912 105.498 30.7429C103.876 28.2946 101.743 26.3426 99.0956 24.8869C96.4488 23.4312 93.2561 22.6702 89.5176 22.604C85.5143 22.5048 81.8749 23.1996 78.5994 24.6884C75.3572 26.1441 72.5449 28.1789 70.1628 30.7926C67.7808 33.3731 65.8783 36.3508 64.4556 39.7255C63.033 43.1001 62.1232 46.6568 61.7261 50.3955L61.5276 52.4301C61.5075 52.7015 61.4908 52.9715 61.4776 53.2402C63.3903 53.1625 65.2933 53.0853 67.1866 53.0085C69.9441 52.8967 72.681 52.7859 75.3974 52.6761C86.9114 52.2107 98.0577 51.7633 108.846 51.3334ZM127.545 50.5917C122.918 50.7744 118.221 50.9605 113.453 51.15L122.127 1.06569H136.122L127.545 50.5917ZM153.817 49.562C149.206 49.7413 144.518 49.9244 139.753 50.1113L144.36 23.5965H158.305L153.817 49.562ZM195.66 47.9579C189.333 48.1966 182.836 48.4436 176.163 48.6992L165.948 23.5965H180.24L186.196 39.8248L197.61 23.5965H213.144L195.66 47.9579ZM76.6021 45.3482L95.8203 45.383L96.0684 44.1423C96.3331 42.3227 96.2503 40.6354 95.8203 39.0804C95.3902 37.4922 94.5796 36.2186 93.3885 35.2591C92.1975 34.2995 90.6093 33.7868 88.6242 33.7206C86.3414 33.6544 84.4225 34.1341 82.8675 35.1598C81.3124 36.1854 80.0386 37.5419 79.0462 39.2292C78.0536 40.9165 77.2927 42.7528 76.7633 44.7379C76.7079 44.9421 76.6542 45.1455 76.6021 45.3482Z" fill="#2E9DA6"/>
<path fill-rule="evenodd" clip-rule="evenodd" d="M3.48045 60.1582L0.52063 76.9401H15.6646L18.7787 59.2672C13.7668 59.5559 8.66792 59.8529 3.48045 60.1582ZM55.3172 57.2257C50.2895 57.4969 45.1618 57.778 39.932 58.0689L36.6018 76.9401H51.7457L55.3172 57.2257ZM74.1638 75.8484C77.1084 77.1718 80.417 77.8666 84.0894 77.9326C86.7031 77.9657 89.3333 77.635 91.9801 76.9401C94.6269 76.2784 97.0917 75.2362 99.3746 73.8136C101.691 72.3578 103.593 70.5051 105.082 68.2553L98.8287 60.712C97.0422 62.5647 95.024 64.0535 92.7742 65.1785C90.5575 66.2702 88.1257 66.7831 85.4789 66.7168C83.3945 66.6508 81.6577 66.1876 80.268 65.3273C78.9116 64.4672 77.8363 63.3422 77.0422 61.9527C76.2814 60.5631 75.7685 59.0081 75.5038 57.2877C75.4476 56.9149 75.401 56.5421 75.3642 56.1694C70.8236 56.4026 66.1944 56.6447 61.475 56.8958C61.6291 58.6977 61.9547 60.4329 62.4517 62.1015C63.3781 65.2116 64.8173 67.941 66.7693 70.2901C68.7544 72.6391 71.2193 74.4919 74.1638 75.8484ZM112.768 54.3599L108.857 76.9401H122.852L126.869 53.7472C122.285 53.939 117.586 54.1432 112.768 54.3599ZM139.077 53.2554L134.962 76.9401H148.956L153.138 52.7411C148.585 52.8976 143.899 53.069 139.077 53.2554ZM173.966 52.1052L156.153 76.9401H171.785L183.745 59.7691L190.446 76.9401H204.638L194.391 51.6716C187.948 51.7719 181.147 51.9163 173.966 52.1052Z" fill="#339A69"/>
<path d="M110.776 82.924L108.598 95.4604H105.653L107.823 82.924H110.776ZM114.599 88.1418L114.194 90.4665H108.615L109.02 88.1418H114.599ZM115.977 82.924L115.572 85.2574H109.51L109.924 82.924H115.977ZM126.068 88.8909L126.008 89.3989C125.893 90.2197 125.672 91.009 125.345 91.7667C125.023 92.5186 124.599 93.1874 124.071 93.7728C123.548 94.3583 122.928 94.8204 122.211 95.1591C121.493 95.492 120.687 95.6499 119.791 95.6327C118.93 95.6154 118.196 95.4317 117.587 95.0816C116.984 94.7315 116.502 94.2636 116.141 93.6781C115.785 93.0926 115.544 92.4354 115.417 91.7064C115.291 90.9774 115.274 90.2254 115.366 89.4505L115.426 88.9425C115.541 88.1274 115.762 87.3468 116.089 86.6005C116.416 85.8486 116.844 85.1799 117.372 84.5944C117.9 84.0089 118.523 83.5525 119.24 83.2253C119.958 82.8924 120.761 82.7346 121.651 82.7518C122.506 82.7633 123.235 82.9441 123.838 83.2942C124.441 83.6444 124.92 84.1122 125.276 84.6977C125.638 85.2774 125.882 85.9318 126.008 86.6608C126.14 87.3841 126.16 88.1274 126.068 88.8909ZM123.012 89.4505L123.08 88.9167C123.121 88.578 123.146 88.1963 123.158 87.7715C123.169 87.3468 123.132 86.9363 123.046 86.5403C122.96 86.1385 122.793 85.8055 122.547 85.5415C122.306 85.2774 121.95 85.1339 121.479 85.111C120.957 85.088 120.515 85.1942 120.153 85.4296C119.791 85.6592 119.493 85.9691 119.257 86.3595C119.028 86.7441 118.847 87.1631 118.715 87.6166C118.583 88.07 118.488 88.5063 118.431 88.9253L118.362 89.4591C118.322 89.7978 118.293 90.1824 118.276 90.6129C118.264 91.0377 118.299 91.451 118.379 91.8528C118.465 92.2546 118.632 92.5904 118.879 92.8602C119.125 93.1242 119.487 93.2648 119.964 93.2821C120.474 93.305 120.911 93.1988 121.272 92.9635C121.634 92.7224 121.932 92.4067 122.168 92.0164C122.409 91.626 122.595 91.2041 122.727 90.7507C122.865 90.2972 122.96 89.8638 123.012 89.4505ZM128.281 82.924L132.922 82.9326C133.686 82.9441 134.389 83.0818 135.032 83.3459C135.675 83.6099 136.18 84.0146 136.547 84.5599C136.915 85.0995 137.069 85.7912 137.012 86.635C136.96 87.3295 136.805 87.915 136.547 88.3915C136.289 88.8622 135.939 89.264 135.497 89.5969C135.055 89.9298 134.535 90.2254 133.938 90.4837L132.871 91.0348H128.703L129.099 88.7014L131.932 88.7187C132.311 88.7129 132.647 88.6383 132.939 88.4948C133.238 88.3513 133.482 88.1475 133.671 87.8835C133.861 87.6194 133.981 87.298 134.033 86.9191C134.079 86.6092 134.067 86.3336 133.999 86.0925C133.93 85.8457 133.798 85.6506 133.602 85.5071C133.407 85.3635 133.149 85.2832 132.828 85.266L130.83 85.2574L129.056 95.4604H126.112L128.281 82.924ZM132.836 95.4604L131.105 89.9155L134.093 89.8983L135.979 95.3141V95.4604H132.836ZM150.445 87.9007L150.04 90.2254H143.78L144.185 87.9007H150.445ZM146.045 82.924L143.867 95.4604H140.922L143.092 82.924H146.045ZM153.277 82.924L151.099 95.4604H148.163L150.333 82.924H153.277ZM161.38 93.1357L160.975 95.4604H154.475L154.879 93.1357H161.38ZM157.712 82.924L155.534 95.4604H152.589L154.759 82.924H157.712ZM161.449 87.9007L161.061 90.148H155.396L155.792 87.9007H161.449ZM163.171 82.924L162.766 85.2574H156.24L156.653 82.924H163.171ZM163.981 82.924L168.622 82.9326C169.385 82.9441 170.088 83.0818 170.731 83.3459C171.374 83.6099 171.879 84.0146 172.246 84.5599C172.614 85.0995 172.769 85.7912 172.711 86.635C172.66 87.3295 172.505 87.915 172.246 88.3915C171.988 88.8622 171.638 89.264 171.196 89.5969C170.754 89.9298 170.235 90.2254 169.638 90.4837L168.57 91.0348H164.403L164.799 88.7014L167.631 88.7187C168.01 88.7129 168.346 88.6383 168.639 88.4948C168.937 88.3513 169.181 88.1475 169.371 87.8835C169.56 87.6194 169.681 87.298 169.732 86.9191C169.778 86.6092 169.767 86.3336 169.698 86.0925C169.629 85.8457 169.497 85.6506 169.302 85.5071C169.107 85.3635 168.848 85.2832 168.527 85.266L166.529 85.2574L164.756 95.4604H161.811L163.981 82.924ZM168.535 95.4604L166.805 89.9155L169.793 89.8983L171.678 95.3141V95.4604H168.535ZM184.034 88.8909L183.974 89.3989C183.859 90.2197 183.638 91.009 183.311 91.7667C182.989 92.5186 182.565 93.1874 182.037 93.7728C181.514 94.3583 180.894 94.8204 180.177 95.1591C179.459 95.492 178.653 95.6499 177.757 95.6327C176.896 95.6154 176.162 95.4317 175.553 95.0816C174.95 94.7315 174.468 94.2636 174.107 93.6781C173.751 93.0926 173.51 92.4354 173.383 91.7064C173.257 90.9774 173.24 90.2254 173.332 89.4505L173.392 88.9425C173.507 88.1274 173.728 87.3468 174.055 86.6005C174.382 85.8486 174.81 85.1799 175.338 84.5944C175.866 84.0089 176.489 83.5525 177.206 83.2253C177.924 82.8924 178.727 82.7346 179.617 82.7518C180.472 82.7633 181.201 82.9441 181.804 83.2942C182.407 83.6444 182.886 84.1122 183.242 84.6977C183.604 85.2774 183.848 85.9318 183.974 86.6608C184.106 87.3841 184.126 88.1274 184.034 88.8909ZM180.978 89.4505L181.046 88.9167C181.087 88.578 181.112 88.1963 181.124 87.7715C181.135 87.3468 181.098 86.9363 181.012 86.5403C180.926 86.1385 180.759 85.8055 180.513 85.5415C180.271 85.2774 179.916 85.1339 179.445 85.111C178.923 85.088 178.481 85.1942 178.119 85.4296C177.757 85.6592 177.459 85.9691 177.223 86.3595C176.994 86.7441 176.813 87.1631 176.681 87.6166C176.549 88.07 176.454 88.5063 176.397 88.9253L176.328 89.4591C176.288 89.7978 176.259 90.1824 176.242 90.6129C176.23 91.0377 176.265 91.451 176.345 91.8528C176.431 92.2546 176.598 92.5904 176.845 92.8602C177.091 93.1242 177.453 93.2648 177.93 93.2821C178.44 93.305 178.877 93.1988 179.238 92.9635C179.6 92.7224 179.898 92.4067 180.134 92.0164C180.375 91.626 180.561 91.2041 180.693 90.7507C180.831 90.2972 180.926 89.8638 180.978 89.4505ZM192.869 93.1357L192.464 95.4604H185.963L186.368 93.1357H192.869ZM189.201 82.924L187.022 95.4604H184.078L186.247 82.924H189.201ZM192.937 87.9007L192.55 90.148H186.884L187.281 87.9007H192.937ZM194.659 82.924L194.255 85.2574H187.728L188.142 82.924H194.659ZM200.153 92.068C200.205 91.7982 200.185 91.5686 200.093 91.3792C200.007 91.1898 199.875 91.0291 199.697 90.897C199.525 90.765 199.327 90.6531 199.103 90.5612C198.885 90.4637 198.672 90.3747 198.466 90.2943C198.018 90.1164 197.576 89.9155 197.14 89.6916C196.703 89.462 196.307 89.1922 195.951 88.8823C195.595 88.5723 195.317 88.2107 195.116 87.7974C194.921 87.3841 194.838 86.899 194.866 86.3422C194.907 85.7051 195.087 85.1569 195.409 84.6977C195.73 84.2385 196.141 83.8654 196.64 83.5784C197.145 83.2856 197.688 83.0732 198.268 82.9412C198.853 82.8034 199.424 82.7403 199.981 82.7518C200.773 82.7633 201.479 82.924 202.099 83.234C202.725 83.5439 203.216 83.9888 203.571 84.5685C203.927 85.1426 204.099 85.8371 204.088 86.6522H201.169C201.181 86.3308 201.138 86.0524 201.04 85.817C200.948 85.5759 200.796 85.3894 200.584 85.2574C200.371 85.1196 200.096 85.0478 199.757 85.0421C199.476 85.0364 199.195 85.0823 198.913 85.1799C198.632 85.2717 198.388 85.4152 198.181 85.6104C197.975 85.8055 197.843 86.0581 197.785 86.3681C197.745 86.6034 197.782 86.8101 197.897 86.988C198.012 87.1602 198.17 87.3095 198.371 87.4357C198.572 87.5563 198.781 87.6596 198.999 87.7457C199.223 87.8318 199.418 87.9064 199.585 87.9696C200.056 88.1475 200.506 88.357 200.937 88.5981C201.373 88.8335 201.758 89.1119 202.09 89.4333C202.429 89.7548 202.687 90.1307 202.865 90.5612C203.049 90.986 203.124 91.4797 203.089 92.0422C203.043 92.6908 202.871 93.2448 202.573 93.704C202.274 94.1632 201.89 94.5363 201.419 94.8233C200.948 95.1103 200.432 95.3198 199.869 95.4518C199.306 95.5839 198.735 95.647 198.156 95.6413C197.507 95.6298 196.901 95.5322 196.339 95.3485C195.776 95.1591 195.286 94.8864 194.866 94.5305C194.447 94.1689 194.123 93.7269 193.894 93.2046C193.664 92.6765 193.555 92.0709 193.566 91.3878L196.52 91.3964C196.502 91.7179 196.523 92.002 196.58 92.2488C196.643 92.4899 196.746 92.6937 196.89 92.8602C197.039 93.0209 197.231 93.1443 197.467 93.2304C197.702 93.3108 197.986 93.3509 198.319 93.3509C198.6 93.3509 198.87 93.3079 199.129 93.2218C199.393 93.13 199.616 92.9893 199.8 92.7999C199.984 92.6105 200.101 92.3665 200.153 92.068Z" fill="#339A69"/>
</svg>
