<svg width="40" height="15" viewBox="0 0 40 15" fill="none" xmlns="http://www.w3.org/2000/svg">
<path fill-rule="evenodd" clip-rule="evenodd" d="M7.84958 10.1657L8.04966 9.0319C8.08704 8.85745 8.11196 8.683 8.12443 8.50852C8.14934 8.3216 8.16181 8.16584 8.16181 8.04122C8.16181 8.0271 8.16183 8.01314 8.16184 7.99932C8.16222 7.67157 8.1625 7.42617 7.94727 7.21094C7.73543 6.98664 7.42389 6.87448 7.01266 6.87448C6.21512 6.87448 5.57959 7.16111 5.10606 7.73432C4.64498 8.30756 4.19285 9.10667 3.99346 10.1908L3.96982 10.325C3.04597 10.363 2.11104 10.4016 1.16492 10.4408L2.38594 3.51771H0.965332L1.26441 1.70459H2.68501L2.96539 0.227908H5.75052L5.47014 1.70459H8.34873L8.04966 3.51771H5.15237L5.11499 3.70464C5.02775 4.2031 4.93429 4.65794 4.83461 5.06916C4.73493 5.48039 4.64769 5.82932 4.57292 6.11592L4.71424 5.94769C5.13598 5.42673 5.62758 5.21444 6.17285 4.97898L6.18044 4.9757C6.72874 4.73895 7.31444 4.62055 7.93751 4.62055C8.54812 4.62055 9.07773 4.7327 9.52634 4.95701C9.97495 5.18132 10.3239 5.51155 10.5731 5.94769C10.8223 6.38386 10.9469 6.92594 10.9469 7.57391C10.9469 7.7733 10.9345 8.05369 10.9096 8.41506C10.8846 8.76399 10.8535 9.05059 10.8161 9.2749L10.6756 10.0504C9.74599 10.0882 8.80402 10.1266 7.84958 10.1657ZM20.3703 9.65969L20.4298 9.21329C20.4968 8.58657 20.4755 7.98722 20.366 7.41527C20.2564 6.83723 20.0526 6.32306 19.7544 5.87279C19.4563 5.42253 19.0638 5.06353 18.5771 4.7958C18.0903 4.52808 17.5031 4.38813 16.8156 4.37595C16.0793 4.35771 15.41 4.48549 14.8076 4.7593C14.2113 5.02703 13.6941 5.40124 13.256 5.88193C12.8179 6.35652 12.468 6.90415 12.2064 7.52478C11.9448 8.14541 11.7774 8.79953 11.7044 9.48711L11.6679 9.8613C11.6642 9.91124 11.6611 9.96093 11.6587 10.0104C12.0105 9.99608 12.3604 9.98188 12.7086 9.96776C13.2158 9.9472 13.7191 9.92682 14.2187 9.90663C16.3362 9.82104 18.3862 9.73876 20.3703 9.65969ZM23.8092 9.52328C22.9582 9.55688 22.0944 9.5911 21.2176 9.62597L22.8127 0.414831H25.3866L23.8092 9.52328ZM28.641 9.3339C27.7929 9.36688 26.9307 9.40056 26.0544 9.43493L26.9017 4.55849H29.4663L28.641 9.3339ZM36.3361 9.0389C35.1727 9.08279 33.9778 9.12822 32.7507 9.17523L30.872 4.55849H33.5004L34.5957 7.54304L36.6949 4.55849H39.5518L36.3361 9.0389ZM14.4403 8.55886L17.9747 8.56526L18.0203 8.33709C18.069 8.00244 18.0538 7.69213 17.9747 7.40614C17.8956 7.11406 17.7465 6.87982 17.5275 6.70337C17.3084 6.52688 17.0163 6.4326 16.6513 6.42042C16.2314 6.40824 15.8785 6.49647 15.5925 6.6851C15.3065 6.87373 15.0723 7.12319 14.8898 7.43351C14.7072 7.74382 14.5673 8.08154 14.4699 8.44662C14.4597 8.48417 14.4498 8.52158 14.4403 8.55886Z" fill="#2E9DA6"/>
<path fill-rule="evenodd" clip-rule="evenodd" d="M0.992335 11.2825L0.447998 14.3688H3.23313L3.80585 11.1186C2.88411 11.1718 1.94636 11.2264 0.992335 11.2825ZM10.5257 10.7432C9.60102 10.7931 8.65799 10.8448 7.69617 10.8983L7.08371 14.3688H9.86884L10.5257 10.7432ZM13.9918 14.1681C14.5333 14.4115 15.1418 14.5392 15.8172 14.5514C16.2979 14.5575 16.7816 14.4966 17.2684 14.3688C17.7551 14.2472 18.2085 14.0555 18.6283 13.7939C19.0542 13.5261 19.4041 13.1854 19.6779 12.7716L18.5279 11.3843C18.1993 11.7251 17.8282 11.9989 17.4144 12.2058C17.0067 12.4065 16.5595 12.5009 16.0727 12.4887C15.6894 12.4765 15.37 12.3914 15.1144 12.2331C14.8649 12.0749 14.6672 11.8681 14.5211 11.6125C14.3812 11.357 14.2869 11.071 14.2382 10.7546C14.2279 10.686 14.2193 10.6175 14.2125 10.5489C13.3775 10.5918 12.5261 10.6363 11.6582 10.6825C11.6865 11.0139 11.7464 11.333 11.8378 11.6399C12.0082 12.2119 12.2728 12.7138 12.6318 13.1458C12.9969 13.5778 13.4502 13.9186 13.9918 14.1681ZM21.0915 10.2161L20.3723 14.3688H22.9461L23.6848 10.1035C22.8417 10.1387 21.9775 10.1763 21.0915 10.2161ZM25.93 10.013L25.1731 14.3688H27.7468L28.516 9.91843C27.6786 9.9472 26.8169 9.97873 25.93 10.013ZM32.3465 9.80147L29.0705 14.3688H31.9453L34.1449 11.2109L35.3772 14.3688H37.9875L36.1029 9.72174C34.9179 9.74018 33.667 9.76673 32.3465 9.80147Z" fill="#339A69"/>
</svg>
