<svg width="30" height="35" viewBox="0 0 30 35" fill="none" xmlns="http://www.w3.org/2000/svg">
<path d="M11.302 17.7814C11.4329 17.3534 11.8881 17.1164 12.3152 17.2431C12.3152 17.2431 12.3153 17.2431 12.3153 17.2431L13.4722 17.586L10.7484 12.9419L10.964 12.8154L10.7484 12.9419C10.4539 12.4399 9.71454 12.4399 9.42012 12.9419L9.20608 12.8164L9.42012 12.9419L7.65774 15.9467C7.65773 15.9467 7.65773 15.9467 7.65772 15.9467C7.43177 16.332 6.93483 16.461 6.54765 16.241L6.54759 16.241C6.15811 16.0196 6.02159 15.5258 6.24891 15.1382L6.24892 15.1382L8.0113 12.1334C8.93336 10.5613 11.2351 10.5613 12.1572 12.1334L11.9415 12.2598L12.1572 12.1334L14.9102 16.8273L15.3265 15.4097C15.3265 15.4097 15.3265 15.4097 15.3265 15.4096C15.4526 14.9802 15.9053 14.7383 16.3337 14.8602C16.7636 14.9825 17.0172 15.428 16.8906 15.8591C16.8906 15.8591 16.8906 15.8591 16.8906 15.8591L16.0009 18.889C16.0064 18.9815 15.9956 19.076 15.9672 19.1688L15.9672 19.1689C15.8364 19.5968 15.3811 19.8338 14.954 19.7072L14.954 19.7072L11.8477 18.7863C11.419 18.6593 11.1706 18.211 11.302 17.7814ZM11.302 17.7814C11.302 17.7814 11.302 17.7814 11.302 17.7814L11.5411 17.8545L11.302 17.7814ZM12.4669 26.215L13.538 25.285L13.538 25.285C13.8767 24.9908 13.91 24.4797 13.6102 24.1452C13.3126 23.8131 12.8002 23.782 12.4636 24.0741L12.4636 24.0741L10.0306 26.1864L10.0305 26.1865C9.85379 26.34 9.75985 26.5532 9.75375 26.7696C9.72755 26.8487 9.71341 26.9331 9.71341 27.0205C9.71341 27.0891 9.72212 27.1558 9.73857 27.2197C9.77142 27.3748 9.85078 27.5217 9.97485 27.6382L12.3218 29.8427L12.3218 29.8428C12.6467 30.1479 13.1601 30.1362 13.4705 29.8161C13.7829 29.4938 13.7705 28.9818 13.4434 28.6744L13.4434 28.6744L12.5402 27.8261H17.2101C19.0473 27.8261 20.2098 25.8629 19.2831 24.2829L17.7 21.5838L17.7 21.5838C17.4741 21.1987 16.9772 21.0695 16.5899 21.2896C16.2004 21.511 16.0639 22.0048 16.2912 22.3923C16.2912 22.3923 16.2913 22.3924 16.2913 22.3924L17.8742 25.0914L17.8742 25.0915C18.164 25.5855 17.8058 26.215 17.2101 26.215H12.4669ZM2.29424 25.0915L2.08062 24.9662L2.29424 25.0914L4.851 20.7321L5.1376 21.8382L5.1376 21.8382C5.24989 22.2715 5.69474 22.5274 6.12679 22.419L6.12688 22.419C6.56026 22.3101 6.82802 21.8731 6.71534 21.4382L6.47333 21.5009L6.71534 21.4382L5.91356 18.3438L5.91355 18.3438C5.86047 18.139 5.73213 17.9731 5.56701 17.8675C5.38413 17.7297 5.14331 17.6692 4.9014 17.7209L1.73126 18.3988L1.73119 18.3988C1.2944 18.4924 1.01092 18.9194 1.10772 19.3581L1.10772 19.3581C1.20422 19.7952 1.63967 20.0668 2.07544 19.9736C2.07546 19.9736 2.07549 19.9735 2.07551 19.9735L3.60471 19.6466L0.885428 24.2829C0.885428 24.2829 0.885426 24.2829 0.885425 24.2829C-0.0412637 25.8629 1.12113 27.8261 2.95837 27.8261H6.88969C7.33574 27.8261 7.70407 27.4691 7.70407 27.0205C7.70407 26.5718 7.33571 26.215 6.88969 26.215H2.95837C2.36265 26.215 2.00445 25.5855 2.29424 25.0915Z" fill="#686868" stroke="#686868" stroke-width="0.5"/>
<path fill-rule="evenodd" clip-rule="evenodd" d="M4.11296 6.67605H18.6114V8.42095C18.6114 9.95507 19.8748 11.1987 21.4333 11.1987H23.1099V31.1961C23.1099 31.8097 22.6046 32.3072 21.9812 32.3072H4.11296C3.48958 32.3072 2.98421 31.8097 2.98421 31.1961V29.5512V29.4178H2.96786C2.9072 29.1754 2.68485 28.9956 2.41984 28.9956C2.15483 28.9956 1.93248 29.1754 1.87182 29.4178H1.85547V29.5512V31.1961C1.85547 32.4234 2.86618 33.4183 4.11296 33.4183H21.9812C23.228 33.4183 24.2387 32.4234 24.2387 31.1961V11.1987V10.6432L23.6848 10.0876L19.7402 6.13103L19.1758 5.56494H18.6114H4.11296C2.86618 5.56494 1.85547 6.55986 1.85547 7.78716V16.3382C1.85528 16.3441 1.85547 16.35 1.85547 16.356C1.85547 16.6627 2.10815 16.9115 2.41984 16.9115C2.73154 16.9115 2.98421 16.6627 2.98421 16.356C2.98421 16.35 2.98412 16.3441 2.98393 16.3382L2.98421 7.78716C2.98421 7.17351 3.48958 6.67605 4.11296 6.67605ZM19.7402 7.71734L22.1033 10.0876H21.4333C20.4982 10.0876 19.7402 9.34143 19.7402 8.42095V7.71734Z" fill="black" stroke="black" stroke-width="1.5"/>
<path fill-rule="evenodd" clip-rule="evenodd" d="M9.03097 2.58358H23.5078V4.32849C23.5078 5.86261 24.7712 7.10627 26.3296 7.10627H28V27.1036C28 27.7036 27.5167 28.1926 26.9125 28.214V29.3255C28.1403 29.3037 29.1287 28.3173 29.1287 27.1036V7.10627V6.55071L28.5755 5.99516L24.6365 2.03927L24.0721 1.47247H23.5078H9.03097C7.95841 1.47247 7.06056 2.20877 6.83057 3.19589H8.02208C8.20774 2.83274 8.5898 2.58358 9.03097 2.58358ZM24.6365 3.62659L26.9949 5.99516H26.3296C25.3946 5.99516 24.6365 5.24896 24.6365 4.32849V3.62659Z" fill="black" stroke="black" stroke-width="1.5"/>
</svg>
