<svg width="40" height="35" viewBox="0 0 40 35" fill="none" xmlns="http://www.w3.org/2000/svg">
<path fill-rule="evenodd" clip-rule="evenodd" d="M36.0196 15.5907C35.6464 22.0285 30.1249 26.9448 23.6871 26.5716C17.2493 26.1984 12.3329 20.6769 12.7062 14.2391C13.0794 7.80123 18.6009 2.88489 25.0387 3.25813C31.4765 3.63136 36.3929 9.15283 36.0196 15.5907ZM37.3851 15.6698C36.9682 22.8618 30.7999 28.3541 23.6079 27.9371C20.4298 27.7528 17.5835 26.4455 15.4325 24.423L5.34245 33.4072C5.06036 33.6583 4.62807 33.6333 4.3769 33.3512C4.12573 33.0691 4.15079 32.6368 4.43288 32.3856L14.4856 23.4347C12.3496 20.9588 11.1365 17.6821 11.3407 14.1599C11.7576 6.96792 17.9259 1.47568 25.1179 1.89263C32.3098 2.30959 37.8021 8.47785 37.3851 15.6698Z" fill="black"/>
<path d="M23.6871 26.5716L23.6426 27.3387L23.6426 27.3387L23.6871 26.5716ZM36.0196 15.5907L36.7868 15.6351L36.7868 15.6351L36.0196 15.5907ZM12.7062 14.2391L11.939 14.1946L12.7062 14.2391ZM25.0387 3.25813L25.0832 2.491L25.0832 2.491L25.0387 3.25813ZM23.6079 27.9371L23.6524 27.17L23.6524 27.17L23.6079 27.9371ZM37.3851 15.6698L36.618 15.6254L36.618 15.6254L37.3851 15.6698ZM15.4325 24.423L15.9588 23.8632L15.4466 23.3815L14.9215 23.8491L15.4325 24.423ZM5.34245 33.4072L4.83145 32.8333L4.83145 32.8333L5.34245 33.4072ZM4.3769 33.3512L3.80301 33.8622L3.80301 33.8622L4.3769 33.3512ZM4.43288 32.3856L3.92188 31.8117L3.92188 31.8117L4.43288 32.3856ZM14.4856 23.4347L14.9966 24.0086L15.5615 23.5055L15.0674 22.9327L14.4856 23.4347ZM11.3407 14.1599L12.1078 14.2044L12.1078 14.2044L11.3407 14.1599ZM25.1179 1.89263L25.1623 1.1255L25.1623 1.1255L25.1179 1.89263ZM23.6426 27.3387C30.5041 27.7365 36.389 22.4967 36.7868 15.6351L35.2525 15.5462C34.9038 21.5604 29.7457 26.1531 23.7316 25.8045L23.6426 27.3387ZM11.939 14.1946C11.5412 21.0561 16.7811 26.9409 23.6426 27.3387L23.7316 25.8045C17.7174 25.4558 13.1246 20.2977 13.4733 14.2835L11.939 14.1946ZM25.0832 2.491C18.2217 2.0932 12.3368 7.33308 11.939 14.1946L13.4733 14.2835C13.822 8.26937 18.9801 3.67658 24.9942 4.02526L25.0832 2.491ZM36.7868 15.6351C37.1846 8.77363 31.9447 2.88879 25.0832 2.491L24.9942 4.02526C31.0084 4.37393 35.6012 9.53203 35.2525 15.5462L36.7868 15.6351ZM23.5635 28.7042C31.1791 29.1457 37.7107 23.33 38.1523 15.7143L36.618 15.6254C36.2256 22.3937 30.4207 27.5624 23.6524 27.17L23.5635 28.7042ZM14.9061 24.9828C17.1836 27.1242 20.1987 28.5092 23.5635 28.7042L23.6524 27.17C20.6608 26.9965 17.9835 25.7668 15.9588 23.8632L14.9061 24.9828ZM14.9215 23.8491L4.83145 32.8333L5.85344 33.9811L15.9435 24.9969L14.9215 23.8491ZM4.83145 32.8333C4.86632 32.8022 4.91975 32.8053 4.95079 32.8402L3.80301 33.8622C4.33639 34.4612 5.2544 34.5144 5.85344 33.9811L4.83145 32.8333ZM4.95079 32.8402C4.98183 32.8751 4.97874 32.9285 4.94387 32.9595L3.92188 31.8117C3.32284 32.3451 3.26962 33.2631 3.80301 33.8622L4.95079 32.8402ZM4.94387 32.9595L14.9966 24.0086L13.9746 22.8608L3.92188 31.8117L4.94387 32.9595ZM10.5735 14.1154C10.3573 17.8449 11.6426 21.3157 13.9038 23.9366L15.0674 22.9327C13.0565 20.602 11.9156 17.5194 12.1078 14.2044L10.5735 14.1154ZM25.1623 1.1255C17.5467 0.683985 11.0151 6.49977 10.5735 14.1154L12.1078 14.2044C12.5002 7.43607 18.3051 2.26737 25.0734 2.65976L25.1623 1.1255ZM38.1523 15.7143C38.5938 8.09865 32.778 1.56702 25.1623 1.1255L25.0734 2.65976C31.8417 3.05216 37.0104 8.85705 36.618 15.6254L38.1523 15.7143Z" fill="black"/>
</svg>
