<svg width="41" height="33" viewBox="0 0 41 33" fill="none" xmlns="http://www.w3.org/2000/svg">
<path fill-rule="evenodd" clip-rule="evenodd" d="M32.0346 1.75256C33.3315 1.91631 34.5762 2.43448 35.8424 3.42481C36.9341 4.27871 37.626 5.15902 38.0913 6.15589C38.5615 7.16311 38.8152 8.3203 38.986 9.75408C39.2968 12.3625 38.5061 13.9739 37.377 16.2751C37.168 16.701 36.9475 17.1504 36.7202 17.6342C36.0009 19.1651 34.8819 20.6605 33.5592 22.0685L34.4558 22.8981C35.8487 21.4139 37.0452 19.8154 37.8259 18.1537C38.0354 17.708 38.2456 17.282 38.4501 16.8675C39.5923 14.5528 40.5555 12.6006 40.1991 9.60953C40.0219 8.1219 39.7483 6.81708 39.1984 5.63912C38.6437 4.45078 37.8227 3.42272 36.5951 2.46249C35.1749 1.35171 33.7269 0.734809 32.1876 0.540458C30.6563 0.3471 29.0753 0.57708 27.3931 1.09658C25.6371 1.63888 23.9612 3.1711 22.7683 4.47898C22.1603 5.14563 21.6552 5.7796 21.302 6.24678L21.2345 6.33647C21.2042 6.29801 21.1727 6.25823 21.1399 6.21722C20.7595 5.74069 20.2162 5.09544 19.5647 4.42131C18.2866 3.09886 16.4984 1.56494 14.6524 1.08875C13.0731 0.681373 11.6228 0.511941 10.216 0.70698C8.80175 0.903067 7.47159 1.46192 6.12522 2.45143C4.85469 3.38519 3.98706 4.40315 3.39125 5.59357C2.84002 6.69493 2.5356 7.91617 2.33791 9.29956L1.22567 7.84829C1.02046 7.58052 0.636795 7.52951 0.36874 7.73437C0.100689 7.93922 0.0497513 8.32236 0.254971 8.59014L2.26997 11.2194C2.40301 11.393 2.61105 11.4755 2.81396 11.4562C2.96267 11.4717 3.11736 11.4331 3.24599 11.336L5.89069 9.3385C6.1599 9.13518 6.21302 8.75233 6.00932 8.48339C5.80563 8.21445 5.42227 8.16127 5.15305 8.3646L3.5309 9.58977C3.71888 8.22247 3.99949 7.10798 4.48378 6.14037C4.98347 5.14199 5.71607 4.26831 6.84873 3.43587C8.0538 2.55022 9.1964 2.08176 10.3838 1.91713C11.5788 1.75145 12.8591 1.88789 14.3472 2.27174C15.8394 2.65666 17.425 3.9654 18.6862 5.27034C19.3043 5.9099 19.822 6.52453 20.1851 6.97944C20.3665 7.20659 20.5087 7.39314 20.6049 7.52206C20.653 7.5865 20.6896 7.63649 20.7139 7.66989L20.7408 7.70727L20.7471 7.71611L20.7485 7.71799L20.7486 7.71813L20.7487 7.71826L20.7487 7.71828L21.261 8.44316L21.7549 7.70563L21.7549 7.7056L21.755 7.70547L21.7551 7.70535L21.7563 7.70354L21.7621 7.69494L21.787 7.65853C21.8094 7.62597 21.8432 7.5772 21.8877 7.51426C21.9768 7.38836 22.1084 7.20599 22.2766 6.98349C22.6135 6.53788 23.0945 5.93438 23.671 5.30228C24.8472 4.01264 26.3343 2.7022 27.7536 2.26391C29.3313 1.77668 30.7298 1.5878 32.0346 1.75256ZM5.17878 16.4024C5.36996 16.7902 5.56984 17.1982 5.77467 17.6342C7.46288 21.2273 11.3528 24.6244 14.9091 27.155C16.6737 28.4107 18.3308 29.4355 19.5468 30.1463C20.1545 30.5015 20.6512 30.7779 20.9951 30.965C21.0916 31.0174 21.176 31.0629 21.2474 31.101C21.3189 31.0629 21.4033 31.0174 21.4997 30.965C21.8436 30.7779 22.3404 30.5015 22.948 30.1463C24.164 29.4355 25.8211 28.4107 27.5858 27.155C27.6426 27.1146 27.6994 27.074 27.7563 27.0331L25.6529 26.7022C25.3196 26.6498 25.0921 26.3371 25.1446 26.0039C25.1972 25.6706 25.51 25.443 25.8433 25.4954L29.1194 26.0108C29.2935 26.0382 29.4387 26.1366 29.5302 26.2718C29.6986 26.3854 29.8066 26.5804 29.7995 26.7984L29.6915 30.1069C29.6805 30.4441 29.3982 30.7085 29.061 30.6975C28.7238 30.6866 28.4594 30.4043 28.4704 30.0671L28.5387 27.9754C28.4569 28.0343 28.3754 28.0926 28.2941 28.1504C26.4925 29.4324 24.8033 30.4769 23.5646 31.201C22.9449 31.5633 22.4372 31.8458 22.0835 32.0382C21.9067 32.1344 21.7683 32.2081 21.6736 32.258C21.6262 32.283 21.5898 32.302 21.565 32.3149L21.5365 32.3296L21.5289 32.3335L21.5268 32.3346L21.5262 32.3349C21.526 32.335 21.5259 32.3351 21.2474 31.7914L21.5259 32.3351L21.2474 32.4777L20.969 32.3351L21.2474 31.7914C20.969 32.3351 20.9688 32.335 20.9686 32.3349L20.968 32.3346L20.9659 32.3335L20.9584 32.3296L20.9299 32.3149C20.905 32.302 20.8686 32.283 20.8213 32.258C20.7266 32.2081 20.5882 32.1344 20.4113 32.0382C20.0576 31.8458 19.5499 31.5633 18.9302 31.201C17.6915 30.4769 16.0024 29.4324 14.2007 28.1504C10.6244 25.6056 6.50147 22.054 4.66891 18.1537C4.45147 17.6909 4.23203 17.2489 4.01846 16.8187L4.01832 16.8184L4.01823 16.8183L3.92889 16.6383L5.17878 16.4024Z" fill="black"/>
<ellipse rx="0.585728" ry="0.584905" transform="matrix(-1 0 0 1 33.9338 22.6036)" fill="black"/>
<path fill-rule="evenodd" clip-rule="evenodd" d="M5.15399 16.4102L3.95748 16.6367C3.90583 16.3362 4.12584 16.0445 4.45302 15.9826C4.78019 15.9206 5.09187 16.1116 5.15399 16.4102Z" fill="black"/>
</svg>
