<svg width="39" height="35" viewBox="0 0 39 35" fill="none" xmlns="http://www.w3.org/2000/svg">
<path fill-rule="evenodd" clip-rule="evenodd" d="M1.32204 33.5275C1.32204 33.5275 1.34746 33.1501 1.47115 32.5211C2.08782 29.3854 5.14695 19.9991 19.675 19.9773C34.2031 19.9555 37.2904 29.3326 37.9165 32.4664C38.0421 33.095 38.0686 33.4724 38.0686 33.4724L1.32204 33.5275ZM2.49863 32.5196L36.889 32.468C36.8359 32.2231 36.7675 31.9434 36.6798 31.6363C36.3417 30.4516 35.721 28.8741 34.5945 27.3008C32.3765 24.2032 28.0916 20.9708 19.6765 20.9835C11.2614 20.9961 6.98631 24.2414 4.77761 27.3456C3.65581 28.9222 3.03991 30.5016 2.70529 31.6873C2.61854 31.9947 2.55101 32.2745 2.49863 32.5196Z" fill="#686868" stroke="#686868" stroke-width="1.5"/>
<path fill-rule="evenodd" clip-rule="evenodd" d="M19.6698 16.8081C23.6192 16.8021 26.8159 13.5958 26.81 9.64643C26.8041 5.6971 23.5977 2.50033 19.6484 2.50625C15.699 2.51217 12.5023 5.71855 12.5082 9.66788C12.5141 13.6172 15.7205 16.814 19.6698 16.8081ZM19.6713 17.8143C24.1764 17.8075 27.823 14.15 27.8162 9.64492C27.8095 5.13987 24.1519 1.49328 19.6469 1.50003C15.1418 1.50679 11.4952 5.16434 11.502 9.66939C11.5087 14.1744 15.1663 17.821 19.6713 17.8143Z" fill="black" stroke="black" stroke-width="1.5"/>
</svg>
