<svg width="35" height="35" viewBox="0 0 35 35" fill="none" xmlns="http://www.w3.org/2000/svg">
<path fill-rule="evenodd" clip-rule="evenodd" d="M11.8519 27.7048C12.4096 27.7048 12.8618 28.1498 12.8618 28.6989C12.8618 29.2479 12.4096 29.6931 11.8519 29.6931H4.81702C1.86279 29.6931 0.0163898 26.5448 1.49351 24.0265L6.87339 14.8538L3.14354 15.6513C2.5985 15.768 2.06066 15.4275 1.94225 14.891C1.82384 14.3544 2.1697 13.8251 2.71474 13.7084L8.38755 12.4954C8.69519 12.4296 9.00055 12.5093 9.22947 12.6878C9.44178 12.8187 9.60532 13.027 9.6721 13.2847L11.1068 18.8218C11.2447 19.3539 10.9183 19.8951 10.3779 20.0309C9.8374 20.1665 9.28752 19.8452 9.14969 19.3133L8.36539 16.2864L3.24273 25.0206C2.54304 26.2136 3.41765 27.7048 4.81702 27.7048H11.8519Z" fill="#686868"/>
<path d="M1.49351 24.0265L1.70915 24.153L1.70915 24.153L1.49351 24.0265ZM6.87339 14.8538L7.08903 14.9803L7.37621 14.4907L6.82112 14.6094L6.87339 14.8538ZM3.14354 15.6513L3.09127 15.4069L3.09119 15.4069L3.14354 15.6513ZM1.94225 14.891L1.69812 14.9449L1.69813 14.9449L1.94225 14.891ZM2.71474 13.7084L2.66247 13.4639L2.6624 13.4639L2.71474 13.7084ZM8.38755 12.4954L8.43983 12.7398L8.43985 12.7398L8.38755 12.4954ZM9.22947 12.6878L9.07572 12.885L9.08659 12.8934L9.09832 12.9007L9.22947 12.6878ZM9.6721 13.2847L9.9141 13.222L9.9141 13.222L9.6721 13.2847ZM11.1068 18.8218L11.3488 18.7591L11.3488 18.7591L11.1068 18.8218ZM10.3779 20.0309L10.4387 20.2734L10.4388 20.2733L10.3779 20.0309ZM9.14969 19.3133L8.90768 19.376L8.90768 19.376L9.14969 19.3133ZM8.36539 16.2864L8.6074 16.2237L8.45571 15.6382L8.14974 16.1599L8.36539 16.2864ZM3.24273 25.0206L3.45838 25.1471L3.45838 25.1471L3.24273 25.0206ZM13.1118 28.6989C13.1118 28.008 12.544 27.4548 11.8519 27.4548V27.9548C12.2753 27.9548 12.6118 28.2916 12.6118 28.6989H13.1118ZM11.8519 29.9431C12.544 29.9431 13.1118 29.3896 13.1118 28.6989H12.6118C12.6118 29.1061 12.2753 29.4431 11.8519 29.4431V29.9431ZM4.81702 29.9431H11.8519V29.4431H4.81702V29.9431ZM1.27787 23.9C-0.300483 26.5909 1.67648 29.9431 4.81702 29.9431V29.4431C2.04909 29.4431 0.333262 26.4987 1.70915 24.153L1.27787 23.9ZM6.65774 14.7274L1.27786 23.9L1.70915 24.153L7.08903 14.9803L6.65774 14.7274ZM3.19581 15.8958L6.92566 15.0983L6.82112 14.6094L3.09127 15.4069L3.19581 15.8958ZM1.69813 14.9449C1.84687 15.6187 2.51964 16.0406 3.19588 15.8958L3.09119 15.4069C2.67736 15.4955 2.27446 15.2362 2.18638 14.8371L1.69813 14.9449ZM2.6624 13.4639C1.98515 13.609 1.54909 14.2695 1.69812 14.9449L2.18638 14.8372C2.0986 14.4393 2.35424 14.0413 2.76709 13.9529L2.6624 13.4639ZM8.33527 12.2509L2.66247 13.4639L2.76702 13.9529L8.43983 12.7398L8.33527 12.2509ZM9.38322 12.4907C9.09807 12.2683 8.71774 12.1691 8.33525 12.2509L8.43985 12.7398C8.67264 12.69 8.90302 12.7503 9.07572 12.885L9.38322 12.4907ZM9.9141 13.222C9.83032 12.8987 9.62502 12.6379 9.36063 12.475L9.09832 12.9007C9.25853 12.9994 9.38033 13.1554 9.43009 13.3474L9.9141 13.222ZM11.3488 18.7591L9.9141 13.222L9.43009 13.3474L10.8648 18.8845L11.3488 18.7591ZM10.4388 20.2733C11.1106 20.1045 11.5223 19.4287 11.3488 18.7591L10.8648 18.8845C10.967 19.279 10.726 19.6856 10.3169 19.7884L10.4388 20.2733ZM8.90768 19.376C9.08078 20.044 9.76822 20.4416 10.4387 20.2734L10.317 19.7884C9.90658 19.8914 9.49427 19.6464 9.39169 19.2506L8.90768 19.376ZM8.12338 16.3491L8.90768 19.376L9.3917 19.2506L8.6074 16.2237L8.12338 16.3491ZM3.45838 25.1471L8.58104 16.4129L8.14974 16.1599L3.02708 24.8942L3.45838 25.1471ZM4.81702 27.4548C3.60395 27.4548 2.85991 26.1675 3.45838 25.1471L3.02709 24.8942C2.22617 26.2597 3.23134 27.9548 4.81702 27.9548V27.4548ZM11.8519 27.4548H4.81702V27.9548H11.8519V27.4548Z" fill="#686868"/>
<path fill-rule="evenodd" clip-rule="evenodd" d="M27.6858 14.5938C27.7282 14.455 27.7385 14.3144 27.7205 14.1794L27.7247 14.1655L29.3366 8.6759C29.4915 8.14841 29.1827 7.59726 28.6468 7.44476C28.1111 7.29226 27.551 7.59627 27.3963 8.12376L26.3597 11.6535L20.9098 2.36133C19.4327 -0.157146 15.7399 -0.157146 14.2628 2.36133L11.1091 7.73823C10.8302 8.21382 10.9957 8.82184 11.4788 9.09642C11.9618 9.3708 12.5794 9.20796 12.8583 8.73236L16.012 3.3555C16.7117 2.1625 18.4609 2.1625 19.1606 3.3555L24.608 12.6431L21.4514 11.7074C20.9174 11.5489 20.354 11.8468 20.1932 12.3727C20.0324 12.8984 20.3349 13.4529 20.869 13.6112L26.4276 15.259C26.9617 15.4173 27.525 15.1195 27.6858 14.5938ZM29.0792 20.2665L31.9118 25.0964C32.6117 26.2893 31.7369 27.7805 30.3376 27.7805H20.6523L23.4732 25.3312C23.8915 24.9679 23.9317 24.3398 23.5627 23.9281C23.1937 23.5163 22.5556 23.4769 22.1373 23.84L17.7836 27.6199C17.5468 27.8257 17.4312 28.1162 17.4425 28.4043C17.3958 28.5188 17.3701 28.6436 17.3701 28.7747C17.3701 28.8625 17.3817 28.9476 17.4035 29.029C17.4425 29.2228 17.5405 29.4071 17.6968 29.5539L21.8965 33.4988C22.3001 33.8777 22.9394 33.863 23.3246 33.4658C23.7095 33.0687 23.6946 32.4394 23.291 32.0603L20.8513 29.7688H30.3376C33.2918 29.7688 35.1383 26.6206 33.6612 24.1022L30.8284 19.2724C30.5495 18.797 29.9318 18.6339 29.4489 18.9085C28.9657 19.1831 28.8003 19.7911 29.0792 20.2665Z" fill="black"/>
<path d="M27.7205 14.1794L27.4814 14.1065L27.4655 14.1585L27.4727 14.2124L27.7205 14.1794ZM27.6858 14.5938L27.9248 14.6669L27.9248 14.6668L27.6858 14.5938ZM27.7247 14.1655L27.9639 14.2384L27.9646 14.2359L27.7247 14.1655ZM29.3366 8.6759L29.0967 8.60545L29.0967 8.60547L29.3366 8.6759ZM28.6468 7.44476L28.5783 7.68521L28.5784 7.68522L28.6468 7.44476ZM27.3963 8.12376L27.6362 8.1942L27.6362 8.19412L27.3963 8.12376ZM26.3597 11.6535L26.1441 11.78L26.4367 12.2788L26.5996 11.724L26.3597 11.6535ZM20.9098 2.36133L21.1255 2.23485L21.1255 2.23485L20.9098 2.36133ZM14.2628 2.36133L14.4784 2.48781L14.4784 2.48781L14.2628 2.36133ZM11.1091 7.73823L10.8935 7.61175L10.8935 7.61177L11.1091 7.73823ZM11.4788 9.09642L11.3552 9.31376L11.3553 9.31379L11.4788 9.09642ZM12.8583 8.73236L12.6427 8.60588L12.6427 8.60591L12.8583 8.73236ZM16.012 3.3555L16.2277 3.48198L16.2277 3.48198L16.012 3.3555ZM19.1606 3.3555L18.945 3.48198L18.945 3.48198L19.1606 3.3555ZM24.608 12.6431L24.5369 12.8828L25.1439 13.0627L24.8236 12.5166L24.608 12.6431ZM21.4514 11.7074L21.3802 11.9471L21.3803 11.9471L21.4514 11.7074ZM20.1932 12.3727L20.4323 12.4458L20.4323 12.4458L20.1932 12.3727ZM20.869 13.6112L20.9401 13.3715L20.94 13.3715L20.869 13.6112ZM26.4276 15.259L26.3566 15.4987L26.3566 15.4987L26.4276 15.259ZM31.9118 25.0964L31.6962 25.2228L31.6962 25.2229L31.9118 25.0964ZM29.0792 20.2665L29.2949 20.14L29.2949 20.14L29.0792 20.2665ZM20.6523 27.7805L20.4884 27.5918L19.983 28.0305H20.6523V27.7805ZM23.4732 25.3312L23.6371 25.52L23.6371 25.52L23.4732 25.3312ZM22.1373 23.84L21.9734 23.6512L21.9734 23.6512L22.1373 23.84ZM17.7836 27.6199L17.6197 27.4311L17.6196 27.4312L17.7836 27.6199ZM17.4425 28.4043L17.674 28.4986L17.6944 28.4485L17.6923 28.3945L17.4425 28.4043ZM17.4035 29.029L17.6485 28.9796L17.647 28.9719L17.6449 28.9643L17.4035 29.029ZM17.6968 29.5539L17.8679 29.3716L17.8679 29.3716L17.6968 29.5539ZM21.8965 33.4988L21.7254 33.681L21.7254 33.681L21.8965 33.4988ZM23.3246 33.4658L23.504 33.6398L23.504 33.6398L23.3246 33.4658ZM23.291 32.0603L23.4622 31.8781L23.4622 31.878L23.291 32.0603ZM20.8513 29.7688V29.5188H20.22L20.6802 29.951L20.8513 29.7688ZM33.6612 24.1022L33.4456 24.2287L33.4456 24.2287L33.6612 24.1022ZM30.8284 19.2724L31.0441 19.1459L31.044 19.1458L30.8284 19.2724ZM29.4489 18.9085L29.5724 19.1258L29.5724 19.1258L29.4489 18.9085ZM27.4727 14.2124C27.486 14.3122 27.4785 14.4166 27.4467 14.5207L27.9248 14.6668C27.9779 14.4934 27.991 14.3166 27.9683 14.1464L27.4727 14.2124ZM27.4856 14.0926L27.4814 14.1065L27.9596 14.2523L27.9639 14.2384L27.4856 14.0926ZM29.0967 8.60547L27.4849 14.0951L27.9646 14.2359L29.5764 8.74633L29.0967 8.60547ZM28.5784 7.68522C28.9837 7.80058 29.2116 8.21429 29.0967 8.60545L29.5764 8.74635C29.7714 8.08253 29.3816 7.39395 28.7152 7.20431L28.5784 7.68522ZM27.6362 8.19412C27.7514 7.80137 28.1717 7.56944 28.5783 7.68521L28.7152 7.20432C28.0506 7.01509 27.3507 7.39117 27.1564 8.05339L27.6362 8.19412ZM26.5996 11.724L27.6362 8.1942L27.1564 8.05331L26.1199 11.5831L26.5996 11.724ZM20.6942 2.48781L26.1441 11.78L26.5754 11.527L21.1255 2.23485L20.6942 2.48781ZM14.4784 2.48781C15.859 0.134028 19.3137 0.134028 20.6942 2.48781L21.1255 2.23485C19.5518 -0.448319 15.6209 -0.448319 14.0471 2.23485L14.4784 2.48781ZM11.3248 7.86471L14.4784 2.48781L14.0471 2.23485L10.8935 7.61175L11.3248 7.86471ZM11.6023 8.87908C11.2388 8.67245 11.1173 8.21842 11.3248 7.8647L10.8935 7.61177C10.5431 8.20922 10.7526 8.97123 11.3552 9.31376L11.6023 8.87908ZM12.6427 8.60591C12.4339 8.96194 11.968 9.08681 11.6022 8.87904L11.3553 9.31379C11.9556 9.65478 12.725 9.45397 13.074 8.85882L12.6427 8.60591ZM15.7964 3.22902L12.6427 8.60588L13.074 8.85885L16.2277 3.48198L15.7964 3.22902ZM19.3763 3.22902C18.58 1.87133 16.5927 1.87133 15.7964 3.22902L16.2277 3.48198C16.8308 2.45368 18.3419 2.45368 18.945 3.48198L19.3763 3.22902ZM24.8236 12.5166L19.3762 3.22902L18.945 3.48198L24.3923 12.7696L24.8236 12.5166ZM21.3803 11.9471L24.5369 12.8828L24.679 12.4034L21.5224 11.4677L21.3803 11.9471ZM20.4323 12.4458C20.5521 12.054 20.975 11.8268 21.3802 11.9471L21.5225 11.4677C20.8598 11.2711 20.156 11.6396 19.9541 12.2996L20.4323 12.4458ZM20.94 13.3715C20.5362 13.2518 20.313 12.8357 20.4323 12.4458L19.9541 12.2995C19.7518 12.9611 20.1337 13.654 20.798 13.8509L20.94 13.3715ZM26.4987 15.0194L20.9401 13.3715L20.798 13.8509L26.3566 15.4987L26.4987 15.0194ZM27.4467 14.5206C27.3269 14.9122 26.9041 15.1395 26.4986 15.0193L26.3566 15.4987C27.0192 15.6951 27.723 15.3267 27.9248 14.6669L27.4467 14.5206ZM32.1275 24.9699L29.2949 20.14L28.8636 20.393L31.6962 25.2228L32.1275 24.9699ZM30.3376 28.0305C31.9232 28.0305 32.9286 26.3355 32.1275 24.9699L31.6962 25.2229C32.2948 26.2432 31.5507 27.5305 30.3376 27.5305V28.0305ZM20.6523 28.0305H30.3376V27.5305H20.6523V28.0305ZM23.3093 25.1424L20.4884 27.5918L20.8162 27.9693L23.6371 25.52L23.3093 25.1424ZM23.3765 24.0949C23.652 24.4023 23.6226 24.8703 23.3093 25.1424L23.6371 25.52C24.1604 25.0656 24.2115 24.2774 23.7489 23.7612L23.3765 24.0949ZM22.3012 24.0288C22.6167 23.7549 23.0989 23.7852 23.3765 24.0949L23.7489 23.7612C23.2884 23.2475 22.4945 23.1989 21.9734 23.6512L22.3012 24.0288ZM17.9475 27.8087L22.3012 24.0288L21.9734 23.6512L17.6197 27.4311L17.9475 27.8087ZM17.6923 28.3945C17.6839 28.1798 17.7697 27.9631 17.9476 27.8086L17.6196 27.4312C17.3238 27.6882 17.1785 28.0525 17.1927 28.414L17.6923 28.3945ZM17.6201 28.7747C17.6201 28.6767 17.6393 28.5838 17.674 28.4986L17.211 28.3099C17.1523 28.4538 17.1201 28.6106 17.1201 28.7747H17.6201ZM17.6449 28.9643C17.6287 28.9038 17.6201 28.8404 17.6201 28.7747H17.1201C17.1201 28.8847 17.1346 28.9915 17.162 29.0936L17.6449 28.9643ZM17.8679 29.3716C17.7504 29.2613 17.6776 29.1238 17.6485 28.9796L17.1584 29.0783C17.2074 29.3218 17.3306 29.553 17.5256 29.7361L17.8679 29.3716ZM22.0677 33.3166L17.8679 29.3716L17.5256 29.7361L21.7254 33.681L22.0677 33.3166ZM23.1451 33.2917C22.855 33.5909 22.3718 33.6022 22.0677 33.3165L21.7254 33.681C22.2284 34.1533 23.0237 34.1352 23.504 33.6398L23.1451 33.2917ZM23.1198 32.2425C23.4218 32.5262 23.4327 32.9951 23.1451 33.2917L23.504 33.6398C23.9864 33.1423 23.9673 32.3527 23.4622 31.8781L23.1198 32.2425ZM20.6802 29.951L23.1199 32.2425L23.4622 31.878L21.0225 29.5866L20.6802 29.951ZM30.3376 29.5188H20.8513V30.0188H30.3376V29.5188ZM33.4456 24.2287C34.8214 26.5745 33.1055 29.5188 30.3376 29.5188V30.0188C33.4781 30.0188 35.4552 26.6667 33.8769 23.9758L33.4456 24.2287ZM30.6128 19.3988L33.4456 24.2287L33.8769 23.9758L31.0441 19.1459L30.6128 19.3988ZM29.5724 19.1258C29.938 18.918 30.4039 19.0429 30.6128 19.3989L31.044 19.1458C30.695 18.551 29.9256 18.3499 29.3253 18.6912L29.5724 19.1258ZM29.2949 20.14C29.0874 19.7865 29.2088 19.3325 29.5724 19.1258L29.3253 18.6911C28.7227 19.0337 28.5132 19.7957 28.8636 20.393L29.2949 20.14Z" fill="black"/>
</svg>
