<svg width="42" height="35" viewBox="0 0 42 35" fill="none" xmlns="http://www.w3.org/2000/svg">
<path fill-rule="evenodd" clip-rule="evenodd" d="M6.97463 18.7043C6.76982 18.2683 6.56995 17.8604 6.37879 17.4726L6.35351 17.4774L6.35414 17.4803L5.15763 17.7069L5.157 17.7032L5.12891 17.7085L5.2182 17.8884L5.21829 17.8885L5.21843 17.8888C5.432 18.319 5.65144 18.761 5.86888 19.2238C7.70143 23.1241 11.8244 26.6757 15.4007 29.2205C17.2023 30.5025 18.8915 31.547 20.1302 32.2711C20.7499 32.6334 21.2576 32.9159 21.6113 33.1083C21.7882 33.2045 21.9266 33.2782 22.0212 33.3281L22.1028 33.3709L22.1298 33.385L22.1583 33.3997L22.1659 33.4036L22.168 33.4047L22.1686 33.405C22.1688 33.4051 22.1689 33.4052 22.4474 32.8615L22.1689 33.4052L22.4474 33.5478L22.7258 33.4052L22.4474 32.8615C22.7258 33.4052 22.726 33.4051 22.7262 33.405L22.7268 33.4047L22.7289 33.4036L22.7365 33.3997L22.7649 33.385C22.7898 33.3721 22.8262 33.353 22.8735 33.3281C22.9682 33.2782 23.1066 33.2045 23.2835 33.1083C23.6372 32.9159 24.1449 32.6334 24.7646 32.2711C26.0033 31.547 27.6925 30.5025 29.4941 29.2205C29.5754 29.1627 29.6569 29.1043 29.7388 29.0454L29.6705 31.1372C29.6595 31.4744 29.9239 31.7567 30.2611 31.7676C30.5983 31.7786 30.8806 31.5142 30.8916 31.177L30.9995 27.8685C31.0067 27.6504 30.8985 27.4553 30.73 27.3417C30.6384 27.2066 30.4933 27.1083 30.3193 27.081L27.0432 26.5656C26.7099 26.5131 26.3971 26.7408 26.3445 27.074C26.292 27.4073 26.5195 27.7199 26.8528 27.7723L28.9563 28.1033C28.8994 28.1441 28.8425 28.1847 28.7858 28.2251C27.0211 29.4808 25.364 30.5056 24.148 31.2164C23.5403 31.5716 23.0436 31.848 22.6997 32.0351C22.6032 32.0875 22.5188 32.1329 22.4474 32.1711C22.3759 32.1329 22.2915 32.0875 22.1951 32.0351C21.8512 31.848 21.3544 31.5716 20.7468 31.2164C19.5308 30.5056 17.8737 29.4808 16.109 28.2251C12.5527 25.6945 8.66285 22.2974 6.97463 18.7043Z" fill="#339A69"/>
<path d="M6.37879 17.4726L6.93938 17.1962L6.72945 16.7704L6.2629 16.8584L6.37879 17.4726ZM6.97463 18.7043L7.54031 18.4385L7.54031 18.4385L6.97463 18.7043ZM6.35351 17.4774L6.23762 16.8632L5.61015 16.9816L5.74198 17.6064L6.35351 17.4774ZM6.35414 17.4803L6.47043 18.0944L7.09742 17.9757L6.96568 17.3513L6.35414 17.4803ZM5.15763 17.7069L4.54129 17.8106L4.64711 18.4397L5.27392 18.321L5.15763 17.7069ZM5.157 17.7032L5.77334 17.5995L5.66758 16.9708L5.0411 17.089L5.157 17.7032ZM5.12891 17.7085L5.01301 17.0943L4.20229 17.2473L4.56906 17.9863L5.12891 17.7085ZM5.2182 17.8884L4.65835 18.1662L4.66242 18.1744L4.66673 18.1825L5.2182 17.8884ZM5.21829 17.8885L5.78174 17.6181L5.776 17.6061L5.76976 17.5944L5.21829 17.8885ZM5.21843 17.8888L4.65492 18.1593L4.65862 18.1668L5.21843 17.8888ZM5.86888 19.2238L5.30321 19.4896L5.30321 19.4896L5.86888 19.2238ZM15.4007 29.2205L15.7631 28.7113L15.7631 28.7113L15.4007 29.2205ZM20.1302 32.2711L19.8148 32.8107L19.8148 32.8107L20.1302 32.2711ZM21.6113 33.1083L21.9099 32.5592L21.9099 32.5592L21.6113 33.1083ZM22.0212 33.3281L21.7298 33.881L21.7309 33.8815L22.0212 33.3281ZM22.1028 33.3709L21.8124 33.9243L21.8142 33.9252L22.1028 33.3709ZM22.1298 33.385L21.8412 33.9393L21.8425 33.94L22.1298 33.385ZM22.1583 33.3997L21.8709 33.9547L21.8722 33.9554L22.1583 33.3997ZM22.1659 33.4036L21.8798 33.9593L21.8803 33.9596L22.1659 33.4036ZM22.168 33.4047L21.8824 33.9606L21.883 33.9609L22.168 33.4047ZM22.1686 33.405L21.8837 33.9613L21.8847 33.9618L22.1686 33.405ZM22.4474 32.8615L23.0037 32.5766L22.4474 31.4903L21.8911 32.5766L22.4474 32.8615ZM22.1689 33.4052L21.6126 33.1203L21.3278 33.6766L21.8841 33.9615L22.1689 33.4052ZM22.4474 33.5478L22.1625 34.1041L22.4474 34.25L22.7323 34.1041L22.4474 33.5478ZM22.7258 33.4052L23.0107 33.9615L23.567 33.6766L23.2821 33.1203L22.7258 33.4052ZM22.7262 33.405L23.0101 33.9618L23.0118 33.9609L22.7262 33.405ZM22.7268 33.4047L22.4412 32.8487L22.4411 32.8488L22.7268 33.4047ZM22.7289 33.4036L23.0144 33.9596L23.015 33.9593L22.7289 33.4036ZM22.7365 33.3997L23.0225 33.9554L23.0238 33.9547L22.7365 33.3997ZM22.7649 33.385L23.0523 33.94L23.0531 33.9396L22.7649 33.385ZM22.8735 33.3281L23.165 33.881L23.165 33.881L22.8735 33.3281ZM23.2835 33.1083L22.9848 32.5592L22.9848 32.5592L23.2835 33.1083ZM24.7646 32.2711L25.08 32.8107L25.08 32.8107L24.7646 32.2711ZM29.4941 29.2205L29.1317 28.7113L29.1317 28.7113L29.4941 29.2205ZM29.7388 29.0454L30.3634 29.0658L30.4049 27.7961L29.3737 28.5381L29.7388 29.0454ZM29.6705 31.1372L29.0458 31.1168L29.0458 31.1168L29.6705 31.1372ZM30.8916 31.177L31.5162 31.1974L31.5162 31.1974L30.8916 31.177ZM30.9995 27.8685L30.3749 27.8481L30.3749 27.8481L30.9995 27.8685ZM30.73 27.3417L30.2126 27.6923L30.2804 27.7924L30.3807 27.86L30.73 27.3417ZM30.3193 27.081L30.2222 27.6984L30.2222 27.6984L30.3193 27.081ZM27.0432 26.5656L27.1403 25.9481L27.1403 25.9481L27.0432 26.5656ZM26.3445 27.074L26.9619 27.1714L26.9619 27.1714L26.3445 27.074ZM26.8528 27.7723L26.9499 27.1549L26.9499 27.1549L26.8528 27.7723ZM28.9563 28.1033L29.3206 28.6111L30.5591 27.7227L29.0534 27.4859L28.9563 28.1033ZM28.7858 28.2251L29.1481 28.7343L29.1481 28.7343L28.7858 28.2251ZM24.148 31.2164L24.4634 31.756L24.4634 31.756L24.148 31.2164ZM22.6997 32.0351L22.401 31.486L22.401 31.486L22.6997 32.0351ZM22.4474 32.1711L22.1529 32.7224L22.4474 32.8797L22.7419 32.7224L22.4474 32.1711ZM22.1951 32.0351L21.8964 32.5841L21.8964 32.5841L22.1951 32.0351ZM20.7468 31.2164L20.4314 31.756L20.4314 31.756L20.7468 31.2164ZM16.109 28.2251L16.4714 27.7158L16.4714 27.7158L16.109 28.2251ZM5.81821 17.7489C6.00902 18.136 6.20675 18.5397 6.40896 18.97L7.54031 18.4385C7.33289 17.997 7.13089 17.5847 6.93938 17.1962L5.81821 17.7489ZM6.46941 18.0915L6.49469 18.0868L6.2629 16.8584L6.23762 16.8632L6.46941 18.0915ZM6.96568 17.3513L6.96505 17.3483L5.74198 17.6064L5.74261 17.6094L6.96568 17.3513ZM5.27392 18.321L6.47043 18.0944L6.23785 16.8663L5.04134 17.0928L5.27392 18.321ZM4.54066 17.8068L4.54129 17.8106L5.77397 17.6033L5.77334 17.5995L4.54066 17.8068ZM5.2448 18.3226L5.27289 18.3173L5.0411 17.089L5.01301 17.0943L5.2448 18.3226ZM5.77804 17.6105L5.68875 17.4306L4.56906 17.9863L4.65835 18.1662L5.77804 17.6105ZM5.76976 17.5944L5.76967 17.5942L4.66673 18.1825L4.66682 18.1827L5.76976 17.5944ZM5.78188 17.6184L5.78174 17.6181L4.65484 18.159L4.65497 18.1593L5.78188 17.6184ZM6.43456 18.958C6.2138 18.4882 5.9914 18.0403 5.77823 17.6109L4.65862 18.1668C4.87259 18.5977 5.08908 19.0338 5.30321 19.4896L6.43456 18.958ZM15.7631 28.7113C12.1971 26.1738 8.19329 22.7012 6.43455 18.958L5.30321 19.4896C7.20958 23.547 11.4517 27.1776 15.0383 29.7297L15.7631 28.7113ZM20.4456 31.7316C19.2185 31.0142 17.5458 29.9798 15.7631 28.7113L15.0383 29.7297C16.8588 31.0252 18.5645 32.0798 19.8148 32.8107L20.4456 31.7316ZM21.9099 32.5592C21.5613 32.3696 21.0592 32.0902 20.4456 31.7316L19.8148 32.8107C20.4406 33.1765 20.954 33.4622 21.3126 33.6573L21.9099 32.5592ZM22.3127 32.7752C22.2203 32.7265 22.0843 32.6541 21.9099 32.5592L21.3126 33.6573C21.492 33.7549 21.6328 33.8299 21.7298 33.881L22.3127 32.7752ZM22.3932 32.8174L22.3116 32.7746L21.7309 33.8815L21.8124 33.9243L22.3932 32.8174ZM22.4185 32.8306L22.3915 32.8165L21.8142 33.9252L21.8412 33.9393L22.4185 32.8306ZM22.4457 32.8447L22.4172 32.8299L21.8425 33.94L21.8709 33.9547L22.4457 32.8447ZM22.452 32.8479L22.4444 32.844L21.8722 33.9554L21.8798 33.9593L22.452 32.8479ZM22.4536 32.8487L22.4515 32.8477L21.8803 33.9596L21.8824 33.9606L22.4536 32.8487ZM22.4536 32.8487L22.4529 32.8484L21.883 33.9609L21.8837 33.9613L22.4536 32.8487ZM21.8911 32.5766C21.7518 32.8485 21.6823 32.9841 21.6476 33.0518C21.6301 33.0859 21.6219 33.1018 21.6182 33.1091C21.6156 33.1139 21.6168 33.1116 21.619 33.1075C21.6197 33.1062 21.6215 33.103 21.6238 33.0989C21.6253 33.0962 21.6311 33.0859 21.6391 33.073C21.6431 33.0666 21.6514 33.0536 21.6628 33.0379C21.6712 33.0264 21.6975 32.9903 21.7389 32.9512C21.771 32.9208 21.8883 32.8133 22.0815 32.7861C22.2991 32.7555 22.463 32.8535 22.4526 32.8482L21.8847 33.9618C21.8742 33.9565 22.0382 34.0545 22.2557 34.0239C22.4489 33.9967 22.5663 33.8892 22.5984 33.8588C22.6398 33.8196 22.6661 33.7836 22.6745 33.772C22.686 33.7562 22.6943 33.7433 22.6983 33.7368C22.7064 33.7238 22.7123 33.7133 22.714 33.7103C22.7165 33.7059 22.7184 33.7023 22.7194 33.7004C22.7228 33.6942 22.7262 33.6877 22.728 33.6841C22.7331 33.6744 22.7423 33.6563 22.7597 33.6225C22.7947 33.5543 22.8645 33.4182 23.0037 33.1464L21.8911 32.5766ZM22.7252 33.6901L23.0037 33.1464L21.8911 32.5766L21.6126 33.1203L22.7252 33.6901ZM22.7323 32.9915L22.4538 32.8489L21.8841 33.9615L22.1625 34.1041L22.7323 32.9915ZM22.4409 32.8489L22.1625 32.9915L22.7323 34.1041L23.0107 33.9615L22.4409 32.8489ZM21.8911 33.1464L22.1695 33.6901L23.2821 33.1203L23.0037 32.5766L21.8911 33.1464ZM22.4422 32.8482C22.4318 32.8535 22.5957 32.7555 22.8132 32.7861C23.0065 32.8133 23.1238 32.9208 23.1559 32.9512C23.1972 32.9903 23.2236 33.0264 23.232 33.0379C23.2434 33.0536 23.2516 33.0666 23.2556 33.073C23.2637 33.0859 23.2695 33.0962 23.271 33.0989C23.2733 33.103 23.275 33.1062 23.2758 33.1075C23.278 33.1116 23.2791 33.1139 23.2766 33.1091C23.2729 33.1018 23.2647 33.0859 23.2472 33.0518C23.2124 32.9841 23.1429 32.8485 23.0037 32.5766L21.8911 33.1464C22.0303 33.4182 22.1001 33.5543 22.1351 33.6225C22.1524 33.6563 22.1617 33.6744 22.1667 33.6841C22.1686 33.6877 22.172 33.6942 22.1753 33.7004C22.1763 33.7023 22.1783 33.7059 22.1808 33.7103C22.1824 33.7133 22.1883 33.7238 22.1965 33.7368C22.2005 33.7433 22.2088 33.7562 22.2202 33.772C22.2286 33.7836 22.255 33.8196 22.2964 33.8588C22.3285 33.8892 22.4458 33.9967 22.6391 34.0239C22.8566 34.0545 23.0205 33.9565 23.0101 33.9618L22.4422 32.8482ZM22.4411 32.8488L22.4405 32.8491L23.0118 33.9609L23.0124 33.9606L22.4411 32.8488ZM22.4433 32.8477L22.4412 32.8487L23.0124 33.9606L23.0144 33.9596L22.4433 32.8477ZM22.4504 32.844L22.4428 32.8479L23.015 33.9593L23.0225 33.9554L22.4504 32.844ZM22.4776 32.8299L22.4491 32.8447L23.0238 33.9547L23.0523 33.94L22.4776 32.8299ZM22.5821 32.7752C22.5359 32.7996 22.5006 32.818 22.4768 32.8303L23.0531 33.9396C23.079 33.9261 23.1165 33.9065 23.165 33.881L22.5821 32.7752ZM22.9848 32.5592C22.8105 32.6541 22.6745 32.7265 22.5821 32.7752L23.165 33.881C23.262 33.8299 23.4028 33.7549 23.5821 33.6573L22.9848 32.5592ZM24.4492 31.7316C23.8356 32.0902 23.3335 32.3696 22.9848 32.5592L23.5821 33.6573C23.9408 33.4622 24.4542 33.1765 25.08 32.8107L24.4492 31.7316ZM29.1317 28.7113C27.349 29.9798 25.6762 31.0142 24.4492 31.7316L25.08 32.8107C26.3303 32.0798 28.0359 31.0252 29.8564 29.7298L29.1317 28.7113ZM29.3737 28.5381C29.2928 28.5963 29.2121 28.6541 29.1317 28.7113L29.8564 29.7298C29.9386 29.6713 30.0211 29.6123 30.1038 29.5527L29.3737 28.5381ZM30.2952 31.1576L30.3634 29.0658L29.1141 29.025L29.0458 31.1168L30.2952 31.1576ZM30.2814 31.143C30.2822 31.143 30.2846 31.1434 30.2871 31.1445C30.2892 31.1455 30.2905 31.1466 30.2913 31.1475C30.2921 31.1483 30.2931 31.1497 30.294 31.1519C30.295 31.1545 30.2952 31.1568 30.2952 31.1576L29.0458 31.1168C29.0236 31.799 29.5586 32.3701 30.2408 32.3923L30.2814 31.143ZM30.2669 31.1566C30.2669 31.1558 30.2673 31.1535 30.2684 31.1509C30.2694 31.1488 30.2705 31.1476 30.2713 31.1468C30.2722 31.146 30.2735 31.145 30.2757 31.1441C30.2783 31.1432 30.2806 31.1429 30.2814 31.143L30.2408 32.3923C30.9229 32.4145 31.494 31.8795 31.5162 31.1974L30.2669 31.1566ZM30.3749 27.8481L30.2669 31.1566L31.5162 31.1974L31.6242 27.8889L30.3749 27.8481ZM30.3807 27.86C30.3791 27.8589 30.3779 27.8576 30.3768 27.8556C30.3762 27.8545 30.3757 27.853 30.3753 27.8514C30.3749 27.8496 30.3749 27.8484 30.3749 27.8481L31.6242 27.8889C31.6386 27.4469 31.4187 27.0521 31.0792 26.8234L30.3807 27.86ZM30.2222 27.6984C30.2213 27.6982 30.2189 27.6975 30.2165 27.6959C30.2145 27.6946 30.2133 27.6933 30.2126 27.6923L31.2474 26.991C31.0628 26.7186 30.7684 26.5189 30.4164 26.4635L30.2222 27.6984ZM26.9461 27.183L30.2222 27.6984L30.4164 26.4635L27.1403 25.9481L26.9461 27.183ZM26.9619 27.1714C26.9618 27.1722 26.9611 27.1744 26.9597 27.1768C26.9585 27.1787 26.9573 27.1798 26.9564 27.1805C26.9555 27.1811 26.9541 27.1819 26.9518 27.1825C26.9492 27.1832 26.9468 27.1831 26.9461 27.183L27.1403 25.9481C26.4662 25.8421 25.8335 26.3025 25.7272 26.9766L26.9619 27.1714ZM26.9499 27.1549C26.9507 27.1551 26.953 27.1557 26.9554 27.1572C26.9574 27.1585 26.9586 27.1597 26.9593 27.1607C26.96 27.1617 26.9609 27.1632 26.9614 27.1655C26.9621 27.1683 26.962 27.1706 26.9619 27.1714L25.7272 26.9766C25.6208 27.6509 26.0813 28.2837 26.7557 28.3898L26.9499 27.1549ZM29.0534 27.4859L26.9499 27.1549L26.7557 28.3898L28.8591 28.7207L29.0534 27.4859ZM29.1481 28.7343C29.2055 28.6935 29.263 28.6524 29.3206 28.6111L28.592 27.5954C28.5357 27.6358 28.4795 27.6759 28.4234 27.7158L29.1481 28.7343ZM24.4634 31.756C25.691 31.0384 27.3645 30.0035 29.1481 28.7343L28.4234 27.7158C26.6776 28.9581 25.037 29.9728 23.8326 30.6768L24.4634 31.756ZM22.9983 32.5841C23.3473 32.3943 23.8496 32.1148 24.4634 31.756L23.8326 30.6768C23.231 31.0285 22.74 31.3017 22.401 31.486L22.9983 32.5841ZM22.7419 32.7224C22.8147 32.6835 22.9005 32.6373 22.9983 32.5841L22.401 31.486C22.306 31.5377 22.223 31.5824 22.1529 31.6199L22.7419 32.7224ZM21.8964 32.5841C21.9943 32.6373 22.0801 32.6835 22.1529 32.7224L22.7419 31.6199C22.6718 31.5824 22.5888 31.5377 22.4938 31.486L21.8964 32.5841ZM20.4314 31.756C21.0452 32.1148 21.5475 32.3943 21.8964 32.5841L22.4938 31.486C22.1548 31.3017 21.6637 31.0285 21.0622 30.6768L20.4314 31.756ZM15.7467 28.7343C17.5302 30.0035 19.2037 31.0384 20.4314 31.756L21.0622 30.6768C19.8578 29.9728 18.2172 28.9581 16.4714 27.7158L15.7467 28.7343ZM6.40896 18.97C8.17103 22.7204 12.1802 26.1965 15.7467 28.7343L16.4714 27.7158C12.9252 25.1925 9.15466 21.8744 7.54031 18.4385L6.40896 18.97Z" fill="#339A69"/>
<path fill-rule="evenodd" clip-rule="evenodd" d="M36.842 4.42475C35.5759 3.43442 34.3312 2.91625 33.0343 2.7525C31.7294 2.58774 30.3309 2.77662 28.7532 3.26384C27.334 3.70214 25.8469 5.01258 24.6706 6.30222C24.0941 6.93432 23.6131 7.53782 23.2763 7.98343C23.1081 8.20593 22.9764 8.38829 22.8874 8.5142C22.8428 8.57714 22.809 8.62591 22.7866 8.65847L22.7617 8.69488L22.7559 8.70348L22.7547 8.70529L22.7546 8.70541L22.7545 8.70554L22.7545 8.70556L22.2606 9.4431L21.7483 8.71821L21.7483 8.71819L21.7482 8.71807L21.7481 8.71793L21.7468 8.71605L21.7405 8.70721L21.7135 8.66983C21.6893 8.63643 21.6527 8.58644 21.6046 8.522C21.5083 8.39308 21.3661 8.20653 21.1848 7.97938C20.8216 7.52447 20.3039 6.90984 19.6858 6.27028C18.4247 4.96534 16.839 3.6566 15.3468 3.27168C13.8588 2.88783 12.5785 2.75139 11.3835 2.91707C10.196 3.0817 9.05345 3.55016 7.84838 4.43581C6.71572 5.26825 5.98312 6.14193 5.48343 7.14031C4.99914 8.10792 4.71853 9.2224 4.53055 10.5897L6.15267 9.36455C6.42188 9.16123 6.80525 9.21441 7.00894 9.48335C7.21263 9.75229 7.15952 10.1351 6.8903 10.3385L4.2456 12.3359C4.11703 12.433 3.96243 12.4716 3.81379 12.4562C3.61089 12.4754 3.40288 12.3929 3.26985 12.2193L1.25485 9.59012C1.04963 9.32234 1.10056 8.9392 1.36862 8.73434C1.63667 8.52949 2.02033 8.58049 2.22555 8.84827L3.33759 10.2993C3.53529 8.91599 3.8397 7.69481 4.39091 6.59351C4.98671 5.40309 5.85434 4.38513 7.12487 3.45137C8.47124 2.46186 9.8014 1.90301 11.2157 1.70692C12.6224 1.51188 14.0728 1.68131 15.652 2.08868C17.498 2.56488 19.2862 4.0988 20.5643 5.42125C21.2158 6.09538 21.7592 6.74063 22.1396 7.21716C22.1723 7.25817 22.2039 7.29795 22.2342 7.33641L22.3017 7.24672C22.6548 6.77954 23.1599 6.14557 23.768 5.47892C24.9609 4.17104 26.6367 2.63882 28.3927 2.09652C30.0749 1.57702 31.6559 1.34704 33.1873 1.5404C34.7265 1.73475 36.1746 2.35165 37.5947 3.46243C38.8224 4.42266 39.6433 5.45072 40.198 6.63905C40.7479 7.81702 41.0215 9.12184 41.1988 10.6095C41.5552 13.6005 40.5919 15.5527 39.4497 17.8675C39.2452 18.2819 39.035 18.7079 38.8256 19.1536C38.0448 20.8154 36.8484 22.4138 35.4555 23.898L35.4453 23.8885C35.4925 23.8042 35.5194 23.707 35.5194 23.6035C35.5194 23.2805 35.2571 23.0186 34.9336 23.0186C34.8141 23.0186 34.7029 23.0544 34.6102 23.1158L34.5589 23.0684C35.8815 21.6604 37.0005 20.1651 37.7198 18.6341C37.9471 18.1504 38.1677 17.7009 38.3766 17.2751C39.5058 14.9738 40.2965 13.3624 39.9856 10.754C39.8148 9.32024 39.5612 8.16305 39.091 7.15583C38.6257 6.15896 37.9337 5.27865 36.842 4.42475Z" fill="black"/>
<path d="M33.0343 2.7525L32.956 3.37257L32.956 3.37257L33.0343 2.7525ZM36.842 4.42475L37.2271 3.93245L37.2271 3.93245L36.842 4.42475ZM28.7532 3.26384L28.5688 2.66667L28.5688 2.66667L28.7532 3.26384ZM24.6706 6.30222L24.2089 5.88104L24.2089 5.88104L24.6706 6.30222ZM23.2763 7.98343L23.7749 8.36031L23.7749 8.36031L23.2763 7.98343ZM22.8874 8.5142L23.3976 8.87513L23.3976 8.87513L22.8874 8.5142ZM22.7866 8.65847L22.2716 8.30442L22.2706 8.30586L22.7866 8.65847ZM22.7617 8.69488L22.2457 8.34227L22.244 8.34477L22.7617 8.69488ZM22.7559 8.70348L22.2382 8.35337L22.2377 8.35415L22.7559 8.70348ZM22.7547 8.70529L22.2364 8.35595L22.234 8.35955L22.7547 8.70529ZM22.7546 8.70541L23.2723 9.05562L23.2753 9.05115L22.7546 8.70541ZM22.7545 8.70554L22.2369 8.35534L22.2345 8.35885L22.7545 8.70554ZM22.7545 8.70556L23.2738 9.05333L23.2746 9.05225L22.7545 8.70556ZM22.2606 9.4431L21.7502 9.80381L22.2745 10.5456L22.7799 9.79086L22.2606 9.4431ZM21.7483 8.71821L21.2321 9.07074L21.2379 9.07893L21.7483 8.71821ZM21.7483 8.71819L22.2645 8.36566L22.2577 8.35599L21.7483 8.71819ZM21.7482 8.71807L21.2386 9.07986L21.2389 9.08027L21.7482 8.71807ZM21.7481 8.71793L21.2384 9.07968L21.2385 9.07972L21.7481 8.71793ZM21.7468 8.71605L22.2565 8.3543L22.2555 8.35295L21.7468 8.71605ZM21.7405 8.70721L22.2492 8.3441L22.2474 8.34162L21.7405 8.70721ZM21.7135 8.66983L22.2204 8.30425L22.2194 8.30281L21.7135 8.66983ZM21.6046 8.522L22.1054 8.14808L22.1054 8.14808L21.6046 8.522ZM21.1848 7.97938L21.6732 7.58945L21.6732 7.58945L21.1848 7.97938ZM19.6858 6.27028L19.2364 6.70462L19.2364 6.70462L19.6858 6.27028ZM15.3468 3.27168L15.1907 3.87687L15.1907 3.87687L15.3468 3.27168ZM11.3835 2.91707L11.2976 2.29799L11.2976 2.29799L11.3835 2.91707ZM7.84838 4.43581L8.21851 4.93943L8.21851 4.93943L7.84838 4.43581ZM5.48343 7.14031L4.92452 6.86058L4.92452 6.86058L5.48343 7.14031ZM4.53055 10.5897L3.91137 10.5046L3.7064 11.9954L4.90723 11.0884L4.53055 10.5897ZM6.15267 9.36455L5.77599 8.86582L5.77599 8.86582L6.15267 9.36455ZM7.00894 9.48335L6.51071 9.8607L6.51071 9.8607L7.00894 9.48335ZM6.8903 10.3385L6.51362 9.83973L6.51362 9.83973L6.8903 10.3385ZM4.2456 12.3359L3.86892 11.8372L3.86892 11.8372L4.2456 12.3359ZM3.81379 12.4562L3.87847 11.8345L3.81665 11.8281L3.75478 11.834L3.81379 12.4562ZM3.26985 12.2193L3.76592 11.8392L3.76592 11.8392L3.26985 12.2193ZM1.25485 9.59012L1.75092 9.20993L1.75092 9.20993L1.25485 9.59012ZM1.36862 8.73434L0.989109 8.23775L0.989106 8.23776L1.36862 8.73434ZM2.22555 8.84827L1.72948 9.22845L1.72948 9.22845L2.22555 8.84827ZM3.33759 10.2993L2.84152 10.6795L3.74594 11.8596L3.9563 10.3877L3.33759 10.2993ZM4.39091 6.59351L4.94981 6.87324L4.94981 6.87324L4.39091 6.59351ZM7.12487 3.45137L6.75474 2.94775L6.75474 2.94775L7.12487 3.45137ZM11.2157 1.70692L11.1299 1.08784L11.1299 1.08784L11.2157 1.70692ZM15.652 2.08868L15.8081 1.4835L15.8081 1.4835L15.652 2.08868ZM20.5643 5.42125L21.0137 4.98691L21.0137 4.98691L20.5643 5.42125ZM22.1396 7.21716L21.6511 7.60709L21.6511 7.6071L22.1396 7.21716ZM22.2342 7.33641L21.7434 7.72335L22.2458 8.36062L22.7336 7.71216L22.2342 7.33641ZM22.3017 7.24672L21.8031 6.86983L21.8022 6.87097L22.3017 7.24672ZM23.768 5.47892L24.2298 5.9001L24.2298 5.9001L23.768 5.47892ZM28.3927 2.09652L28.5771 2.69369L28.5771 2.69369L28.3927 2.09652ZM33.1873 1.5404L33.109 2.16047L33.109 2.16047L33.1873 1.5404ZM37.5947 3.46243L37.9798 2.97013L37.9798 2.97013L37.5947 3.46243ZM40.198 6.63905L40.7644 6.37469L40.7644 6.37469L40.198 6.63905ZM41.1988 10.6095L40.5782 10.6834L40.5782 10.6834L41.1988 10.6095ZM39.4497 17.8675L40.0102 18.144L40.0102 18.144L39.4497 17.8675ZM38.8256 19.1536L39.3913 19.4194L39.3913 19.4194L38.8256 19.1536ZM35.4555 23.898L35.031 24.3567L35.4865 24.7783L35.9113 24.3257L35.4555 23.898ZM35.4453 23.8885L34.8999 23.5833L34.6594 24.0128L35.0208 24.3472L35.4453 23.8885ZM34.6102 23.1158L34.1857 23.5746L34.5461 23.908L34.9554 23.6368L34.6102 23.1158ZM34.5589 23.0684L34.1034 22.6404L33.6722 23.0994L34.1344 23.5271L34.5589 23.0684ZM37.7198 18.6341L38.2855 18.8999L38.2855 18.8999L37.7198 18.6341ZM38.3766 17.2751L38.9377 17.5504L38.9377 17.5504L38.3766 17.2751ZM39.9856 10.754L39.365 10.828L39.365 10.828L39.9856 10.754ZM39.091 7.15583L39.6573 6.89146L39.6573 6.89146L39.091 7.15583ZM32.956 3.37257C34.129 3.52068 35.2696 3.98834 36.457 4.91705L37.2271 3.93245C35.8821 2.88049 34.5334 2.31182 33.1125 2.13242L32.956 3.37257ZM28.9376 3.86102C30.4619 3.3903 31.767 3.22245 32.956 3.37257L33.1125 2.13242C31.6918 1.95303 30.1999 2.16293 28.5688 2.66667L28.9376 3.86102ZM25.1324 6.72339C26.3003 5.44287 27.6908 4.24606 28.9376 3.86102L28.5688 2.66667C26.9771 3.15821 25.3934 4.58229 24.2089 5.88104L25.1324 6.72339ZM23.7749 8.36031C24.1034 7.92573 24.572 7.33782 25.1324 6.72339L24.2089 5.88104C23.6162 6.53082 23.1229 7.14991 22.7777 7.60655L23.7749 8.36031ZM23.3976 8.87513C23.4833 8.75399 23.6111 8.57699 23.7749 8.36031L22.7777 7.60655C22.6051 7.83487 22.4695 8.0226 22.3771 8.15327L23.3976 8.87513ZM23.3017 9.01252C23.3226 8.98214 23.3548 8.93566 23.3976 8.87513L22.3771 8.15327C22.3309 8.21861 22.2955 8.26968 22.2716 8.30442L23.3017 9.01252ZM23.2778 9.04749L23.3027 9.01108L22.2706 8.30586L22.2457 8.34227L23.2778 9.04749ZM23.2737 9.05359L23.2795 9.045L22.244 8.34477L22.2382 8.35337L23.2737 9.05359ZM23.273 9.05462L23.2742 9.05281L22.2377 8.35415L22.2364 8.35596L23.273 9.05462ZM23.2753 9.05115L23.2754 9.05103L22.234 8.35955L22.234 8.35967L23.2753 9.05115ZM23.2722 9.05573L23.2723 9.0556L22.237 8.35522L22.2369 8.35535L23.2722 9.05573ZM23.2746 9.05225L23.2746 9.05223L22.2345 8.35885L22.2345 8.35888L23.2746 9.05225ZM22.7799 9.79086L23.2738 9.05333L22.2352 8.35779L21.7413 9.09533L22.7799 9.79086ZM21.2379 9.07893L21.7502 9.80381L22.771 9.08238L22.2587 8.3575L21.2379 9.07893ZM21.2322 9.07067L21.2322 9.07069L22.2644 8.36574L22.2644 8.36572L21.2322 9.07067ZM21.2389 9.08027L21.239 9.0804L22.2577 8.35599L22.2576 8.35586L21.2389 9.08027ZM21.2385 9.07972L21.2386 9.07986L22.2579 8.35627L22.2578 8.35613L21.2385 9.07972ZM21.2371 9.0778L21.2384 9.07968L22.2578 8.35618L22.2565 8.3543L21.2371 9.0778ZM21.2318 9.07031L21.2381 9.07916L22.2555 8.35295L22.2492 8.3441L21.2318 9.07031ZM21.2066 9.03542L21.2336 9.07279L22.2474 8.34162L22.2204 8.30425L21.2066 9.03542ZM21.1038 8.89592C21.1501 8.95796 21.185 9.00564 21.2076 9.03685L22.2194 8.30281C22.1936 8.26722 22.1553 8.21493 22.1054 8.14808L21.1038 8.89592ZM20.6963 8.36931C20.873 8.59062 21.0111 8.77178 21.1038 8.89592L22.1054 8.14808C22.0056 8.01438 21.8592 7.82244 21.6732 7.58945L20.6963 8.36931ZM19.2364 6.70462C19.8374 7.32649 20.342 7.92546 20.6963 8.36931L21.6732 7.58945C21.3012 7.12348 20.7704 6.49319 20.1352 5.83594L19.2364 6.70462ZM15.1907 3.87687C16.5018 4.21506 17.9837 5.40842 19.2364 6.70462L20.1352 5.83594C18.8656 4.52226 17.1763 3.09814 15.503 2.66649L15.1907 3.87687ZM11.4693 3.53614C12.556 3.38548 13.7493 3.50505 15.1907 3.87687L15.503 2.66649C13.9683 2.27061 12.601 2.11729 11.2976 2.29799L11.4693 3.53614ZM8.21851 4.93943C9.35127 4.10692 10.3979 3.68469 11.4693 3.53614L11.2976 2.29799C9.99418 2.47871 8.75562 2.9934 7.47825 3.9322L8.21851 4.93943ZM6.04233 7.42004C6.49286 6.51988 7.1564 5.72002 8.21851 4.93943L7.47825 3.9322C6.27505 4.81648 5.47337 5.76397 4.92452 6.86058L6.04233 7.42004ZM5.14972 10.6748C5.33304 9.34148 5.60088 8.30207 6.04233 7.42004L4.92452 6.86058C4.39741 7.91376 4.10403 9.10332 3.91137 10.5046L5.14972 10.6748ZM5.77599 8.86582L4.15387 10.091L4.90723 11.0884L6.52935 9.86329L5.77599 8.86582ZM7.50716 9.106C7.09526 8.56215 6.32038 8.45466 5.77599 8.86582L6.52934 9.86329C6.52871 9.86377 6.52673 9.86491 6.52415 9.86556C6.52202 9.8661 6.52048 9.86606 6.51949 9.86592C6.51849 9.86579 6.517 9.8654 6.51509 9.8643C6.51279 9.86298 6.51119 9.86134 6.51071 9.8607L7.50716 9.106ZM7.26698 10.8372C7.81191 10.4256 7.91946 9.65035 7.50716 9.10599L6.51071 9.8607C6.51023 9.86007 6.509 9.85798 6.50829 9.85516C6.50769 9.85279 6.50771 9.85095 6.50789 9.84962C6.50807 9.8483 6.50856 9.84653 6.50979 9.8444C6.51124 9.84189 6.51298 9.84021 6.51362 9.83973L7.26698 10.8372ZM4.62228 12.8347L7.26698 10.8372L6.51362 9.83973L3.86892 11.8372L4.62228 12.8347ZM3.74912 13.0778C4.04876 13.109 4.36244 13.0309 4.62228 12.8347L3.86892 11.8372C3.86949 11.8368 3.87134 11.8357 3.87382 11.835C3.87592 11.8344 3.87748 11.8344 3.87847 11.8345L3.74912 13.0778ZM2.77377 12.5995C3.04329 12.9512 3.46472 13.1171 3.87281 13.0784L3.75478 11.834C3.75653 11.8338 3.75806 11.834 3.75991 11.8348C3.76101 11.8353 3.7623 11.836 3.76359 11.837C3.76497 11.838 3.76575 11.8389 3.76592 11.8392L2.77377 12.5995ZM0.758775 9.9703L2.77377 12.5995L3.76592 11.8392L1.75092 9.20993L0.758775 9.9703ZM0.989106 8.23776C0.446536 8.65241 0.343386 9.42829 0.758775 9.9703L1.75092 9.20993C1.75141 9.21057 1.75264 9.21265 1.75337 9.21546C1.75398 9.21783 1.75398 9.21968 1.7538 9.221C1.75363 9.22232 1.75315 9.2241 1.75194 9.22623C1.7505 9.22875 1.74876 9.23044 1.74813 9.23093L0.989106 8.23776ZM2.72162 8.46809C2.30664 7.9266 1.53115 7.82351 0.989109 8.23775L1.74812 9.23093C1.74749 9.23141 1.74552 9.23257 1.74295 9.23323C1.74081 9.23378 1.73927 9.23375 1.73828 9.23362C1.73729 9.23349 1.73579 9.23311 1.73388 9.23202C1.73157 9.23071 1.72996 9.22908 1.72948 9.22845L2.72162 8.46809ZM3.83366 9.9191L2.72162 8.46809L1.72948 9.22845L2.84152 10.6795L3.83366 9.9191ZM3.832 6.31377C3.23917 7.49825 2.92159 8.79248 2.71887 10.2109L3.9563 10.3877C4.14899 9.03949 4.44024 7.89136 4.94981 6.87324L3.832 6.31377ZM6.75474 2.94775C5.4137 3.93334 4.47698 5.0251 3.832 6.31377L4.94981 6.87324C5.49644 5.78107 6.29499 4.83692 7.495 3.95498L6.75474 2.94775ZM11.1299 1.08784C9.5995 1.30002 8.17338 1.90513 6.75474 2.94775L7.495 3.95498C8.7691 3.01859 10.0033 2.50599 11.3015 2.326L11.1299 1.08784ZM15.8081 1.4835C14.1822 1.06409 12.6449 0.877784 11.1299 1.08784L11.3015 2.326C12.5999 2.14598 13.9633 2.29853 15.4959 2.69387L15.8081 1.4835ZM21.0137 4.98691C19.7268 3.65531 17.835 2.00635 15.8081 1.4835L15.4959 2.69387C17.161 3.12341 18.8457 4.54229 20.1149 5.85559L21.0137 4.98691ZM22.628 6.82723C22.2388 6.33964 21.6824 5.67873 21.0137 4.98691L20.1149 5.85559C20.7493 6.51204 21.2795 7.14162 21.6511 7.60709L22.628 6.82723ZM22.725 6.94947C22.6939 6.91002 22.6616 6.86925 22.628 6.82723L21.6511 7.6071C21.6831 7.64709 21.7138 7.68587 21.7434 7.72335L22.725 6.94947ZM21.8022 6.87097L21.7347 6.96067L22.7336 7.71216L22.8011 7.62246L21.8022 6.87097ZM23.3062 5.05774C22.682 5.74207 22.1646 6.39163 21.8031 6.86984L22.8003 7.6236C23.1451 7.16746 23.6378 6.54908 24.2298 5.9001L23.3062 5.05774ZM28.2083 1.49935C26.2801 2.09482 24.5078 3.74034 23.3062 5.05774L24.2298 5.9001C25.414 4.60174 26.9933 3.18282 28.5771 2.69369L28.2083 1.49935ZM33.2656 0.92032C31.6183 0.712328 29.9439 0.963339 28.2083 1.49935L28.5771 2.69369C30.2059 2.1907 31.6935 1.98175 33.109 2.16047L33.2656 0.92032ZM37.9798 2.97013C36.4809 1.79776 34.9288 1.13033 33.2656 0.92032L33.109 2.16047C34.5243 2.33917 35.8683 2.90555 37.2097 3.95473L37.9798 2.97013ZM40.7644 6.37469C40.1639 5.0884 39.277 3.98475 37.9798 2.97013L37.2097 3.95473C38.3678 4.86057 39.1227 5.81305 39.6317 6.90342L40.7644 6.37469ZM41.8194 10.5355C41.6388 9.0203 41.355 7.63997 40.7644 6.37469L39.6317 6.90342C40.1408 7.99407 40.4042 9.22339 40.5782 10.6834L41.8194 10.5355ZM40.0102 18.144C41.1525 15.8291 42.1997 13.7274 41.8194 10.5355L40.5782 10.6834C40.9107 13.4737 40.0314 15.2763 38.8892 17.5909L40.0102 18.144ZM39.3913 19.4194C39.5977 18.98 39.8054 18.5592 40.0102 18.144L38.8892 17.5909C38.6851 18.0046 38.4723 18.4359 38.2599 18.8879L39.3913 19.4194ZM35.9113 24.3257C37.3317 22.812 38.5736 21.1598 39.3913 19.4194L38.2599 18.8879C37.5161 20.471 36.365 22.0155 34.9998 23.4703L35.9113 24.3257ZM35.0208 24.3472L35.031 24.3567L35.88 23.4393L35.8698 23.4298L35.0208 24.3472ZM34.8944 23.6035C34.8944 23.6009 34.8947 23.5974 34.8958 23.5935C34.8968 23.5897 34.8982 23.5863 34.8999 23.5833L35.9907 24.1938C36.0887 24.0186 36.1444 23.8167 36.1444 23.6035H34.8944ZM34.9336 23.6436C34.9128 23.6436 34.8944 23.6265 34.8944 23.6035H36.1444C36.1444 22.9345 35.6015 22.3936 34.9336 22.3936V23.6436ZM34.9554 23.6368C34.9524 23.6388 34.9488 23.6406 34.9447 23.6419C34.9404 23.6432 34.9365 23.6436 34.9336 23.6436V22.3936C34.6876 22.3936 34.4569 22.4676 34.265 22.5948L34.9554 23.6368ZM34.1344 23.5271L34.1857 23.5746L35.0347 22.6571L34.9834 22.6096L34.1344 23.5271ZM37.1542 18.3683C36.4721 19.82 35.3989 21.2613 34.1034 22.6404L35.0145 23.4963C36.3641 22.0595 37.5289 20.5102 38.2855 18.8999L37.1542 18.3683ZM37.8155 16.9998C37.6068 17.4251 37.384 17.8791 37.1542 18.3683L38.2855 18.8999C38.5102 18.4216 38.7285 17.9767 38.9377 17.5504L37.8155 16.9998ZM39.365 10.828C39.6519 13.2353 38.9457 14.6964 37.8155 16.9998L38.9377 17.5504C40.0658 15.2513 40.941 13.4896 40.6063 10.6801L39.365 10.828ZM38.5247 7.42019C38.954 8.34004 39.1975 9.42168 39.365 10.828L40.6063 10.6801C40.4321 9.2188 40.1683 7.98606 39.6573 6.89146L38.5247 7.42019ZM36.457 4.91704C37.4791 5.71655 38.105 6.52126 38.5247 7.42019L39.6573 6.89146C39.1463 5.79666 38.3884 4.84076 37.2271 3.93245L36.457 4.91704Z" fill="black"/>
</svg>
