<svg width="32" height="35" viewBox="0 0 32 35" fill="none" xmlns="http://www.w3.org/2000/svg">
<path fill-rule="evenodd" clip-rule="evenodd" d="M20.604 7.19328H7.03817C6.30087 7.19328 5.70317 7.79098 5.70317 8.52828V16.5391H5.46541C5.46826 16.5618 5.46974 16.5849 5.46974 16.6085C5.46974 16.9126 5.22314 17.1592 4.91895 17.1592C4.61476 17.1592 4.36816 16.9126 4.36816 16.6085C4.36816 16.5849 4.36964 16.5618 4.37249 16.5391H4.36816V8.52828C4.36816 7.05368 5.56357 5.85828 7.03817 5.85828H20.604H21.2715L21.939 6.53843L25.5574 10.2254L26.2125 10.8929V11.5604V30.8025C26.2125 32.2771 25.0171 33.4725 23.5425 33.4725H7.03817C5.56357 33.4725 4.36816 32.2771 4.36816 30.8025V29.5065H4.37482C4.37044 29.4785 4.36816 29.4498 4.36816 29.4206C4.36816 29.1164 4.61476 28.8698 4.91895 28.8698C5.22314 28.8698 5.46974 29.1164 5.46974 29.4206C5.46974 29.4498 5.46746 29.4785 5.46308 29.5065H5.70317V30.8025C5.70317 31.5398 6.30087 32.1375 7.03817 32.1375H23.5425C24.2798 32.1375 24.8775 31.5398 24.8775 30.8025V11.5604H23.9415C22.0983 11.5604 20.604 10.0662 20.604 8.22291V7.19328ZM21.9527 8.45834L23.6688 10.207C22.7687 10.0845 22.0587 9.36368 21.9527 8.45834Z" fill="black"/>
<path d="M20.604 7.19328H21.354V6.44328H20.604V7.19328ZM5.70317 16.5391V17.2891H6.45317V16.5391H5.70317ZM5.46541 16.5391V15.7891H4.61523L4.72126 16.6326L5.46541 16.5391ZM4.37249 16.5391L5.11664 16.6326L5.22267 15.7891H4.37249V16.5391ZM4.36816 16.5391H3.61816V17.2891H4.36816V16.5391ZM21.2715 5.85828L21.8068 5.33295L21.5863 5.10828H21.2715V5.85828ZM21.939 6.53843L21.4037 7.06376L21.939 6.53843ZM25.5574 10.2254L26.0927 9.70009L26.0927 9.70009L25.5574 10.2254ZM26.2125 10.8929H26.9625V10.5864L26.7478 10.3676L26.2125 10.8929ZM4.36816 29.5065V28.7565H3.61816V29.5065H4.36816ZM4.37482 29.5065V30.2565H5.25136L5.11579 29.3905L4.37482 29.5065ZM5.46308 29.5065L4.72211 29.3905L4.58654 30.2565H5.46308V29.5065ZM5.70317 29.5065H6.45317V28.7565H5.70317V29.5065ZM24.8775 11.5604H25.6275V10.8104H24.8775V11.5604ZM21.9527 8.45834L22.488 7.93302L20.9529 6.36879L21.2078 8.54558L21.9527 8.45834ZM23.6688 10.207L23.5677 10.9502L25.7391 11.2458L24.2041 9.68168L23.6688 10.207ZM7.03817 7.94328H20.604V6.44328H7.03817V7.94328ZM6.45317 8.52828C6.45317 8.20519 6.71508 7.94328 7.03817 7.94328V6.44328C5.88665 6.44328 4.95317 7.37677 4.95317 8.52828H6.45317ZM6.45317 16.5391V8.52828H4.95317V16.5391H6.45317ZM5.46541 17.2891H5.70317V15.7891H5.46541V17.2891ZM6.21974 16.6085C6.21974 16.5536 6.2163 16.4992 6.20955 16.4455L4.72126 16.6326C4.72023 16.6244 4.71974 16.6163 4.71974 16.6085H6.21974ZM4.91895 17.9092C5.63736 17.9092 6.21974 17.3269 6.21974 16.6085H4.71974C4.71974 16.4984 4.80893 16.4092 4.91895 16.4092V17.9092ZM3.61816 16.6085C3.61816 17.3269 4.20055 17.9092 4.91895 17.9092V16.4092C5.02897 16.4092 5.11816 16.4984 5.11816 16.6085H3.61816ZM3.62835 16.4455C3.6216 16.4992 3.61816 16.5536 3.61816 16.6085H5.11816C5.11816 16.6163 5.11767 16.6244 5.11664 16.6326L3.62835 16.4455ZM4.36816 17.2891H4.37249V15.7891H4.36816V17.2891ZM3.61816 8.52828V16.5391H5.11816V8.52828H3.61816ZM7.03817 5.10828C5.14935 5.10828 3.61816 6.63947 3.61816 8.52828H5.11816C5.11816 7.46789 5.97778 6.60828 7.03817 6.60828V5.10828ZM20.604 5.10828H7.03817V6.60828H20.604V5.10828ZM21.2715 5.10828H20.604V6.60828H21.2715V5.10828ZM22.4743 6.0131L21.8068 5.33295L20.7362 6.3836L21.4037 7.06376L22.4743 6.0131ZM26.0927 9.70009L22.4743 6.0131L21.4037 7.06376L25.0221 10.7507L26.0927 9.70009ZM26.7478 10.3676L26.0927 9.70009L25.0221 10.7507L25.6772 11.4182L26.7478 10.3676ZM26.9625 11.5604V10.8929H25.4625V11.5604H26.9625ZM26.9625 30.8025V11.5604H25.4625V30.8025H26.9625ZM23.5425 34.2225C25.4313 34.2225 26.9625 32.6913 26.9625 30.8025H25.4625C25.4625 31.8629 24.6029 32.7225 23.5425 32.7225V34.2225ZM7.03817 34.2225H23.5425V32.7225H7.03817V34.2225ZM3.61816 30.8025C3.61816 32.6914 5.14936 34.2225 7.03817 34.2225V32.7225C5.97778 32.7225 5.11816 31.8629 5.11816 30.8025H3.61816ZM3.61816 29.5065V30.8025H5.11816V29.5065H3.61816ZM4.37482 28.7565H4.36816V30.2565H4.37482V28.7565ZM3.61816 29.4206C3.61816 29.4888 3.62348 29.5562 3.63384 29.6224L5.11579 29.3905C5.1174 29.4007 5.11816 29.4108 5.11816 29.4206H3.61816ZM4.91895 28.1198C4.20055 28.1198 3.61816 28.7022 3.61816 29.4206H5.11816C5.11816 29.5306 5.02897 29.6198 4.91895 29.6198V28.1198ZM6.21974 29.4206C6.21974 28.7022 5.63736 28.1198 4.91895 28.1198V29.6198C4.80893 29.6198 4.71974 29.5306 4.71974 29.4206H6.21974ZM6.20406 29.6224C6.21442 29.5562 6.21974 29.4888 6.21974 29.4206H4.71974C4.71974 29.4108 4.7205 29.4007 4.72211 29.3905L6.20406 29.6224ZM5.70317 28.7565H5.46308V30.2565H5.70317V28.7565ZM6.45317 30.8025V29.5065H4.95317V30.8025H6.45317ZM7.03817 31.3875C6.71508 31.3875 6.45317 31.1256 6.45317 30.8025H4.95317C4.95317 31.954 5.88666 32.8875 7.03817 32.8875V31.3875ZM23.5425 31.3875H7.03817V32.8875H23.5425V31.3875ZM24.1275 30.8025C24.1275 31.1256 23.8656 31.3875 23.5425 31.3875V32.8875C24.694 32.8875 25.6275 31.954 25.6275 30.8025H24.1275ZM24.1275 11.5604V30.8025H25.6275V11.5604H24.1275ZM23.9415 12.3104H24.8775V10.8104H23.9415V12.3104ZM19.854 8.22291C19.854 10.4804 21.684 12.3104 23.9415 12.3104V10.8104C22.5125 10.8104 21.354 9.65195 21.354 8.22291H19.854ZM19.854 7.19328V8.22291H21.354V7.19328H19.854ZM21.4174 8.98367L23.1336 10.7323L24.2041 9.68168L22.488 7.93302L21.4174 8.98367ZM23.77 9.46387C23.2083 9.38739 22.7638 8.93591 22.6976 8.37111L21.2078 8.54558C21.3537 9.79145 22.329 10.7815 23.5677 10.9502L23.77 9.46387Z" fill="black"/>
<path fill-rule="evenodd" clip-rule="evenodd" d="M11.6636 2.80748H25.2083V3.83711C25.2083 5.68036 26.7025 7.17462 28.5458 7.17462H29.4756V26.4167C29.4756 26.9746 29.1333 27.4526 28.6474 27.6522V29.0387C29.8796 28.8019 30.8106 27.718 30.8106 26.4167V7.17462V6.50712L30.1563 5.83962L26.5433 2.15348L25.8758 1.47247H25.2083H11.6636C10.5279 1.47247 9.5578 2.18153 9.17188 3.18109H10.7373C10.9774 2.94975 11.3038 2.80748 11.6636 2.80748ZM26.5572 4.07491L28.2683 5.82054C27.3711 5.69617 26.664 4.97751 26.5572 4.07491Z" fill="black"/>
<path d="M25.2083 2.80748H25.9583C25.9583 2.39326 25.6225 2.05748 25.2083 2.05748V2.80748ZM29.4756 7.17462H30.2256C30.2256 6.76041 29.8898 6.42462 29.4756 6.42462V7.17462ZM28.6474 27.6522L28.3625 26.9584C28.0811 27.0739 27.8974 27.348 27.8974 27.6522H28.6474ZM28.6474 29.0387H27.8974C27.8974 29.2624 27.9972 29.4744 28.1697 29.6169C28.3421 29.7594 28.5692 29.8174 28.7889 29.7752L28.6474 29.0387ZM30.8106 6.50712H31.5606C31.5606 6.31081 31.4836 6.12232 31.3462 5.98213L30.8106 6.50712ZM30.1563 5.83962L29.6207 6.36461L29.6207 6.36461L30.1563 5.83962ZM26.5433 2.15348L27.0789 1.62849L27.0789 1.62849L26.5433 2.15348ZM25.8758 1.47247L26.4114 0.947481C26.2703 0.803567 26.0773 0.722473 25.8758 0.722473V1.47247ZM9.17188 3.18109L8.47221 2.91096C8.38315 3.14163 8.41351 3.40138 8.55337 3.6053C8.69322 3.80921 8.92461 3.93109 9.17188 3.93109V3.18109ZM10.7373 3.18109V3.93109C10.9314 3.93109 11.118 3.85583 11.2577 3.72113L10.7373 3.18109ZM26.5572 4.07491L27.0929 3.54992C26.8682 3.32076 26.5227 3.25988 26.2333 3.39846C25.9439 3.53704 25.7747 3.84438 25.8124 4.16303L26.5572 4.07491ZM28.2683 5.82054L28.1653 6.56344C28.4831 6.6075 28.7937 6.44449 28.9381 6.15792C29.0824 5.87135 29.0285 5.5247 28.8039 5.29555L28.2683 5.82054ZM25.2083 2.05748H11.6636V3.55748H25.2083V2.05748ZM25.9583 3.83711V2.80748H24.4583V3.83711H25.9583ZM28.5458 6.42462C27.1167 6.42462 25.9583 5.26615 25.9583 3.83711H24.4583C24.4583 6.09458 26.2883 7.92462 28.5458 7.92462V6.42462ZM29.4756 6.42462H28.5458V7.92462H29.4756V6.42462ZM30.2256 26.4167V7.17462H28.7256V26.4167H30.2256ZM28.9323 28.3459C29.6898 28.0348 30.2256 27.2892 30.2256 26.4167H28.7256C28.7256 26.66 28.5768 26.8704 28.3625 26.9584L28.9323 28.3459ZM29.3974 29.0387V27.6522H27.8974V29.0387H29.3974ZM30.0606 26.4167C30.0606 27.3517 29.3915 28.132 28.5058 28.3022L28.7889 29.7752C30.3677 29.4719 31.5606 28.0844 31.5606 26.4167H30.0606ZM30.0606 7.17462V26.4167H31.5606V7.17462H30.0606ZM30.0606 6.50712V7.17462H31.5606V6.50712H30.0606ZM29.6207 6.36461L30.2749 7.03211L31.3462 5.98213L30.6919 5.31462L29.6207 6.36461ZM26.0077 2.67847L29.6207 6.36461L30.6919 5.31462L27.0789 1.62849L26.0077 2.67847ZM25.3401 1.99747L26.0077 2.67847L27.0789 1.62849L26.4114 0.947481L25.3401 1.99747ZM25.2083 2.22247H25.8758V0.722473H25.2083V2.22247ZM11.6636 2.22247H25.2083V0.722473H11.6636V2.22247ZM9.87154 3.45123C10.1495 2.73118 10.8481 2.22247 11.6636 2.22247V0.722473C10.2077 0.722473 8.96606 1.63187 8.47221 2.91096L9.87154 3.45123ZM10.7373 2.43109H9.17188V3.93109H10.7373V2.43109ZM11.6636 2.05748C11.1021 2.05748 10.5911 2.28043 10.2169 2.64105L11.2577 3.72113C11.3636 3.61907 11.5056 3.55748 11.6636 3.55748V2.05748ZM26.0216 4.5999L27.7326 6.34553L28.8039 5.29555L27.0929 3.54992L26.0216 4.5999ZM28.3712 5.07765C27.8114 5.00004 27.3687 4.54987 27.302 3.98679L25.8124 4.16303C25.9594 5.40515 26.9309 6.3923 28.1653 6.56344L28.3712 5.07765ZM25.1258 1.47247V3.83711H26.6258V1.47247H25.1258ZM28.5458 7.25712H30.8106V5.75712H28.5458V7.25712ZM25.1258 3.83711C25.1258 5.72593 26.657 7.25712 28.5458 7.25712V5.75712C27.4854 5.75712 26.6258 4.8975 26.6258 3.83711H25.1258Z" fill="black"/>
<path fill-rule="evenodd" clip-rule="evenodd" d="M21.18 21.0048C20.5485 24.6485 17.0827 27.0902 13.4391 26.4586C9.79549 25.8271 7.35375 22.3613 7.98532 18.7177C8.61689 15.0741 12.0826 12.6323 15.7262 13.2639C19.3699 13.8955 21.8116 17.3612 21.18 21.0048ZM22.4954 21.2328C21.7379 25.6029 17.5812 28.5315 13.2111 27.774C11.2784 27.439 9.62761 26.4391 8.45296 25.05C8.43409 25.0668 8.41407 25.0827 8.39292 25.0976L1.85767 29.7019C1.5563 29.9142 1.13987 29.842 0.927549 29.5407C0.715224 29.2393 0.787407 28.8229 1.08877 28.6106L7.62402 24.0062C7.64297 23.9929 7.66237 23.9806 7.68215 23.9695C6.73464 22.3797 6.32905 20.4563 6.66993 18.4897C7.42743 14.1196 11.5842 11.191 15.9542 11.9485C20.3243 12.706 23.2529 16.8628 22.4954 21.2328Z" fill="#339A69"/>
<path d="M13.4391 26.4586L13.3537 26.9513L13.3537 26.9513L13.4391 26.4586ZM21.18 21.0048L21.6727 21.0902L21.6727 21.0902L21.18 21.0048ZM7.98532 18.7177L8.47797 18.8031L8.47797 18.8031L7.98532 18.7177ZM13.2111 27.774L13.1257 28.2667L13.1257 28.2667L13.2111 27.774ZM22.4954 21.2328L22.0028 21.1475L22.0028 21.1475L22.4954 21.2328ZM8.45296 25.05L8.83476 24.7271L8.50359 24.3355L8.1205 24.6765L8.45296 25.05ZM8.39292 25.0976L8.68089 25.5063L8.68089 25.5063L8.39292 25.0976ZM1.85767 29.7019L2.14564 30.1106L2.14564 30.1106L1.85767 29.7019ZM0.927549 29.5407L0.518806 29.8287L0.518807 29.8287L0.927549 29.5407ZM1.08877 28.6106L1.37675 29.0193L1.37675 29.0193L1.08877 28.6106ZM7.62402 24.0062L7.33605 23.5975L7.33604 23.5975L7.62402 24.0062ZM7.68215 23.9695L7.92709 24.4054L8.37424 24.1542L8.11166 23.7136L7.68215 23.9695ZM6.66993 18.4897L7.16259 18.5751L6.66993 18.4897ZM15.9542 11.9485L15.8689 12.4412L15.8689 12.4412L15.9542 11.9485ZM13.3537 26.9513C17.2694 27.63 20.9939 25.0059 21.6727 21.0902L20.6874 20.9194C20.103 24.291 16.896 26.5504 13.5245 25.966L13.3537 26.9513ZM7.49267 18.6323C6.81393 22.548 9.43801 26.2725 13.3537 26.9513L13.5245 25.966C10.153 25.3816 7.89356 22.1746 8.47797 18.8031L7.49267 18.6323ZM15.8116 12.7713C11.8959 12.0925 8.1714 14.7166 7.49267 18.6323L8.47797 18.8031C9.06239 15.4316 12.2693 13.1722 15.6408 13.7566L15.8116 12.7713ZM21.6727 21.0902C22.3514 17.1745 19.7273 13.45 15.8116 12.7713L15.6408 13.7566C19.0124 14.341 21.2718 17.5479 20.6874 20.9194L21.6727 21.0902ZM13.1257 28.2667C17.7679 29.0713 22.1834 25.9604 22.9881 21.3182L22.0028 21.1475C21.2924 25.2455 17.3945 27.9917 13.2965 27.2814L13.1257 28.2667ZM8.07116 25.3728C9.31879 26.8483 11.0731 27.9109 13.1257 28.2667L13.2965 27.2814C11.4837 26.9671 9.93644 26.03 8.83476 24.7271L8.07116 25.3728ZM8.1205 24.6765C8.11574 24.6807 8.11057 24.6849 8.10494 24.6888L8.68089 25.5063C8.71756 25.4805 8.75243 25.4528 8.78542 25.4234L8.1205 24.6765ZM8.10494 24.6888L1.56969 29.2932L2.14564 30.1106L8.68089 25.5063L8.10494 24.6888ZM1.56969 29.2932C1.49407 29.3464 1.38957 29.3283 1.33629 29.2527L0.518807 29.8287C0.890176 30.3558 1.61853 30.482 2.14564 30.1106L1.56969 29.2932ZM1.33629 29.2527C1.28301 29.1771 1.30112 29.0726 1.37675 29.0193L0.800798 28.2018C0.273689 28.5732 0.147438 29.3015 0.518806 29.8287L1.33629 29.2527ZM1.37675 29.0193L7.91199 24.415L7.33604 23.5975L0.800798 28.2018L1.37675 29.0193ZM7.91199 24.415C7.91703 24.4114 7.92206 24.4082 7.92709 24.4054L7.4372 23.5336C7.40268 23.553 7.36891 23.5743 7.33605 23.5975L7.91199 24.415ZM6.17728 18.4043C5.81524 20.493 6.2463 22.537 7.25264 24.2255L8.11166 23.7136C7.22297 22.2224 6.84286 20.4196 7.16259 18.5751L6.17728 18.4043ZM16.0396 11.4559C11.3975 10.6512 6.98194 13.7621 6.17728 18.4043L7.16259 18.5751C7.87292 14.4771 11.7708 11.7308 15.8689 12.4412L16.0396 11.4559ZM22.9881 21.3182C23.7927 16.6761 20.6818 12.2605 16.0396 11.4559L15.8689 12.4412C19.9669 13.1515 22.7131 17.0494 22.0028 21.1475L22.9881 21.3182Z" fill="#339A69"/>
</svg>
