<svg width="33" height="33" viewBox="0 0 33 33" fill="none" xmlns="http://www.w3.org/2000/svg">
<g clip-path="url(#clip0_154_5394)">
<path d="M29.0688 18.3445C29.0688 18.0685 28.8448 17.8445 28.5688 17.8445H15.0688V4.32654C15.0688 4.05054 14.8448 3.82654 14.5688 3.82654C6.57385 3.82654 0.0688477 10.3215 0.0688477 18.3055C0.0688477 26.5835 6.31185 32.8265 14.5898 32.8265C22.3028 32.8265 29.0688 26.0585 29.0688 18.3445ZM1.06885 18.3055C1.06885 11.0395 6.85585 5.09954 14.0688 4.83554V18.3445C14.0688 18.6205 14.2928 18.8445 14.5688 18.8265H28.0588C27.7758 25.8165 21.6038 31.8265 14.5898 31.8265C6.88185 31.8265 1.06885 26.0145 1.06885 18.3055V18.3055ZM17.5688 15.8265H31.5678C31.8438 15.8445 32.0688 15.6025 32.0688 15.3265C32.0688 7.33154 25.5638 0.826538 17.5688 0.826538C17.2928 0.826538 17.0688 1.05054 17.0688 1.32654V15.3445C17.0688 15.6205 17.2928 15.8445 17.5688 15.8265ZM18.0688 1.83554C25.1318 2.09454 30.8278 7.80554 31.0628 14.8445H18.0688V1.83554V1.83554Z" fill="black"/>
<path fill-rule="evenodd" clip-rule="evenodd" d="M16.9429 0.833816V15.8643H32.0617C32.0617 15.8643 32.0781 15.6059 32.0617 15.1515C32.0558 14.9882 32.0457 14.7997 32.029 14.5888C31.8749 12.6332 31.1614 8.75192 28.0729 5.2476C24.8853 1.6309 20.3914 0.944748 18.2184 0.836215C18.2017 0.835382 18.1852 0.834582 18.1687 0.833816C17.4064 0.798215 16.9429 0.833816 16.9429 0.833816ZM18.2184 2.11347C18.8459 2.14764 19.6753 2.23435 20.606 2.43665C22.6811 2.88766 25.1798 3.89412 27.116 6.09097C29.115 8.35907 30.034 10.8009 30.4532 12.6836C30.6183 13.4253 30.7048 14.0761 30.7492 14.5888H18.2184V2.11347Z" fill="#339A69"/>
</g>
<defs>
<clipPath id="clip0_154_5394">
<rect width="32" height="32" fill="white" transform="translate(0.0688477 0.826538)"/>
</clipPath>
</defs>
</svg>
