<svg width="31" height="33" viewBox="0 0 31 33" fill="none" xmlns="http://www.w3.org/2000/svg">
<path fill-rule="evenodd" clip-rule="evenodd" d="M20.6042 6.19328H7.03837C6.30107 6.19328 5.70337 6.79098 5.70337 7.52828V15.539H5.46541C5.46826 15.5618 5.46974 15.5849 5.46974 15.6085C5.46974 15.9126 5.22314 16.1592 4.91895 16.1592C4.61476 16.1592 4.36816 15.9126 4.36816 15.6085C4.36816 15.5849 4.36964 15.5618 4.37249 15.539H4.36837V7.52828C4.36837 6.05368 5.56377 4.85828 7.03837 4.85828H20.6042H21.2717L21.9392 5.53843L25.5576 9.22542L26.2127 9.89292V10.5604V29.8025C26.2127 31.2771 25.0173 32.4725 23.5427 32.4725H7.03838C5.56377 32.4725 4.36837 31.2771 4.36837 29.8025V28.5064H4.37482C4.37044 28.4785 4.36816 28.4498 4.36816 28.4206C4.36816 28.1164 4.61476 27.8698 4.91895 27.8698C5.22314 27.8698 5.46974 28.1164 5.46974 28.4206C5.46974 28.4498 5.46746 28.4785 5.46309 28.5064H5.70337V29.8025C5.70337 30.5398 6.30107 31.1375 7.03838 31.1375H23.5427C24.28 31.1375 24.8777 30.5398 24.8777 29.8025V10.5604H23.9417C22.0985 10.5604 20.6042 9.06617 20.6042 7.22291V6.19328ZM21.9529 7.45834L23.669 9.20701C22.7689 9.08445 22.0589 8.36368 21.9529 7.45834Z" fill="black"/>
<path fill-rule="evenodd" clip-rule="evenodd" d="M11.6636 1.80748H25.2083V2.83711C25.2083 4.68036 26.7025 6.17462 28.5458 6.17462H29.4756V25.4167C29.4756 25.9745 29.1336 26.4523 28.6478 26.652V28.0386C29.8798 27.8017 30.8106 26.7179 30.8106 25.4167V6.17462V5.50712L30.1563 4.83962L26.5433 1.15348L25.8758 0.472473H25.2083H11.6636C10.5279 0.472473 9.5578 1.18152 9.17188 2.18108H10.7373C10.9774 1.94974 11.3038 1.80748 11.6636 1.80748ZM26.5572 3.07491L28.2682 4.82054C27.3711 4.69617 26.664 3.97751 26.5572 3.07491Z" fill="black"/>
<path fill-rule="evenodd" clip-rule="evenodd" d="M21.1798 19.0048C20.5482 22.6485 17.0825 25.0902 13.4389 24.4586C9.79528 23.8271 7.35353 20.3613 7.98511 16.7177C8.61668 13.0741 12.0824 10.6323 15.726 11.2639C19.3696 11.8955 21.8114 15.3612 21.1798 19.0048ZM22.4952 19.2328C21.7377 23.6029 17.581 26.5315 13.2109 25.774C11.2782 25.439 9.62749 24.4392 8.45284 23.0501C8.434 23.0668 8.41402 23.0827 8.39292 23.0976L1.85767 27.7019C1.5563 27.9142 1.13987 27.8421 0.927549 27.5407C0.715224 27.2393 0.787407 26.8229 1.08877 26.6106L7.62402 22.0062C7.64292 21.9929 7.66227 21.9807 7.68199 21.9696C6.73444 20.3798 6.32883 18.4563 6.66972 16.4897C7.42722 12.1196 11.5839 9.19103 15.954 9.94853C20.3241 10.706 23.2527 14.8628 22.4952 19.2328Z" fill="#339A69"/>
</svg>
