<svg width="1308" height="479" viewBox="0 0 1308 479" fill="none" xmlns="http://www.w3.org/2000/svg">
<path fill-rule="evenodd" clip-rule="evenodd" d="M248.175 332.245L254.863 294.349C256.112 288.519 256.945 282.688 257.362 276.856C258.194 270.608 258.611 265.402 258.611 261.237C258.611 260.765 258.612 260.298 258.612 259.836C258.625 248.882 258.634 240.68 251.44 233.486C244.36 225.989 233.947 222.24 220.202 222.24C193.545 222.24 172.303 231.82 156.476 250.979C141.065 270.139 125.953 296.848 119.289 333.085L118.499 337.568C87.6202 338.84 56.3713 340.13 24.7482 341.438L65.5592 110.044H18.0771L28.0734 49.4423H75.5555L84.9269 0.0859375H178.017L168.645 49.4423H264.859L254.863 110.044H158.024L156.775 116.292C153.859 132.952 150.735 148.155 147.403 161.899C144.072 175.644 141.156 187.307 138.657 196.886L143.38 191.263C157.476 173.851 173.908 166.755 192.133 158.885L192.386 158.776C210.712 150.862 230.289 146.905 251.114 146.905C271.523 146.905 289.225 150.654 304.219 158.151C319.213 165.648 330.876 176.686 339.206 191.263C347.536 205.842 351.701 223.96 351.701 245.618C351.701 252.282 351.284 261.654 350.452 273.732C349.619 285.395 348.577 294.974 347.328 302.471L342.632 328.389C311.561 329.654 280.077 330.939 248.175 332.245ZM666.667 315.332L668.656 300.412C670.894 279.465 670.182 259.432 666.521 240.315C662.86 220.995 656.048 203.809 646.082 188.76C636.117 173.71 623 161.711 606.729 152.763C590.459 143.814 570.833 139.137 547.853 138.73C523.244 138.12 500.873 142.391 480.739 151.543C460.809 160.491 443.522 172.999 428.879 189.065C414.236 204.928 402.542 223.232 393.797 243.976C385.052 264.719 379.459 286.583 377.018 309.564L375.798 322.071C375.675 323.74 375.572 325.401 375.491 327.053C387.248 326.575 398.946 326.1 410.584 325.629C427.534 324.941 444.358 324.26 461.056 323.585C531.832 320.725 600.349 317.974 666.667 315.332ZM781.607 310.772C753.165 311.895 724.293 313.039 694.986 314.205L748.302 6.3336H834.329L781.607 310.772ZM943.104 304.443C914.758 305.545 885.942 306.67 856.65 307.819L884.969 144.831H970.691L943.104 304.443ZM1200.31 294.583C1161.42 296.049 1121.48 297.568 1080.47 299.139L1017.67 144.831H1105.52L1142.13 244.586L1212.3 144.831H1307.79L1200.31 294.583ZM468.461 278.538L586.595 278.753L588.121 271.126C589.748 259.941 589.239 249.569 586.595 240.01C583.952 230.248 578.969 222.419 571.648 216.521C564.326 210.622 554.564 207.471 542.361 207.064C528.329 206.657 516.534 209.605 506.975 215.91C497.416 222.215 489.586 230.553 483.485 240.925C477.384 251.297 472.706 262.585 469.452 274.787C469.112 276.042 468.782 277.292 468.461 278.538Z" fill="#24ADA1"/>
<path fill-rule="evenodd" clip-rule="evenodd" d="M18.9806 369.575L0.786621 472.733H93.8765L113.019 364.098C82.211 365.873 50.868 367.698 18.9806 369.575ZM337.621 351.549C306.716 353.216 275.196 354.943 243.049 356.732L222.578 472.733H315.668L337.621 351.549ZM453.472 466.022C471.572 474.157 491.91 478.428 514.485 478.834C530.551 479.038 546.719 477.005 562.989 472.733C579.258 468.666 594.41 462.259 608.443 453.514C622.679 444.566 634.373 433.177 643.525 419.348L605.087 372.979C594.105 384.367 581.699 393.519 567.87 400.434C554.244 407.145 539.296 410.298 523.026 409.891C510.213 409.484 499.537 406.637 490.994 401.349C482.656 396.062 476.046 389.147 471.165 380.605C466.488 372.064 463.336 362.505 461.709 351.929C461.363 349.638 461.077 347.347 460.851 345.055C432.939 346.489 404.484 347.977 375.473 349.521C376.421 360.597 378.423 371.263 381.478 381.52C387.172 400.638 396.019 417.415 408.018 431.855C420.22 446.295 435.372 457.684 453.472 466.022ZM690.771 333.933L666.734 472.733H752.761L777.45 330.167C749.272 331.345 720.386 332.601 690.771 333.933ZM852.492 327.143L827.196 472.733H913.219L938.929 323.982C910.94 324.944 882.136 325.997 852.492 327.143ZM1066.96 320.073L957.461 472.733H1053.55L1127.07 367.183L1168.26 472.733H1255.5L1192.51 317.408C1152.9 318.024 1111.1 318.911 1066.96 320.073Z" fill="#205469"/>
</svg>
