<svg width="393" height="76" viewBox="0 0 393 76" fill="none" xmlns="http://www.w3.org/2000/svg">
<path d="M6.53266 75.046C4.58014 75.046 3.15062 74.7322 2.24409 74.1046C1.33756 73.5467 0.779701 72.7797 0.570503 71.8034C0.361304 70.8272 0.256705 69.7463 0.256705 68.5608V8.20702C0.256705 5.8361 0.709969 4.19738 1.6165 3.29085C2.59276 2.38432 4.33608 1.93106 6.84646 1.93106H47.6402C48.8257 1.93106 49.8717 2.07053 50.7782 2.34945C51.6847 2.55865 52.4169 3.11652 52.9748 4.02305C53.5326 4.85984 53.8116 6.28937 53.8116 8.31162C53.8116 10.2641 53.4978 11.6937 52.8702 12.6002C52.3123 13.5067 51.5452 14.0646 50.569 14.2738C49.6625 14.483 48.6165 14.5876 47.431 14.5876H12.9132V32.1603H36.6573C37.8427 32.1603 38.8539 32.2997 39.6907 32.5787C40.5972 32.7879 41.2596 33.3109 41.678 34.1477C42.1662 34.9147 42.4102 36.2048 42.4102 38.0178C42.4102 39.6914 42.1662 40.9466 41.678 41.7834C41.1899 42.5505 40.4926 43.0386 39.5861 43.2478C38.7493 43.3873 37.7381 43.457 36.5527 43.457H12.9132V68.6654C12.9132 69.8509 12.7738 70.9318 12.4948 71.908C12.2856 72.8145 11.7278 73.5467 10.8212 74.1046C9.91471 74.7322 8.48519 75.046 6.53266 75.046ZM70.6521 75.046C68.6995 75.046 67.27 74.7322 66.3635 74.1046C65.457 73.5467 64.8991 72.7797 64.6899 71.8034C64.4807 70.8272 64.3761 69.7463 64.3761 68.5608V8.20702C64.3761 7.09129 64.4807 6.0453 64.6899 5.06904C64.9688 4.09278 65.5267 3.32572 66.3635 2.76785C67.27 2.20999 68.7344 1.93106 70.7567 1.93106C72.7092 1.93106 74.1038 2.20999 74.9406 2.76785C75.8472 3.32572 76.405 4.09278 76.6142 5.06904C76.8931 6.0453 77.0326 7.12616 77.0326 8.31162V68.6654C77.0326 69.8509 76.8931 70.9318 76.6142 71.908C76.405 72.8145 75.8472 73.5467 74.9406 74.1046C74.0341 74.7322 72.6046 75.046 70.6521 75.046ZM125.424 75.4644C122.007 75.4644 118.555 74.9763 115.068 74C111.582 72.954 108.235 71.4199 105.027 69.3976C101.819 67.3056 98.9601 64.7604 96.4497 61.7619C94.009 58.6936 92.0565 55.1721 90.5921 51.1973C89.1277 47.1528 88.3955 42.6899 88.3955 37.8086C88.3955 32.9971 89.1277 28.6736 90.5921 24.8383C92.0565 20.9333 94.009 17.5164 96.4497 14.5876C98.9601 11.6588 101.784 9.21815 104.922 7.26563C108.13 5.31311 111.477 3.84872 114.964 2.87246C118.52 1.82646 122.042 1.2686 125.528 1.19886C129.085 1.19886 132.153 1.58239 134.733 2.34945C137.313 3.11652 139.405 3.95332 141.009 4.85984C142.613 5.69664 143.694 6.28936 144.252 6.63803C145.367 7.33536 146.413 8.13729 147.39 9.04381C148.436 9.88061 148.993 10.9266 149.063 12.1818C149.133 13.0186 149.028 13.7856 148.749 14.483C148.47 15.1106 148.087 15.773 147.599 16.4704C146.762 17.6558 145.925 18.5275 145.088 19.0853C144.252 19.6432 143.415 19.9221 142.578 19.9221C141.811 19.9221 141.079 19.7129 140.381 19.2946C139.754 18.8762 138.952 18.3532 137.976 17.7256C137.557 17.4466 136.79 17.0282 135.674 16.4704C134.628 15.8428 133.199 15.2849 131.386 14.7968C129.643 14.3086 127.516 14.0646 125.005 14.0646C122.007 14.0646 119.078 14.5876 116.219 15.6336C113.36 16.6796 110.78 18.2486 108.479 20.3405C106.247 22.3628 104.469 24.908 103.144 27.9763C101.819 30.9748 101.157 34.4266 101.157 38.3316C101.157 42.2367 101.819 45.7233 103.144 48.7916C104.469 51.7901 106.247 54.3353 108.479 56.4273C110.78 58.4496 113.36 59.9837 116.219 61.0297C119.078 62.0757 122.007 62.5987 125.005 62.5987C127.376 62.5987 129.398 62.3895 131.072 61.9711C132.815 61.4829 134.28 60.9251 135.465 60.2975C136.72 59.6002 137.662 59.0772 138.289 58.7285C139.056 58.2404 139.789 57.7871 140.486 57.3687C141.183 56.9503 141.916 56.7411 142.683 56.7411C143.519 56.7411 144.321 57.02 145.088 57.5779C145.925 58.1358 146.727 59.0423 147.494 60.2975C147.982 61.0645 148.366 61.7967 148.645 62.4941C148.924 63.1914 149.028 63.9236 148.959 64.6907C148.889 65.9459 148.331 67.0267 147.285 67.9332C146.309 68.77 145.263 69.5022 144.147 70.1298C143.589 70.4785 142.508 71.1061 140.904 72.0126C139.37 72.8494 137.313 73.6165 134.733 74.3138C132.153 75.0809 129.05 75.4644 125.424 75.4644ZM216.14 1.82646C217.186 1.82646 218.092 1.93106 218.859 2.14026C219.696 2.34946 220.359 2.87245 220.847 3.70925C221.335 4.47631 221.579 5.7315 221.579 7.47482C221.579 9.21815 221.335 10.5082 220.847 11.345C220.359 12.1121 219.696 12.6002 218.859 12.8094C218.023 12.9489 217.081 13.0186 216.035 13.0186H196.789V68.77C196.789 69.9555 196.65 71.0364 196.371 72.0126C196.161 72.9191 195.604 73.6513 194.697 74.2092C193.86 74.7671 192.431 75.046 190.408 75.046C188.526 75.046 187.131 74.7322 186.225 74.1046C185.318 73.5467 184.76 72.8145 184.551 71.908C184.342 70.9318 184.237 69.8509 184.237 68.6654V13.0186H164.782C163.805 13.0186 162.899 12.914 162.062 12.7048C161.225 12.4956 160.528 12.0075 159.97 11.2404C159.482 10.4733 159.238 9.21815 159.238 7.47482C159.238 5.7315 159.482 4.47631 159.97 3.70925C160.458 2.87245 161.121 2.34946 161.957 2.14026C162.864 1.93106 163.805 1.82646 164.782 1.82646H216.14ZM239.073 75.046C237.121 75.046 235.691 74.7322 234.785 74.1046C233.878 73.5467 233.32 72.7797 233.111 71.8034C232.902 70.8272 232.797 69.7463 232.797 68.5608V8.20702C232.797 7.09129 232.902 6.0453 233.111 5.06904C233.39 4.09278 233.948 3.32572 234.785 2.76785C235.691 2.20999 237.156 1.93106 239.178 1.93106C241.13 1.93106 242.525 2.20999 243.362 2.76785C244.268 3.32572 244.826 4.09278 245.035 5.06904C245.314 6.0453 245.454 7.12616 245.454 8.31162V68.6654C245.454 69.8509 245.314 70.9318 245.035 71.908C244.826 72.8145 244.268 73.5467 243.362 74.1046C242.455 74.7322 241.026 75.046 239.073 75.046ZM288.824 74.9414C287.22 74.9414 285.861 74.6625 284.745 74.1046C283.699 73.6165 282.897 72.7448 282.339 71.4896L256.398 10.299C255.492 8.13729 255.318 6.53343 255.875 5.48744C256.433 4.44145 257.723 3.39545 259.746 2.34945C261.14 1.58239 262.361 1.19886 263.407 1.19886C264.453 1.12913 265.324 1.44293 266.022 2.14026C266.789 2.76785 267.451 3.81385 268.009 5.27824L288.72 57.1595L309.221 5.80124C309.849 4.40658 310.511 3.32572 311.208 2.55866C311.906 1.72186 312.812 1.30346 313.928 1.30346C315.044 1.23373 316.369 1.61726 317.903 2.45406C320.343 3.63951 321.668 4.85984 321.878 6.11503C322.087 7.37022 321.738 8.97408 320.832 10.9266L295.1 71.4896C294.612 72.5356 293.81 73.3724 292.694 74C291.579 74.6276 290.289 74.9414 288.824 74.9414ZM388.987 2.66325C391.009 4.05791 392.125 5.38284 392.334 6.63803C392.543 7.89322 392.055 9.35761 390.87 11.0312L367.544 46.2812V68.77C367.544 69.9555 367.405 71.0364 367.126 72.0126C366.917 72.9191 366.359 73.6513 365.452 74.2092C364.546 74.8368 363.116 75.1506 361.164 75.1506C359.141 75.1506 357.677 74.8368 356.77 74.2092C355.934 73.6513 355.376 72.8843 355.097 71.908C354.888 70.9318 354.783 69.816 354.783 68.5608V46.2812L331.353 11.1358C330.098 9.39248 329.609 7.89322 329.888 6.63803C330.237 5.38284 331.388 4.09278 333.34 2.76785C334.735 1.79159 335.92 1.19886 336.897 0.989668C337.943 0.780468 338.884 0.9548 339.721 1.51266C340.558 2.07052 341.359 2.97705 342.127 4.23224L360.954 34.0431L380.096 4.23224C380.933 2.97705 381.735 2.10539 382.502 1.61726C383.339 1.0594 384.28 0.885066 385.326 1.09427C386.372 1.23373 387.592 1.75673 388.987 2.66325Z" fill="black" fill-opacity="0.2"/>
<path d="M6.53266 75.046C4.58014 75.046 3.15062 74.7322 2.24409 74.1046C1.33756 73.5467 0.779701 72.7797 0.570503 71.8034C0.361304 70.8272 0.256705 69.7463 0.256705 68.5608V8.20702C0.256705 5.8361 0.709969 4.19738 1.6165 3.29085C2.59276 2.38432 4.33608 1.93106 6.84646 1.93106H47.6402C48.8257 1.93106 49.8717 2.07053 50.7782 2.34945C51.6847 2.55865 52.4169 3.11652 52.9748 4.02305C53.5326 4.85984 53.8116 6.28937 53.8116 8.31162C53.8116 10.2641 53.4978 11.6937 52.8702 12.6002C52.3123 13.5067 51.5452 14.0646 50.569 14.2738C49.6625 14.483 48.6165 14.5876 47.431 14.5876H12.9132V32.1603H36.6573C37.8427 32.1603 38.8539 32.2997 39.6907 32.5787C40.5972 32.7879 41.2596 33.3109 41.678 34.1477C42.1662 34.9147 42.4102 36.2048 42.4102 38.0178C42.4102 39.6914 42.1662 40.9466 41.678 41.7834C41.1899 42.5505 40.4926 43.0386 39.5861 43.2478C38.7493 43.3873 37.7381 43.457 36.5527 43.457H12.9132V68.6654C12.9132 69.8509 12.7738 70.9318 12.4948 71.908C12.2856 72.8145 11.7278 73.5467 10.8212 74.1046C9.91471 74.7322 8.48519 75.046 6.53266 75.046ZM70.6521 75.046C68.6995 75.046 67.27 74.7322 66.3635 74.1046C65.457 73.5467 64.8991 72.7797 64.6899 71.8034C64.4807 70.8272 64.3761 69.7463 64.3761 68.5608V8.20702C64.3761 7.09129 64.4807 6.0453 64.6899 5.06904C64.9688 4.09278 65.5267 3.32572 66.3635 2.76785C67.27 2.20999 68.7344 1.93106 70.7567 1.93106C72.7092 1.93106 74.1038 2.20999 74.9406 2.76785C75.8472 3.32572 76.405 4.09278 76.6142 5.06904C76.8931 6.0453 77.0326 7.12616 77.0326 8.31162V68.6654C77.0326 69.8509 76.8931 70.9318 76.6142 71.908C76.405 72.8145 75.8472 73.5467 74.9406 74.1046C74.0341 74.7322 72.6046 75.046 70.6521 75.046ZM125.424 75.4644C122.007 75.4644 118.555 74.9763 115.068 74C111.582 72.954 108.235 71.4199 105.027 69.3976C101.819 67.3056 98.9601 64.7604 96.4497 61.7619C94.009 58.6936 92.0565 55.1721 90.5921 51.1973C89.1277 47.1528 88.3955 42.6899 88.3955 37.8086C88.3955 32.9971 89.1277 28.6736 90.5921 24.8383C92.0565 20.9333 94.009 17.5164 96.4497 14.5876C98.9601 11.6588 101.784 9.21815 104.922 7.26563C108.13 5.31311 111.477 3.84872 114.964 2.87246C118.52 1.82646 122.042 1.2686 125.528 1.19886C129.085 1.19886 132.153 1.58239 134.733 2.34945C137.313 3.11652 139.405 3.95332 141.009 4.85984C142.613 5.69664 143.694 6.28936 144.252 6.63803C145.367 7.33536 146.413 8.13729 147.39 9.04381C148.436 9.88061 148.993 10.9266 149.063 12.1818C149.133 13.0186 149.028 13.7856 148.749 14.483C148.47 15.1106 148.087 15.773 147.599 16.4704C146.762 17.6558 145.925 18.5275 145.088 19.0853C144.252 19.6432 143.415 19.9221 142.578 19.9221C141.811 19.9221 141.079 19.7129 140.381 19.2946C139.754 18.8762 138.952 18.3532 137.976 17.7256C137.557 17.4466 136.79 17.0282 135.674 16.4704C134.628 15.8428 133.199 15.2849 131.386 14.7968C129.643 14.3086 127.516 14.0646 125.005 14.0646C122.007 14.0646 119.078 14.5876 116.219 15.6336C113.36 16.6796 110.78 18.2486 108.479 20.3405C106.247 22.3628 104.469 24.908 103.144 27.9763C101.819 30.9748 101.157 34.4266 101.157 38.3316C101.157 42.2367 101.819 45.7233 103.144 48.7916C104.469 51.7901 106.247 54.3353 108.479 56.4273C110.78 58.4496 113.36 59.9837 116.219 61.0297C119.078 62.0757 122.007 62.5987 125.005 62.5987C127.376 62.5987 129.398 62.3895 131.072 61.9711C132.815 61.4829 134.28 60.9251 135.465 60.2975C136.72 59.6002 137.662 59.0772 138.289 58.7285C139.056 58.2404 139.789 57.7871 140.486 57.3687C141.183 56.9503 141.916 56.7411 142.683 56.7411C143.519 56.7411 144.321 57.02 145.088 57.5779C145.925 58.1358 146.727 59.0423 147.494 60.2975C147.982 61.0645 148.366 61.7967 148.645 62.4941C148.924 63.1914 149.028 63.9236 148.959 64.6907C148.889 65.9459 148.331 67.0267 147.285 67.9332C146.309 68.77 145.263 69.5022 144.147 70.1298C143.589 70.4785 142.508 71.1061 140.904 72.0126C139.37 72.8494 137.313 73.6165 134.733 74.3138C132.153 75.0809 129.05 75.4644 125.424 75.4644ZM216.14 1.82646C217.186 1.82646 218.092 1.93106 218.859 2.14026C219.696 2.34946 220.359 2.87245 220.847 3.70925C221.335 4.47631 221.579 5.7315 221.579 7.47482C221.579 9.21815 221.335 10.5082 220.847 11.345C220.359 12.1121 219.696 12.6002 218.859 12.8094C218.023 12.9489 217.081 13.0186 216.035 13.0186H196.789V68.77C196.789 69.9555 196.65 71.0364 196.371 72.0126C196.161 72.9191 195.604 73.6513 194.697 74.2092C193.86 74.7671 192.431 75.046 190.408 75.046C188.526 75.046 187.131 74.7322 186.225 74.1046C185.318 73.5467 184.76 72.8145 184.551 71.908C184.342 70.9318 184.237 69.8509 184.237 68.6654V13.0186H164.782C163.805 13.0186 162.899 12.914 162.062 12.7048C161.225 12.4956 160.528 12.0075 159.97 11.2404C159.482 10.4733 159.238 9.21815 159.238 7.47482C159.238 5.7315 159.482 4.47631 159.97 3.70925C160.458 2.87245 161.121 2.34946 161.957 2.14026C162.864 1.93106 163.805 1.82646 164.782 1.82646H216.14ZM239.073 75.046C237.121 75.046 235.691 74.7322 234.785 74.1046C233.878 73.5467 233.32 72.7797 233.111 71.8034C232.902 70.8272 232.797 69.7463 232.797 68.5608V8.20702C232.797 7.09129 232.902 6.0453 233.111 5.06904C233.39 4.09278 233.948 3.32572 234.785 2.76785C235.691 2.20999 237.156 1.93106 239.178 1.93106C241.13 1.93106 242.525 2.20999 243.362 2.76785C244.268 3.32572 244.826 4.09278 245.035 5.06904C245.314 6.0453 245.454 7.12616 245.454 8.31162V68.6654C245.454 69.8509 245.314 70.9318 245.035 71.908C244.826 72.8145 244.268 73.5467 243.362 74.1046C242.455 74.7322 241.026 75.046 239.073 75.046ZM288.824 74.9414C287.22 74.9414 285.861 74.6625 284.745 74.1046C283.699 73.6165 282.897 72.7448 282.339 71.4896L256.398 10.299C255.492 8.13729 255.318 6.53343 255.875 5.48744C256.433 4.44145 257.723 3.39545 259.746 2.34945C261.14 1.58239 262.361 1.19886 263.407 1.19886C264.453 1.12913 265.324 1.44293 266.022 2.14026C266.789 2.76785 267.451 3.81385 268.009 5.27824L288.72 57.1595L309.221 5.80124C309.849 4.40658 310.511 3.32572 311.208 2.55866C311.906 1.72186 312.812 1.30346 313.928 1.30346C315.044 1.23373 316.369 1.61726 317.903 2.45406C320.343 3.63951 321.668 4.85984 321.878 6.11503C322.087 7.37022 321.738 8.97408 320.832 10.9266L295.1 71.4896C294.612 72.5356 293.81 73.3724 292.694 74C291.579 74.6276 290.289 74.9414 288.824 74.9414ZM388.987 2.66325C391.009 4.05791 392.125 5.38284 392.334 6.63803C392.543 7.89322 392.055 9.35761 390.87 11.0312L367.544 46.2812V68.77C367.544 69.9555 367.405 71.0364 367.126 72.0126C366.917 72.9191 366.359 73.6513 365.452 74.2092C364.546 74.8368 363.116 75.1506 361.164 75.1506C359.141 75.1506 357.677 74.8368 356.77 74.2092C355.934 73.6513 355.376 72.8843 355.097 71.908C354.888 70.9318 354.783 69.816 354.783 68.5608V46.2812L331.353 11.1358C330.098 9.39248 329.609 7.89322 329.888 6.63803C330.237 5.38284 331.388 4.09278 333.34 2.76785C334.735 1.79159 335.92 1.19886 336.897 0.989668C337.943 0.780468 338.884 0.9548 339.721 1.51266C340.558 2.07052 341.359 2.97705 342.127 4.23224L360.954 34.0431L380.096 4.23224C380.933 2.97705 381.735 2.10539 382.502 1.61726C383.339 1.0594 384.28 0.885066 385.326 1.09427C386.372 1.23373 387.592 1.75673 388.987 2.66325Z" fill="url(#paint0_linear_871_209)"/>
<defs>
<linearGradient id="paint0_linear_871_209" x1="105.172" y1="26.0752" x2="278.464" y2="39.2301" gradientUnits="userSpaceOnUse">
<stop stop-color="#4990FA"/>
<stop offset="0.674481" stop-color="#5118AE"/>
</linearGradient>
</defs>
</svg>
