<svg width="50" height="32" viewBox="0 0 50 32" fill="none" xmlns="http://www.w3.org/2000/svg">
<path fill-rule="evenodd" clip-rule="evenodd" d="M0.308105 15.6929C0.308105 14.5981 0.819143 13.8238 1.47485 13.2659L20.1378 3.0783L25.5152 0.178711L49.543 5.80718L25.8023 18.6487L4.70461 13.6787C4.65683 13.7027 4.6096 13.7263 4.56301 13.7495C4.47581 13.7929 4.39107 13.8348 4.30873 13.8755L4.30731 13.8762C3.67059 14.1911 3.17757 14.4349 2.80426 14.7371C2.44058 15.0315 2.28937 15.303 2.28937 15.6929L2.28937 20.9322C2.28937 21.0792 2.35378 21.2774 2.73104 21.5899C3.08854 21.8861 3.56587 22.1548 4.15938 22.4889L4.34684 22.5945C4.43938 22.6467 4.53448 22.7007 4.63124 22.7565L4.64671 24.7982L3.91836 24.6362C3.74751 24.5332 3.56533 24.4285 3.3728 24.3198C3.30854 24.2835 3.24265 24.2466 3.17553 24.2089L3.1741 24.2081L3.17408 24.2081C2.61557 23.8949 1.972 23.5339 1.46711 23.1157C0.883972 22.6326 0.308105 21.9298 0.308105 20.9322V15.6929ZM43.8444 20.999C45.7747 20.999 47.3396 19.4341 47.3396 17.5037C47.3396 15.5734 45.7747 14.0085 43.8444 14.0085C41.914 14.0085 40.3491 15.5734 40.3491 17.5037C40.3491 17.6854 40.363 17.8639 40.3897 18.0381L24.7086 27.2322L9.15638 23.7745V25.8035L24.9946 29.3248L41.2196 19.8118C41.8601 20.5397 42.7986 20.999 43.8444 20.999ZM43.8444 19.2303C44.798 19.2303 45.571 18.4573 45.571 17.5037C45.571 16.5502 44.798 15.7771 43.8444 15.7771C42.8908 15.7771 42.1178 16.5502 42.1178 17.5037C42.1178 18.4573 42.8908 19.2303 43.8444 19.2303ZM11.4262 20.4133L8.28091 19.343L5.32055 21.1552L5.39905 31.5187L6.96928 30.0898L8.42959 31.5187V22.4742L11.4262 20.4133ZM20.0068 9.18332L27.2813 11.1028L23.6906 13.013L25.7934 13.5121L36.8384 7.57096L34.6195 7.04844L31.9723 8.4222L24.5257 6.59846L27.1084 5.15048L25.4702 4.74091L14.3284 10.8971L16.154 11.2948L20.0068 9.18332ZM28.7891 10.1646L21.3624 8.31568L23.0616 7.33489L30.4202 9.27913L28.7891 10.1646Z" fill="url(#paint0_linear_984_382)"/>
<defs>
<linearGradient id="paint0_linear_984_382" x1="9.90462" y1="11.0689" x2="45.4558" y2="6.38382" gradientUnits="userSpaceOnUse">
<stop stop-color="#5018AE"/>
<stop offset="1" stop-color="#4A81F0"/>
</linearGradient>
</defs>
</svg>
