<svg width="120" height="45" viewBox="0 0 120 45" fill="none" xmlns="http://www.w3.org/2000/svg">
<path fill-rule="evenodd" clip-rule="evenodd" d="M22.9656 30.9001L23.5758 27.4691C23.6899 26.9412 23.7658 26.4132 23.8039 25.8852C23.8799 25.3196 23.9179 24.8482 23.9179 24.4711C23.9179 24.4284 23.9179 24.3861 23.918 24.3443C23.9191 23.3525 23.92 22.6098 23.2636 21.9585C22.6175 21.2797 21.6673 20.9403 20.4131 20.9403C17.9807 20.9403 16.0424 21.8077 14.5982 23.5424C13.192 25.2771 11.8131 27.6953 11.205 30.9762L11.1329 31.3821C8.31526 31.4973 5.46385 31.6141 2.5783 31.7325L6.30223 10.7821H1.96957L2.88171 5.29525H7.21437L8.0695 0.826538H16.5638L15.7086 5.29525H24.488L23.5758 10.7821H14.7395L14.6255 11.3478C14.3594 12.8562 14.0744 14.2326 13.7704 15.4771C13.4663 16.7215 13.2003 17.7775 12.9722 18.6448L13.4032 18.1357C14.6895 16.5592 16.1888 15.9167 17.8518 15.2042L17.875 15.1943C19.5472 14.4778 21.3335 14.1195 23.2338 14.1195C25.0961 14.1195 26.7113 14.4589 28.0795 15.1377C29.4477 15.8165 30.5119 16.8158 31.272 18.1357C32.0321 19.4556 32.4122 21.096 32.4122 23.0569C32.4122 23.6603 32.3741 24.5088 32.2982 25.6024C32.2222 26.6583 32.1271 27.5256 32.0131 28.2044L31.5847 30.551C28.7494 30.6656 25.8766 30.7819 22.9656 30.9001ZM61.1522 29.3688L61.3338 28.018C61.5379 26.1214 61.473 24.3077 61.139 22.5769C60.8049 20.8276 60.1833 19.2716 59.2739 17.909C58.3646 16.5464 57.1677 15.46 55.683 14.6499C54.1984 13.8397 52.4076 13.4162 50.3107 13.3793C48.0652 13.3241 46.0239 13.7108 44.1866 14.5394C42.3681 15.3496 40.7906 16.482 39.4545 17.9367C38.1184 19.3729 37.0513 21.0301 36.2533 22.9082C35.4554 24.7864 34.9451 26.7659 34.7223 28.8466L34.611 29.979C34.5997 30.1301 34.5904 30.2804 34.5829 30.4301C35.6558 30.3868 36.7232 30.3438 37.7851 30.3011C39.3318 30.2389 40.867 30.1772 42.3906 30.1161C48.8488 29.8571 55.1008 29.6081 61.1522 29.3688ZM71.6403 28.956C69.0451 29.0577 66.4106 29.1613 63.7363 29.2668L68.6013 1.3922H76.4511L71.6403 28.956ZM86.3766 28.3829C83.7901 28.4827 81.1607 28.5846 78.4878 28.6886L81.0719 13.9317H88.8939L86.3766 28.3829ZM109.846 27.4902C106.298 27.623 102.653 27.7605 98.9107 27.9027L93.1809 13.9317H101.197L104.538 22.9635L110.94 13.9317H119.653L109.846 27.4902ZM43.0663 26.0376L53.8459 26.057L53.985 25.3664C54.1335 24.3537 54.0871 23.4147 53.8459 22.5492C53.6046 21.6653 53.1499 20.9565 52.4819 20.4225C51.8138 19.8884 50.923 19.6031 49.8096 19.5662C48.5292 19.5294 47.4528 19.7964 46.5806 20.3672C45.7084 20.9381 44.9939 21.693 44.4372 22.632C43.8805 23.5711 43.4537 24.5931 43.1567 25.6979C43.1257 25.8115 43.0956 25.9248 43.0663 26.0376Z" fill="white" fill-opacity="0.82"/>
<path fill-rule="evenodd" clip-rule="evenodd" d="M2.05198 34.28L0.391815 43.6198H8.8861L10.6328 33.7841C7.82164 33.9448 4.96165 34.1101 2.05198 34.28ZM31.1274 32.6479C28.3073 32.7988 25.4312 32.9552 22.4978 33.1172L20.6299 43.6198H29.1241L31.1274 32.6479ZM41.6985 43.0122C43.3502 43.7488 45.2059 44.1355 47.2658 44.1723C48.7318 44.1907 50.2072 44.0066 51.6917 43.6198C53.1763 43.2516 54.5589 42.6716 55.8394 41.8798C57.1384 41.0696 58.2055 40.0385 59.0406 38.7864L55.5331 34.5881C54.5311 35.6192 53.3991 36.4478 52.1371 37.0739C50.8938 37.6815 49.5298 37.967 48.0452 37.9301C46.8761 37.8933 45.9019 37.6356 45.1224 37.1568C44.3616 36.6781 43.7584 36.052 43.313 35.2786C42.8863 34.5053 42.5986 33.6398 42.4502 32.6823C42.4186 32.4749 42.3925 32.2674 42.3718 32.06C39.825 32.1898 37.2285 32.3245 34.5813 32.4643C34.6678 33.4671 34.8504 34.4328 35.1292 35.3615C35.6488 37.0924 36.456 38.6114 37.5509 39.9188C38.6644 41.2261 40.0469 42.2573 41.6985 43.0122ZM63.3517 31.0529L61.1583 43.6198H69.0081L71.2609 30.7119C68.6898 30.8187 66.0539 30.9323 63.3517 31.0529ZM78.1085 30.4382L75.8002 43.6198H83.6496L85.9956 30.152C83.4417 30.2391 80.8134 30.3345 78.1085 30.4382ZM97.6781 29.798L87.6866 43.6198H96.4546L103.163 34.0633L106.921 43.6198H114.882L109.134 29.5568C105.52 29.6126 101.706 29.6929 97.6781 29.798Z" fill="white"/>
</svg>
