<svg width="1307" height="611" viewBox="0 0 1307 611" fill="none" xmlns="http://www.w3.org/2000/svg">
<path fill-rule="evenodd" clip-rule="evenodd" d="M247.389 333.089L254.076 295.193C255.326 289.362 256.158 283.531 256.575 277.7C257.408 271.452 257.825 266.246 257.825 262.081C257.825 261.609 257.825 261.142 257.826 260.68C257.838 249.726 257.848 241.524 250.654 234.33C243.573 226.833 233.16 223.084 219.416 223.084C192.759 223.084 171.517 232.664 155.69 251.823C140.279 270.983 125.167 297.692 118.502 333.929L117.712 338.413C86.8336 339.684 55.5846 340.974 23.9616 342.282L64.7726 110.888H17.2905L27.2868 50.2861H74.7688L84.1403 0.929688H177.23L167.859 50.2861H264.072L254.076 110.888H157.238L155.988 117.135C153.072 133.796 149.948 148.998 146.617 162.743C143.285 176.488 140.369 188.151 137.87 197.73L142.593 192.107C156.69 174.694 173.121 167.599 191.346 159.729L191.6 159.619C209.926 151.706 229.502 147.749 250.328 147.749C270.737 147.749 288.438 151.497 303.432 158.995C318.427 166.492 330.089 177.53 338.419 192.107C346.749 206.685 350.914 224.804 350.914 246.462C350.914 253.126 350.498 262.497 349.665 274.576C348.832 286.238 347.791 295.818 346.541 303.315L341.846 329.233C310.774 330.498 279.29 331.783 247.389 333.089ZM665.88 316.176L667.87 301.256C670.107 280.309 669.395 260.276 665.735 241.159C662.074 221.839 655.261 204.653 645.295 189.604C635.33 174.554 622.213 162.555 605.942 153.606C589.673 144.658 570.047 139.98 547.066 139.573C522.458 138.964 500.087 143.234 479.952 152.386C460.022 161.335 442.735 173.843 428.092 189.909C413.45 205.772 401.755 224.075 393.01 244.819C384.265 265.563 378.673 287.426 376.232 310.408L375.012 322.915C374.888 324.584 374.786 326.245 374.704 327.897C386.462 327.419 398.159 326.945 409.797 326.473C426.748 325.785 443.571 325.104 460.269 324.429C531.046 321.569 599.562 318.818 665.88 316.176ZM780.82 311.616C752.379 312.739 723.507 313.883 694.199 315.049L747.516 7.17736H833.542L780.82 311.616ZM942.317 305.287C913.971 306.389 885.155 307.514 855.863 308.663L884.183 145.675H969.904L942.317 305.287ZM1199.52 295.427C1160.63 296.894 1120.69 298.412 1079.68 299.983L1016.89 145.675H1104.74L1141.35 245.43L1211.51 145.675H1307L1199.52 295.427ZM467.675 279.382L585.809 279.596L587.334 271.97C588.961 260.785 588.452 250.413 585.809 240.854C583.165 231.091 578.182 223.262 570.861 217.364C563.54 211.466 553.777 208.314 541.575 207.907C527.542 207.5 515.747 210.449 506.188 216.754C496.629 223.059 488.799 231.397 482.699 241.769C476.597 252.141 471.92 263.428 468.666 275.631C468.325 276.886 467.995 278.136 467.675 279.382Z" fill="white"/>
<path fill-rule="evenodd" clip-rule="evenodd" d="M18.1939 370.419L0 473.576H93.0898L112.233 364.942C81.4243 366.716 50.0813 368.542 18.1939 370.419ZM336.835 352.393C305.93 354.06 274.41 355.787 242.262 357.576L221.791 473.576H314.881L336.835 352.393ZM452.685 466.865C470.786 475.001 491.123 479.271 513.698 479.678C529.764 479.881 545.932 477.848 562.202 473.576C578.472 469.509 593.623 463.103 607.656 454.358C621.893 445.409 633.587 434.021 642.739 420.191L604.3 373.822C593.319 385.211 580.913 394.362 567.083 401.278C553.457 407.989 538.509 411.141 522.239 410.734C509.426 410.328 498.75 407.481 490.208 402.193C481.87 396.905 475.26 389.99 470.379 381.449C465.702 372.907 462.549 363.348 460.922 352.773C460.576 350.482 460.29 348.19 460.064 345.899C432.153 347.333 403.697 348.821 374.687 350.365C375.634 361.441 377.636 372.107 380.691 382.363C386.385 401.481 395.232 418.259 407.231 432.699C419.434 447.138 434.585 458.528 452.685 466.865ZM689.985 334.776L665.948 473.576H751.974L776.663 331.01C748.485 332.189 719.599 333.444 689.985 334.776ZM851.706 327.987L826.409 473.576H912.432L938.142 324.826C910.153 325.787 881.349 326.841 851.706 327.987ZM1066.17 320.916L956.674 473.576H1052.76L1126.28 368.026L1167.47 473.576H1254.71L1191.72 318.251C1152.12 318.868 1110.31 319.755 1066.17 320.916Z" fill="white"/>
<path d="M677.743 510.009L664.352 587.071H646.251L659.589 510.009H677.743ZM701.242 542.083L698.755 556.373H664.458L666.946 542.083H701.242ZM709.711 510.009L707.223 524.352H669.962L672.503 510.009H709.711ZM771.743 546.687L771.373 549.81C770.667 554.856 769.308 559.708 767.297 564.365C765.321 568.987 762.71 573.098 759.464 576.697C756.253 580.296 752.442 583.137 748.032 585.218C743.621 587.265 738.664 588.235 733.159 588.129C727.867 588.023 723.35 586.894 719.61 584.742C715.905 582.59 712.941 579.714 710.718 576.115C708.531 572.516 707.049 568.476 706.272 563.995C705.496 559.513 705.39 554.891 705.955 550.128L706.325 547.005C707.031 541.995 708.389 537.196 710.401 532.609C712.412 527.987 715.041 523.876 718.287 520.277C721.533 516.678 725.361 513.873 729.772 511.862C734.183 509.815 739.122 508.845 744.592 508.951C749.849 509.021 754.33 510.133 758.035 512.285C761.74 514.437 764.686 517.313 766.874 520.912C769.097 524.476 770.596 528.498 771.373 532.979C772.184 537.425 772.308 541.995 771.743 546.687ZM752.954 550.128L753.377 546.846C753.624 544.764 753.783 542.418 753.854 539.807C753.924 537.196 753.695 534.673 753.166 532.238C752.636 529.768 751.613 527.722 750.096 526.099C748.614 524.476 746.426 523.594 743.533 523.453C740.322 523.311 737.605 523.964 735.382 525.411C733.159 526.822 731.325 528.728 729.878 531.127C728.466 533.491 727.355 536.067 726.543 538.854C725.732 541.642 725.15 544.323 724.797 546.899L724.373 550.181C724.126 552.262 723.95 554.627 723.844 557.273C723.774 559.884 723.985 562.424 724.479 564.894C725.009 567.364 726.032 569.428 727.549 571.087C729.066 572.71 731.289 573.574 734.218 573.68C737.358 573.821 740.04 573.169 742.263 571.722C744.486 570.24 746.321 568.299 747.767 565.9C749.249 563.501 750.396 560.907 751.207 558.12C752.054 555.332 752.636 552.668 752.954 550.128ZM785.347 510.009L813.875 510.062C818.568 510.133 822.89 510.979 826.842 512.603C830.794 514.226 833.899 516.713 836.157 520.065C838.416 523.382 839.368 527.634 839.015 532.821C838.698 537.09 837.745 540.689 836.157 543.618C834.57 546.511 832.417 548.981 829.7 551.028C826.983 553.074 823.79 554.891 820.121 556.479L813.558 559.866H787.941L790.376 545.523L807.789 545.629C810.117 545.594 812.181 545.135 813.981 544.253C815.816 543.371 817.315 542.118 818.48 540.495C819.644 538.872 820.385 536.896 820.703 534.567C820.985 532.662 820.914 530.968 820.491 529.486C820.068 527.969 819.256 526.769 818.056 525.887C816.857 525.005 815.269 524.511 813.293 524.405L801.014 524.352L790.111 587.071H772.01L785.347 510.009ZM813.346 587.071L802.708 552.986L821.073 552.88L832.664 586.171V587.071H813.346ZM921.586 540.601L919.098 554.891H880.62L883.108 540.601H921.586ZM894.54 510.009L881.15 587.071H863.049L876.386 510.009H894.54ZM938.999 510.009L925.608 587.071H907.56L920.898 510.009H938.999ZM988.805 572.781L986.318 587.071H946.358L948.845 572.781H988.805ZM966.258 510.009L952.868 587.071H934.767L948.104 510.009H966.258ZM989.229 540.601L986.847 554.415H952.021L954.456 540.601H989.229ZM999.814 510.009L997.326 524.352H957.208L959.748 510.009H999.814ZM1004.79 510.009L1033.32 510.062C1038.01 510.133 1042.33 510.979 1046.29 512.603C1050.24 514.226 1053.34 516.713 1055.6 520.065C1057.86 523.382 1058.81 527.634 1058.46 532.821C1058.14 537.09 1057.19 540.689 1055.6 543.618C1054.01 546.511 1051.86 548.981 1049.14 551.028C1046.43 553.074 1043.23 554.891 1039.56 556.479L1033 559.866H1007.38L1009.82 545.523L1027.23 545.629C1029.56 545.594 1031.63 545.135 1033.42 544.253C1035.26 543.371 1036.76 542.118 1037.92 540.495C1039.09 538.872 1039.83 536.896 1040.15 534.567C1040.43 532.662 1040.36 530.968 1039.93 529.486C1039.51 527.969 1038.7 526.769 1037.5 525.887C1036.3 525.005 1034.71 524.511 1032.74 524.405L1020.46 524.352L1009.55 587.071H991.454L1004.79 510.009ZM1032.79 587.071L1022.15 552.986L1040.52 552.88L1052.11 586.171V587.071H1032.79ZM1128.06 546.687L1127.69 549.81C1126.98 554.856 1125.63 559.708 1123.61 564.365C1121.64 568.987 1119.03 573.098 1115.78 576.697C1112.57 580.296 1108.76 583.137 1104.35 585.218C1099.94 587.265 1094.98 588.235 1089.48 588.129C1084.18 588.023 1079.67 586.894 1075.93 584.742C1072.22 582.59 1069.26 579.714 1067.04 576.115C1064.85 572.516 1063.37 568.476 1062.59 563.995C1061.81 559.513 1061.71 554.891 1062.27 550.128L1062.64 547.005C1063.35 541.995 1064.71 537.196 1066.72 532.609C1068.73 527.987 1071.36 523.876 1074.6 520.277C1077.85 516.678 1081.68 513.873 1086.09 511.862C1090.5 509.815 1095.44 508.845 1100.91 508.951C1106.17 509.021 1110.65 510.133 1114.35 512.285C1118.06 514.437 1121 517.313 1123.19 520.912C1125.41 524.476 1126.91 528.498 1127.69 532.979C1128.5 537.425 1128.62 541.995 1128.06 546.687ZM1109.27 550.128L1109.69 546.846C1109.94 544.764 1110.1 542.418 1110.17 539.807C1110.24 537.196 1110.01 534.673 1109.48 532.238C1108.95 529.768 1107.93 527.722 1106.41 526.099C1104.93 524.476 1102.74 523.594 1099.85 523.453C1096.64 523.311 1093.92 523.964 1091.7 525.411C1089.48 526.822 1087.64 528.728 1086.2 531.127C1084.78 533.491 1083.67 536.067 1082.86 538.854C1082.05 541.642 1081.47 544.323 1081.11 546.899L1080.69 550.181C1080.44 552.262 1080.27 554.627 1080.16 557.273C1080.09 559.884 1080.3 562.424 1080.8 564.894C1081.33 567.364 1082.35 569.428 1083.87 571.087C1085.38 572.71 1087.61 573.574 1090.54 573.68C1093.68 573.821 1096.36 573.169 1098.58 571.722C1100.8 570.24 1102.64 568.299 1104.08 565.9C1105.57 563.501 1106.71 560.907 1107.52 558.12C1108.37 555.332 1108.95 552.668 1109.27 550.128ZM1182.37 572.781L1179.88 587.071H1139.92L1142.41 572.781H1182.37ZM1159.82 510.009L1146.43 587.071H1128.33L1141.66 510.009H1159.82ZM1182.79 540.601L1180.41 554.415H1145.58L1148.02 540.601H1182.79ZM1193.37 510.009L1190.89 524.352H1150.77L1153.31 510.009H1193.37ZM1227.14 566.218C1227.46 564.559 1227.34 563.148 1226.77 561.983C1226.24 560.819 1225.43 559.831 1224.34 559.019C1223.28 558.208 1222.06 557.52 1220.69 556.955C1219.35 556.355 1218.04 555.809 1216.77 555.315C1214.02 554.221 1211.3 552.986 1208.62 551.61C1205.94 550.198 1203.5 548.54 1201.32 546.635C1199.13 544.729 1197.42 542.506 1196.18 539.966C1194.98 537.425 1194.47 534.444 1194.65 531.021C1194.89 527.105 1196.01 523.735 1197.98 520.912C1199.96 518.089 1202.48 515.796 1205.55 514.032C1208.65 512.232 1211.99 510.926 1215.55 510.115C1219.15 509.268 1222.66 508.88 1226.09 508.951C1230.95 509.021 1235.29 510.009 1239.11 511.914C1242.95 513.82 1245.97 516.554 1248.16 520.118C1250.34 523.647 1251.4 527.916 1251.33 532.926H1233.39C1233.46 530.951 1233.2 529.239 1232.6 527.793C1232.03 526.311 1231.1 525.164 1229.79 524.352C1228.48 523.505 1226.79 523.064 1224.71 523.029C1222.98 522.994 1221.25 523.276 1219.52 523.876C1217.79 524.441 1216.29 525.323 1215.02 526.522C1213.75 527.722 1212.94 529.275 1212.59 531.18C1212.34 532.627 1212.57 533.897 1213.28 534.991C1213.98 536.049 1214.95 536.967 1216.19 537.743C1217.42 538.484 1218.71 539.119 1220.05 539.648C1221.43 540.177 1222.63 540.636 1223.65 541.024C1226.54 542.118 1229.31 543.406 1231.96 544.888C1234.64 546.335 1237.01 548.046 1239.05 550.022C1241.13 551.998 1242.72 554.309 1243.82 556.955C1244.95 559.566 1245.4 562.601 1245.19 566.059C1244.91 570.046 1243.85 573.451 1242.02 576.274C1240.18 579.096 1237.82 581.39 1234.92 583.154C1232.03 584.918 1228.86 586.206 1225.4 587.018C1221.94 587.829 1218.43 588.218 1214.86 588.182C1210.88 588.112 1207.16 587.512 1203.7 586.383C1200.24 585.218 1197.22 583.542 1194.65 581.355C1192.07 579.132 1190.08 576.415 1188.67 573.204C1187.25 569.958 1186.58 566.235 1186.65 562.036L1204.81 562.089C1204.7 564.065 1204.83 565.812 1205.18 567.329C1205.57 568.811 1206.2 570.064 1207.08 571.087C1208 572.075 1209.18 572.833 1210.63 573.363C1212.08 573.857 1213.82 574.104 1215.87 574.104C1217.6 574.104 1219.26 573.839 1220.85 573.31C1222.47 572.745 1223.84 571.881 1224.97 570.716C1226.1 569.552 1226.83 568.052 1227.14 566.218Z" fill="white"/>
</svg>
